<svg xmlns="http://www.w3.org/2000/svg" xmlns:xlink="http://www.w3.org/1999/xlink" width="1024" zoomAndPan="magnify" viewBox="0 0 768 576" height="768" preserveAspectRatio="xMidYMid meet" version="1.0"><defs><clipPath id="3e10ab3873"><path d="M 161.089844 65.089844 L 606.589844 65.089844 L 606.589844 510.589844 L 161.089844 510.589844 Z M 161.089844 65.089844 " clip-rule="nonzero"/></clipPath></defs><rect x="-76.8" width="921.6" fill="#ffffff" y="-57.6" height="691.2" fill-opacity="1"/><rect x="-76.8" width="921.6" fill="#ca53fa" y="-57.6" height="691.2" fill-opacity="1"/><g clip-path="url(#3e10ab3873)"><path fill="#ffffff" d="M 606.589844 287.839844 C 606.589844 291.484375 606.5 295.128906 606.320312 298.769531 C 606.140625 302.410156 605.875 306.042969 605.515625 309.671875 C 605.160156 313.300781 604.714844 316.917969 604.179688 320.523438 C 603.644531 324.128906 603.019531 327.71875 602.308594 331.296875 C 601.597656 334.871094 600.800781 338.425781 599.914062 341.960938 C 599.027344 345.5 598.054688 349.011719 596.996094 352.5 C 595.9375 355.988281 594.796875 359.449219 593.566406 362.882812 C 592.339844 366.3125 591.027344 369.714844 589.632812 373.082031 C 588.238281 376.449219 586.761719 379.78125 585.203125 383.078125 C 583.644531 386.371094 582.003906 389.628906 580.285156 392.84375 C 578.570312 396.058594 576.773438 399.226562 574.898438 402.355469 C 573.023438 405.480469 571.074219 408.5625 569.050781 411.59375 C 567.023438 414.625 564.925781 417.601562 562.753906 420.53125 C 560.582031 423.460938 558.339844 426.332031 556.027344 429.148438 C 553.714844 431.96875 551.335938 434.726562 548.886719 437.429688 C 546.4375 440.128906 543.925781 442.769531 541.347656 445.347656 C 538.769531 447.925781 536.128906 450.4375 533.429688 452.886719 C 530.726562 455.335938 527.96875 457.714844 525.148438 460.027344 C 522.332031 462.339844 519.460938 464.582031 516.53125 466.753906 C 513.601562 468.925781 510.625 471.023438 507.59375 473.046875 C 504.5625 475.074219 501.480469 477.023438 498.355469 478.898438 C 495.230469 480.773438 492.058594 482.570312 488.84375 484.285156 C 485.628906 486.003906 482.371094 487.644531 479.078125 489.203125 C 475.78125 490.761719 472.449219 492.238281 469.082031 493.632812 C 465.714844 495.027344 462.3125 496.339844 458.882812 497.566406 C 455.449219 498.796875 451.988281 499.9375 448.5 500.996094 C 445.011719 502.054688 441.5 503.027344 437.960938 503.914062 C 434.425781 504.800781 430.871094 505.597656 427.296875 506.308594 C 423.71875 507.019531 420.128906 507.644531 416.523438 508.179688 C 412.917969 508.710938 409.300781 509.160156 405.671875 509.515625 C 402.042969 509.875 398.410156 510.140625 394.769531 510.320312 C 391.128906 510.5 387.484375 510.589844 383.839844 510.589844 C 380.195312 510.589844 376.550781 510.5 372.910156 510.320312 C 369.269531 510.140625 365.632812 509.875 362.003906 509.515625 C 358.378906 509.160156 354.761719 508.714844 351.15625 508.179688 C 347.546875 507.644531 343.957031 507.019531 340.382812 506.308594 C 336.808594 505.597656 333.25 504.800781 329.714844 503.914062 C 326.179688 503.027344 322.667969 502.054688 319.179688 500.996094 C 315.691406 499.9375 312.230469 498.796875 308.796875 497.566406 C 305.363281 496.339844 301.964844 495.027344 298.597656 493.632812 C 295.226562 492.238281 291.898438 490.761719 288.601562 489.203125 C 285.304688 487.644531 282.050781 486.003906 278.835938 484.285156 C 275.621094 482.570312 272.449219 480.773438 269.324219 478.898438 C 266.195312 477.023438 263.117188 475.074219 260.085938 473.046875 C 257.054688 471.023438 254.074219 468.925781 251.148438 466.753906 C 248.21875 464.582031 245.347656 462.339844 242.527344 460.027344 C 239.710938 457.714844 236.949219 455.332031 234.25 452.886719 C 231.546875 450.4375 228.910156 447.925781 226.332031 445.347656 C 223.753906 442.769531 221.242188 440.128906 218.792969 437.429688 C 216.34375 434.726562 213.964844 431.96875 211.652344 429.148438 C 209.339844 426.332031 207.097656 423.460938 204.925781 420.53125 C 202.753906 417.601562 200.65625 414.625 198.628906 411.59375 C 196.605469 408.5625 194.652344 405.480469 192.78125 402.355469 C 190.90625 399.226562 189.109375 396.058594 187.390625 392.84375 C 185.671875 389.628906 184.035156 386.371094 182.476562 383.078125 C 180.917969 379.78125 179.441406 376.449219 178.042969 373.082031 C 176.648438 369.714844 175.339844 366.3125 174.109375 362.882812 C 172.882812 359.449219 171.738281 355.988281 170.679688 352.5 C 169.621094 349.011719 168.648438 345.5 167.765625 341.960938 C 166.878906 338.425781 166.082031 334.871094 165.367188 331.296875 C 164.65625 327.71875 164.035156 324.128906 163.5 320.523438 C 162.964844 316.917969 162.519531 313.300781 162.160156 309.671875 C 161.804688 306.042969 161.535156 302.410156 161.355469 298.769531 C 161.179688 295.128906 161.089844 291.484375 161.089844 287.839844 C 161.089844 284.195312 161.179688 280.550781 161.355469 276.910156 C 161.535156 273.269531 161.804688 269.632812 162.160156 266.003906 C 162.519531 262.378906 162.964844 258.761719 163.5 255.15625 C 164.035156 251.546875 164.65625 247.957031 165.367188 244.382812 C 166.082031 240.808594 166.878906 237.25 167.765625 233.714844 C 168.648438 230.179688 169.621094 226.667969 170.679688 223.179688 C 171.738281 219.691406 172.882812 216.230469 174.109375 212.796875 C 175.339844 209.363281 176.648438 205.964844 178.042969 202.597656 C 179.441406 199.226562 180.917969 195.898438 182.476562 192.601562 C 184.035156 189.304688 185.671875 186.050781 187.390625 182.835938 C 189.109375 179.621094 190.90625 176.449219 192.78125 173.324219 C 194.652344 170.195312 196.605469 167.117188 198.628906 164.085938 C 200.65625 161.054688 202.753906 158.074219 204.925781 155.148438 C 207.097656 152.21875 209.339844 149.347656 211.652344 146.527344 C 213.964844 143.710938 216.34375 140.949219 218.792969 138.25 C 221.242188 135.546875 223.753906 132.910156 226.332031 130.332031 C 228.910156 127.753906 231.546875 125.242188 234.25 122.792969 C 236.949219 120.34375 239.710938 117.964844 242.527344 115.652344 C 245.347656 113.339844 248.21875 111.097656 251.148438 108.925781 C 254.074219 106.753906 257.054688 104.65625 260.085938 102.628906 C 263.117188 100.605469 266.195312 98.652344 269.324219 96.78125 C 272.449219 94.90625 275.621094 93.109375 278.835938 91.390625 C 282.050781 89.671875 285.304688 88.035156 288.601562 86.476562 C 291.898438 84.917969 295.226562 83.441406 298.597656 82.042969 C 301.964844 80.648438 305.363281 79.339844 308.796875 78.109375 C 312.230469 76.882812 315.691406 75.738281 319.179688 74.679688 C 322.667969 73.621094 326.179688 72.648438 329.714844 71.765625 C 333.25 70.878906 336.808594 70.082031 340.382812 69.367188 C 343.957031 68.65625 347.546875 68.035156 351.15625 67.5 C 354.761719 66.964844 358.378906 66.519531 362.003906 66.160156 C 365.632812 65.804688 369.269531 65.535156 372.910156 65.355469 C 376.550781 65.179688 380.195312 65.089844 383.839844 65.089844 C 387.484375 65.089844 391.128906 65.179688 394.769531 65.355469 C 398.410156 65.535156 402.042969 65.804688 405.671875 66.160156 C 409.300781 66.519531 412.917969 66.964844 416.523438 67.5 C 420.128906 68.035156 423.71875 68.65625 427.296875 69.367188 C 430.871094 70.082031 434.425781 70.878906 437.960938 71.765625 C 441.5 72.648438 445.011719 73.621094 448.5 74.679688 C 451.988281 75.738281 455.449219 76.882812 458.882812 78.109375 C 462.3125 79.339844 465.714844 80.648438 469.082031 82.042969 C 472.449219 83.441406 475.78125 84.917969 479.078125 86.476562 C 482.371094 88.035156 485.628906 89.671875 488.84375 91.390625 C 492.058594 93.109375 495.230469 94.90625 498.355469 96.78125 C 501.480469 98.652344 504.5625 100.605469 507.59375 102.628906 C 510.625 104.65625 513.601562 106.753906 516.53125 108.925781 C 519.460938 111.097656 522.332031 113.339844 525.148438 115.652344 C 527.96875 117.964844 530.726562 120.34375 533.429688 122.792969 C 536.128906 125.242188 538.769531 127.753906 541.347656 130.332031 C 543.925781 132.910156 546.4375 135.546875 548.886719 138.25 C 551.335938 140.949219 553.714844 143.710938 556.027344 146.527344 C 558.339844 149.347656 560.582031 152.21875 562.753906 155.148438 C 564.925781 158.074219 567.023438 161.054688 569.050781 164.085938 C 571.074219 167.117188 573.023438 170.195312 574.898438 173.324219 C 576.773438 176.449219 578.570312 179.621094 580.285156 182.835938 C 582.003906 186.050781 583.644531 189.304688 585.203125 192.601562 C 586.761719 195.898438 588.238281 199.226562 589.632812 202.597656 C 591.027344 205.964844 592.339844 209.363281 593.566406 212.796875 C 594.796875 216.230469 595.9375 219.691406 596.996094 223.179688 C 598.054688 226.667969 599.027344 230.179688 599.914062 233.714844 C 600.800781 237.25 601.597656 240.808594 602.308594 244.382812 C 603.019531 247.957031 603.644531 251.546875 604.179688 255.15625 C 604.714844 258.761719 605.160156 262.378906 605.515625 266.003906 C 605.875 269.632812 606.140625 273.269531 606.320312 276.910156 C 606.5 280.550781 606.589844 284.195312 606.589844 287.839844 Z M 606.589844 287.839844 " fill-opacity="1" fill-rule="nonzero"/></g><path fill="#f2c4b1" d="M 353.726562 460.699219 C 353.726562 460.699219 354.539062 400.511719 356.988281 379.988281 C 359.445312 359.460938 357.5625 335.804688 357.5625 335.804688 L 337.199219 328.738281 C 337.199219 328.738281 338.394531 363.125 338.570312 370.527344 C 338.65625 373.96875 337.660156 392.515625 338.371094 412.308594 C 338.9375 428.054688 341.308594 443.890625 340.886719 458.550781 C 340.886719 458.550781 344.695312 460.390625 353.726562 460.699219 Z M 353.726562 460.699219 " fill-opacity="1" fill-rule="evenodd"/><path fill="#f2c4b1" d="M 308.492188 460.699219 C 308.492188 460.699219 307.679688 400.511719 305.230469 379.988281 C 302.773438 359.460938 304.65625 335.804688 304.65625 335.804688 L 326.183594 332.144531 C 326.183594 332.144531 323.824219 363.125 323.644531 370.527344 C 323.558594 373.96875 324.558594 392.515625 323.847656 412.308594 C 323.28125 428.054688 320.90625 443.890625 321.332031 458.550781 C 321.332031 458.550781 317.523438 460.390625 308.492188 460.699219 Z M 308.492188 460.699219 " fill-opacity="1" fill-rule="evenodd"/><path fill="#69bac9" d="M 354.050781 455.621094 C 354.050781 455.621094 358.132812 459.390625 360.632812 461.5625 C 369.484375 469.246094 377.609375 474.953125 377.136719 476.730469 C 376.449219 479.316406 339.308594 474.863281 337.476562 471.417969 C 336.097656 468.824219 340.371094 455.453125 340.371094 455.453125 C 345.4375 459.195312 350.230469 459.324219 354.050781 455.621094 Z M 354.050781 455.621094 " fill-opacity="1" fill-rule="evenodd"/><path fill="#69bac9" d="M 308.171875 455.621094 C 308.171875 455.621094 304.085938 459.390625 301.589844 461.5625 C 292.738281 469.246094 284.609375 474.953125 285.085938 476.730469 C 285.769531 479.316406 322.910156 474.863281 324.746094 471.417969 C 326.125 468.824219 321.847656 455.453125 321.847656 455.453125 C 316.785156 459.195312 311.988281 459.324219 308.171875 455.621094 Z M 308.171875 455.621094 " fill-opacity="1" fill-rule="evenodd"/><path fill="#28444a" d="M 324.722656 92.082031 C 324.722656 92.082031 314.484375 95.105469 316.636719 112.835938 C 319.097656 133.105469 338.054688 147.824219 354.691406 137.820312 C 360.9375 134.066406 368.261719 125.753906 369.589844 116.242188 C 371.722656 100.980469 366.332031 89.367188 357.324219 84.191406 C 348.316406 79.015625 329.652344 78.757812 324.722656 92.082031 Z M 324.722656 92.082031 " fill-opacity="1" fill-rule="evenodd"/><path fill="#28444a" d="M 332.355469 88.558594 C 329.019531 83.003906 321.820312 80.574219 315.992188 84.238281 C 312.253906 86.589844 309.734375 90.875 308.339844 94.96875 C 306.539062 100.253906 306.84375 106.171875 307.5625 111.605469 C 308.757812 120.632812 310.960938 129.84375 310.507812 139 C 310.144531 146.304688 308.132812 154.546875 300.320312 157.039062 C 301.453125 159.167969 303.253906 160.253906 305.511719 161.09375 C 313.285156 163.996094 319.742188 159.484375 322.371094 152.125 C 325.320312 143.867188 324.234375 134.582031 322.589844 126.199219 C 321.257812 119.429688 319.390625 112.476562 320.800781 105.554688 C 322.128906 99.039062 327.902344 96.714844 331.292969 91.621094 " fill-opacity="1" fill-rule="evenodd"/><path fill="#69bac9" d="M 365.824219 236.917969 C 365.824219 236.917969 368.214844 237.222656 370.367188 253.28125 C 372.523438 269.339844 358.792969 449.574219 358.792969 449.574219 C 358.328125 452.109375 334.109375 451.539062 334.109375 451.539062 C 334.109375 451.539062 335.601562 313.179688 333.390625 312.984375 C 331.070312 312.78125 326.183594 451.574219 326.183594 451.574219 C 326.183594 451.574219 304.929688 451.785156 303.96875 450.289062 C 303.96875 450.289062 298.46875 246.132812 307.230469 236.851562 Z M 365.824219 236.917969 " fill-opacity="1" fill-rule="evenodd"/><path fill="#28444a" d="M 369.65625 248.542969 C 369.894531 249.945312 370.132812 251.515625 370.371094 253.28125 C 370.835938 256.773438 370.558594 268.03125 369.824219 283.511719 C 355.980469 288.183594 330.964844 294.964844 302.515625 294.925781 C 302.785156 278.273438 303.296875 263.601562 304.160156 253.132812 C 321.996094 248.050781 351.96875 241.5 369.65625 248.542969 Z M 369.65625 248.542969 " fill-opacity="1" fill-rule="evenodd"/><path fill="#f2c4b1" d="M 285.761719 197.769531 L 279.945312 207.578125 C 279.945312 207.578125 291.59375 217.773438 301.792969 222.519531 C 311.988281 227.265625 306.753906 243.085938 298.660156 232.765625 C 290.570312 222.441406 264.394531 218.5 264.105469 207.984375 C 263.964844 202.847656 274 190.589844 274 190.589844 Z M 285.761719 197.769531 " fill-opacity="1" fill-rule="evenodd"/><path fill="#f2c4b1" d="M 348.085938 137.800781 C 348.085938 137.800781 346.378906 151.003906 353.433594 151.257812 L 344.683594 182.238281 L 327.464844 150.964844 C 327.464844 150.964844 333.410156 152.121094 333.582031 146.230469 C 333.75 140.339844 333.609375 133.363281 333.609375 133.363281 Z M 348.085938 137.800781 " fill-opacity="1" fill-rule="evenodd"/><path fill="#f2c4b1" d="M 364.402344 99.734375 C 364.402344 99.734375 366.71875 109.03125 364.625 120.152344 C 362.53125 131.269531 356.421875 140.105469 343.644531 139.894531 C 330.863281 139.679688 324.796875 123.148438 324.796875 123.148438 C 324.796875 123.148438 318.816406 125.421875 317.332031 116.800781 C 315.851562 108.183594 322.222656 108.132812 324.667969 111.167969 C 324.667969 111.167969 324.832031 94.378906 336.3125 94.574219 C 347.792969 94.769531 358.351562 89.597656 364.402344 99.734375 Z M 364.402344 99.734375 " fill-opacity="1" fill-rule="evenodd"/><path fill="#28444a" d="M 338.398438 114.121094 C 337.515625 114.121094 336.800781 115.359375 336.800781 116.882812 C 336.800781 118.40625 337.515625 119.640625 338.398438 119.640625 C 339.28125 119.640625 339.996094 118.40625 339.996094 116.882812 C 339.996094 115.359375 339.28125 114.121094 338.398438 114.121094 Z M 356.84375 114.121094 C 355.960938 114.121094 355.246094 115.359375 355.246094 116.882812 C 355.246094 118.40625 355.960938 119.640625 356.84375 119.640625 C 357.726562 119.640625 358.445312 118.40625 358.445312 116.882812 C 358.445312 115.359375 357.726562 114.121094 356.84375 114.121094 Z M 356.675781 114.972656 C 356.269531 114.972656 355.941406 115.300781 355.941406 115.707031 C 355.941406 116.113281 356.269531 116.445312 356.675781 116.445312 C 357.082031 116.445312 357.414062 116.113281 357.414062 115.707031 C 357.414062 115.300781 357.082031 114.972656 356.675781 114.972656 Z M 338.273438 114.972656 C 337.867188 114.972656 337.539062 115.300781 337.539062 115.707031 C 337.539062 116.113281 337.867188 116.445312 338.273438 116.445312 C 338.679688 116.445312 339.011719 116.113281 339.011719 115.707031 C 339.011719 115.300781 338.679688 114.972656 338.273438 114.972656 Z M 338.273438 114.972656 " fill-opacity="1" fill-rule="evenodd"/><path fill="#28444a" d="M 341.855469 115.773438 C 341.425781 116.949219 340.027344 117.953125 338.730469 117.539062 C 338.449219 117.453125 338.296875 117.15625 338.382812 116.878906 C 338.476562 116.605469 338.769531 116.445312 339.046875 116.539062 C 339.820312 116.78125 340.609375 116.113281 340.863281 115.414062 C 340.960938 115.140625 341.265625 115 341.539062 115.097656 C 341.8125 115.199219 341.953125 115.5 341.855469 115.773438 Z M 341.855469 115.773438 " fill-opacity="1" fill-rule="evenodd"/><path fill="#28444a" d="M 360.710938 115.773438 C 360.277344 116.949219 358.882812 117.953125 357.582031 117.539062 C 357.304688 117.453125 357.152344 117.15625 357.238281 116.878906 C 357.328125 116.605469 357.621094 116.445312 357.898438 116.539062 C 358.675781 116.78125 359.464844 116.113281 359.71875 115.414062 C 359.8125 115.140625 360.117188 115 360.390625 115.097656 C 360.664062 115.199219 360.804688 115.5 360.710938 115.773438 Z M 360.710938 115.773438 " fill-opacity="1" fill-rule="evenodd"/><path fill="#ea9e7f" d="M 331.496094 133.914062 C 334.941406 133.8125 337.714844 130.984375 337.714844 127.519531 C 337.714844 123.988281 334.847656 121.121094 331.3125 121.121094 C 328.742188 121.121094 326.527344 122.632812 325.507812 124.816406 C 326.480469 126.933594 328.464844 130.683594 331.496094 133.914062 Z M 364.125 122.445312 C 363.046875 121.613281 361.691406 121.121094 360.222656 121.121094 C 356.691406 121.121094 353.820312 123.988281 353.820312 127.519531 C 353.820312 130.503906 355.875 133.015625 358.644531 133.722656 C 361.277344 130.710938 363.046875 126.804688 364.125 122.445312 Z M 364.125 122.445312 " fill-opacity="1" fill-rule="evenodd"/><path fill="#28444a" d="M 342.03125 110.851562 C 339.511719 110.25 336.746094 110.59375 334.8125 112.4375 C 334.578125 112.660156 334.203125 112.652344 333.980469 112.417969 C 333.757812 112.183594 333.765625 111.8125 334 111.589844 C 336.230469 109.464844 339.402344 109.015625 342.304688 109.710938 C 342.621094 109.785156 342.816406 110.105469 342.738281 110.417969 C 342.664062 110.734375 342.347656 110.929688 342.03125 110.851562 Z M 342.03125 110.851562 " fill-opacity="1" fill-rule="evenodd"/><path fill="#28444a" d="M 352.960938 109.839844 C 355.792969 108.898438 358.992188 109.070312 361.398438 110.996094 C 361.648438 111.195312 361.691406 111.566406 361.488281 111.820312 C 361.285156 112.070312 360.917969 112.113281 360.664062 111.910156 C 358.574219 110.238281 355.792969 110.136719 353.332031 110.953125 C 353.023438 111.054688 352.691406 110.890625 352.589844 110.582031 C 352.488281 110.273438 352.65625 109.941406 352.960938 109.839844 Z M 352.960938 109.839844 " fill-opacity="1" fill-rule="evenodd"/><path fill="#ea9e7f" d="M 348.035156 119.566406 C 348.433594 120.449219 349.207031 121.824219 349.410156 123.085938 C 349.570312 124.105469 349.386719 125.054688 348.574219 125.75 C 348.121094 126.140625 347.574219 126.359375 347.023438 126.550781 C 346.714844 126.65625 346.382812 126.496094 346.273438 126.191406 C 346.167969 125.886719 346.328125 125.550781 346.636719 125.441406 C 347.050781 125.296875 347.472656 125.152344 347.8125 124.859375 C 348.433594 124.324219 348.355469 123.523438 348.125 122.730469 C 347.839844 121.734375 347.277344 120.734375 346.964844 120.046875 C 346.832031 119.753906 346.964844 119.402344 347.261719 119.269531 C 347.554688 119.136719 347.902344 119.269531 348.035156 119.566406 Z M 348.035156 119.566406 " fill-opacity="1" fill-rule="evenodd"/><path fill="#e07779" d="M 348.453125 130.75 C 345.726562 132.046875 342.671875 130.792969 341.734375 128.917969 C 341.601562 128.65625 341.289062 128.550781 341.027344 128.679688 C 340.769531 128.8125 340.660156 129.128906 340.792969 129.386719 C 341.925781 131.660156 345.601562 133.273438 348.90625 131.703125 C 349.167969 131.578125 349.28125 131.261719 349.15625 131 C 349.027344 130.738281 348.714844 130.625 348.453125 130.75 Z M 348.453125 130.75 " fill-opacity="1" fill-rule="evenodd"/><path fill="#ea9e7f" d="M 320.46875 116.46875 C 320.46875 116.667969 320.507812 116.859375 320.582031 117.042969 C 320.660156 117.226562 320.765625 117.386719 320.90625 117.527344 C 321.046875 117.667969 321.210938 117.777344 321.394531 117.851562 C 321.578125 117.929688 321.765625 117.964844 321.964844 117.964844 C 322.164062 117.964844 322.355469 117.929688 322.539062 117.851562 C 322.722656 117.777344 322.882812 117.667969 323.023438 117.527344 C 323.164062 117.386719 323.273438 117.226562 323.347656 117.042969 C 323.421875 116.859375 323.460938 116.667969 323.460938 116.46875 C 323.460938 116.273438 323.421875 116.082031 323.347656 115.898438 C 323.273438 115.714844 323.164062 115.554688 323.023438 115.414062 C 322.882812 115.273438 322.722656 115.164062 322.539062 115.089844 C 322.355469 115.011719 322.164062 114.976562 321.964844 114.976562 C 321.765625 114.976562 321.574219 115.011719 321.394531 115.089844 C 321.210938 115.164062 321.046875 115.273438 320.90625 115.414062 C 320.765625 115.554688 320.660156 115.714844 320.582031 115.898438 C 320.507812 116.082031 320.46875 116.273438 320.46875 116.46875 Z M 320.46875 116.46875 " fill-opacity="1" fill-rule="nonzero"/><path fill="#ea9e7f" d="M 347.027344 139.007812 C 342.882812 139.59375 338.261719 138.484375 334.992188 135.960938 C 334.765625 135.785156 334.433594 135.828125 334.253906 136.058594 C 334.078125 136.289062 334.121094 136.621094 334.351562 136.796875 C 337.835938 139.484375 342.761719 140.675781 347.175781 140.054688 C 347.464844 140.011719 347.667969 139.746094 347.625 139.457031 C 347.585938 139.171875 347.316406 138.96875 347.027344 139.007812 Z M 347.027344 139.007812 " fill-opacity="1" fill-rule="evenodd"/><path fill="#28444a" d="M 332.472656 98.011719 C 332.472656 98.011719 334.988281 99.339844 336.566406 100.023438 C 337.84375 100.578125 341.597656 92.476562 350.179688 94.355469 C 364.269531 97.4375 364.457031 116.617188 363.085938 128.796875 C 362.421875 134.683594 366.101562 119.316406 366.101562 119.316406 C 366.101562 119.316406 369.039062 105.351562 366.503906 99.839844 C 363.96875 94.328125 356.605469 81.652344 343.011719 82.539062 C 329.417969 83.425781 325.671875 89.425781 324.660156 92.089844 L 328.257812 95.855469 Z M 332.472656 98.011719 " fill-opacity="1" fill-rule="evenodd"/><path fill="#f2c4b1" d="M 403.285156 209.140625 C 403.285156 209.140625 402.929688 195.785156 389.886719 178.433594 L 382.097656 193.855469 L 389.046875 211.644531 Z M 403.285156 209.140625 " fill-opacity="1" fill-rule="evenodd"/><path fill="#69bac9" d="M 342.898438 170.808594 L 351.304688 149.824219 C 351.304688 149.824219 368.132812 150.902344 375.039062 154.515625 C 380.265625 157.253906 397.246094 189.972656 397.246094 189.972656 C 397.246094 189.972656 389.789062 201.566406 378.617188 202.738281 L 370.886719 194.375 C 371.339844 221.894531 369.835938 236.789062 373.34375 280.199219 C 363.089844 283.175781 354.082031 285.855469 340.949219 283.65625 L 336.875 260.429688 L 331.910156 283.292969 C 318.25 283.761719 310.964844 285.25 298.90625 280.894531 C 298.90625 280.894531 300.632812 221.566406 300.816406 219.554688 C 301.332031 213.890625 300.585938 188.867188 300.585938 188.867188 L 291.671875 203.550781 C 291.671875 203.550781 277.847656 199.234375 270.972656 190.867188 C 270.972656 190.867188 293.667969 153.902344 302 150.984375 C 308.664062 148.652344 326.601562 149.398438 330.753906 149.601562 Z M 342.898438 170.808594 " fill-opacity="1" fill-rule="evenodd"/><path fill="#28444a" d="M 299.417969 159.578125 C 301.261719 164.453125 301.664062 179.566406 300.488281 187.601562 C 300.445312 187.890625 300.644531 188.15625 300.933594 188.199219 C 301.222656 188.242188 301.488281 188.042969 301.53125 187.753906 C 302.730469 179.566406 302.28125 164.171875 300.40625 159.207031 C 300.304688 158.933594 300 158.796875 299.726562 158.902344 C 299.453125 159.003906 299.316406 159.308594 299.417969 159.578125 Z M 299.417969 159.578125 " fill-opacity="1" fill-rule="evenodd"/><path fill="#28444a" d="M 365.644531 247.132812 C 358.929688 247.585938 352.3125 248.367188 345.570312 248.519531 C 345.28125 248.523438 345.050781 248.765625 345.054688 249.058594 C 345.058594 249.347656 345.304688 249.578125 345.597656 249.570312 C 352.351562 249.421875 358.984375 248.636719 365.714844 248.183594 C 366.007812 248.164062 366.226562 247.914062 366.207031 247.621094 C 366.1875 247.332031 365.9375 247.113281 365.644531 247.132812 Z M 365.644531 247.132812 " fill-opacity="1" fill-rule="evenodd"/><path fill="#28444a" d="M 393.398438 187.09375 C 389.480469 192.367188 384.785156 197.003906 378.070312 198.234375 C 377.785156 198.285156 377.59375 198.558594 377.648438 198.847656 C 377.699219 199.132812 377.972656 199.320312 378.261719 199.269531 C 385.25 197.988281 390.164062 193.210938 394.25 187.71875 C 394.421875 187.488281 394.371094 187.15625 394.136719 186.984375 C 393.90625 186.808594 393.578125 186.859375 393.398438 187.09375 Z M 393.398438 187.09375 " fill-opacity="1" fill-rule="evenodd"/><path fill="#28444a" d="M 287.996094 196.011719 C 283.390625 194.679688 278.980469 192.59375 275.453125 189.292969 C 275.242188 189.09375 274.90625 189.105469 274.710938 189.316406 C 274.511719 189.53125 274.523438 189.863281 274.734375 190.0625 C 278.382812 193.476562 282.9375 195.648438 287.703125 197.023438 C 287.980469 197.105469 288.273438 196.945312 288.355469 196.664062 C 288.4375 196.386719 288.273438 196.09375 287.996094 196.011719 Z M 287.996094 196.011719 " fill-opacity="1" fill-rule="evenodd"/><path fill="#28444a" d="M 343.035156 177.363281 L 325.578125 149.410156 C 327.886719 149.46875 329.734375 149.550781 330.753906 149.601562 L 342.898438 170.808594 L 351.3125 149.820312 C 351.3125 149.820312 352.761719 149.914062 355 150.140625 Z M 343.035156 177.363281 " fill-opacity="1" fill-rule="evenodd"/><path fill="#28444a" d="M 373.761719 162.800781 C 373.035156 169.566406 371.871094 176.285156 371.15625 183.054688 C 370.296875 191.15625 370.046875 199.289062 370.230469 207.433594 C 370.234375 207.726562 370.476562 207.957031 370.765625 207.949219 C 371.058594 207.941406 371.289062 207.703125 371.28125 207.410156 C 371.105469 199.308594 371.351562 191.222656 372.203125 183.164062 C 372.917969 176.398438 374.085938 169.679688 374.808594 162.914062 C 374.839844 162.625 374.632812 162.367188 374.34375 162.335938 C 374.054688 162.304688 373.792969 162.511719 373.761719 162.800781 Z M 373.761719 162.800781 " fill-opacity="1" fill-rule="evenodd"/><path fill="#28444a" d="M 335.566406 100.289062 L 324.953125 91.816406 C 324.953125 91.816406 320 94.121094 318.589844 99.472656 C 317.183594 104.820312 319.746094 108.648438 320.625 109.394531 C 320.625 109.394531 324.234375 108.847656 327.121094 114.253906 C 331.492188 115.996094 328.9375 101.769531 335.566406 100.289062 Z M 335.566406 100.289062 " fill-opacity="1" fill-rule="evenodd"/><path fill="#28444a" d="M 386.160156 156.410156 C 379.238281 154.488281 368.621094 157.492188 362.589844 162.601562 C 354.050781 169.839844 351.390625 181.355469 343.855469 189.4375 C 340.695312 192.828125 337.09375 195.925781 333.191406 198.429688 C 329.5625 200.757812 325.648438 202.589844 321.890625 204.683594 C 310.902344 210.804688 294.980469 222.230469 299.039062 237.085938 C 299.582031 239.074219 300.414062 241.007812 301.480469 242.773438 C 303.058594 245.378906 305.207031 247.402344 307.933594 248.753906 C 310.03125 249.796875 312.335938 250.675781 314.648438 250.535156 C 362.734375 247.582031 390.871094 202.828125 394.546875 197.039062 C 396.996094 193.183594 399.089844 188.769531 399.871094 184.242188 C 401.480469 174.921875 400.042969 160.273438 386.160156 156.410156 Z M 386.160156 156.410156 " fill-opacity="1" fill-rule="evenodd"/><path fill="#69bac9" d="M 324.488281 96.140625 C 335.929688 91.433594 351.738281 90.71875 362.570312 94.429688 C 359.652344 89.019531 357.542969 84.738281 355.101562 80.082031 C 355.101562 80.082031 334.148438 80.84375 330.015625 81.386719 C 330.015625 81.386719 326.765625 90.089844 324.488281 96.140625 Z M 324.488281 96.140625 " fill-opacity="1" fill-rule="evenodd"/><path fill="#f2c4b1" d="M 388.496094 168.21875 C 383 160.71875 372.417969 164.019531 368.445312 166.292969 C 360.890625 170.613281 351.894531 189.058594 369.566406 193.679688 C 380.796875 196.617188 398.398438 181.734375 388.496094 168.21875 Z M 388.496094 168.21875 " fill-opacity="1" fill-rule="evenodd"/><path fill="#28444a" d="M 370.75 170.183594 C 372.105469 170.070312 373.605469 170.5625 374.359375 171.90625 C 374.503906 172.160156 374.824219 172.25 375.078125 172.105469 C 375.332031 171.964844 375.421875 171.644531 375.28125 171.390625 C 374.3125 169.664062 372.402344 168.984375 370.660156 169.136719 C 370.367188 169.160156 370.152344 169.414062 370.179688 169.707031 C 370.203125 169.996094 370.460938 170.210938 370.75 170.183594 Z M 370.75 170.183594 " fill-opacity="1" fill-rule="evenodd"/><path fill="#28444a" d="M 381.054688 175.296875 C 382.582031 175.4375 384.046875 176.164062 384.746094 177.074219 C 384.921875 177.304688 385.253906 177.347656 385.484375 177.171875 C 385.714844 176.996094 385.757812 176.664062 385.582031 176.433594 C 384.742188 175.335938 382.992188 174.414062 381.152344 174.246094 C 380.863281 174.21875 380.605469 174.433594 380.578125 174.722656 C 380.550781 175.011719 380.765625 175.269531 381.054688 175.296875 Z M 381.054688 175.296875 " fill-opacity="1" fill-rule="evenodd"/><path fill="#28444a" d="M 366.964844 173.257812 C 367.703125 175.195312 369.9375 176.246094 371.949219 175.953125 C 372.238281 175.910156 372.4375 175.640625 372.394531 175.351562 C 372.355469 175.066406 372.085938 174.867188 371.796875 174.910156 C 370.25 175.132812 368.515625 174.367188 367.949219 172.882812 C 367.84375 172.609375 367.539062 172.472656 367.265625 172.578125 C 366.996094 172.679688 366.859375 172.984375 366.964844 173.257812 Z M 366.964844 173.257812 " fill-opacity="1" fill-rule="evenodd"/><path fill="#28444a" d="M 378.304688 179.320312 C 379.148438 181.1875 381.195312 182.949219 383.425781 182.625 C 383.710938 182.582031 383.910156 182.3125 383.871094 182.023438 C 383.828125 181.738281 383.558594 181.539062 383.269531 181.582031 C 381.503906 181.839844 379.933594 180.363281 379.261719 178.886719 C 379.144531 178.621094 378.828125 178.503906 378.566406 178.625 C 378.300781 178.746094 378.183594 179.058594 378.304688 179.320312 Z M 378.304688 179.320312 " fill-opacity="1" fill-rule="evenodd"/><path fill="#ea9e7f" d="M 367.0625 184.601562 C 368.0625 186.027344 369.726562 186.902344 371.484375 186.363281 C 371.761719 186.277344 371.917969 185.984375 371.832031 185.703125 C 371.746094 185.425781 371.453125 185.269531 371.175781 185.355469 C 369.875 185.753906 368.664062 185.050781 367.925781 183.996094 C 367.757812 183.757812 367.429688 183.699219 367.191406 183.867188 C 366.953125 184.035156 366.894531 184.363281 367.0625 184.601562 Z M 367.0625 184.601562 " fill-opacity="1" fill-rule="evenodd"/><path fill="#ea9e7f" d="M 374.667969 193.90625 C 373.527344 192.886719 372.808594 191.40625 372.808594 189.757812 C 372.808594 186.6875 375.300781 184.195312 378.371094 184.195312 C 381.441406 184.195312 383.933594 186.6875 383.933594 189.757812 C 383.933594 189.796875 383.933594 189.839844 383.933594 189.878906 C 381.125 192.003906 377.847656 193.453125 374.667969 193.90625 Z M 362.015625 173.238281 C 364.726562 173.613281 366.8125 175.9375 366.8125 178.746094 C 366.8125 181.816406 364.320312 184.308594 361.25 184.308594 C 360.617188 184.308594 360.003906 184.199219 359.4375 184.003906 C 358.953125 180.441406 360.125 176.542969 362.015625 173.238281 Z M 362.015625 173.238281 " fill-opacity="1" fill-rule="evenodd"/><path fill="#f2c4b1" d="M 264.105469 209.066406 C 263.933594 202.695312 279.894531 207.011719 279.894531 207.011719 C 279.894531 207.011719 294.339844 219.652344 306.984375 225.535156 C 313.808594 228.714844 321.925781 230.164062 327.96875 234.8125 C 329.5625 236.035156 334.476562 239.730469 332.90625 241.191406 C 331.429688 242.566406 323.039062 233.925781 321.75 235.097656 C 320.851562 235.914062 334.058594 244.8125 331.847656 246.820312 C 329.871094 248.613281 320.558594 237.820312 319.933594 238.777344 C 319.652344 239.203125 330.179688 248.015625 327.371094 249.78125 C 325.355469 251.050781 318.539062 240.714844 317.757812 241.964844 C 317.40625 242.527344 325.050781 249.382812 323.46875 250.824219 C 321.675781 252.460938 317.015625 246.101562 316.054688 245.59375 C 312.429688 243.6875 308.335938 244.914062 303.105469 238.242188 C 293.070312 225.441406 264.460938 222.105469 264.105469 209.066406 " fill-opacity="1" fill-rule="evenodd"/><path fill="#f2c4b1" d="M 401.933594 204.898438 C 398.761719 198.105469 385.832031 210.691406 372.066406 212.921875 C 364.632812 214.125 356.429688 213.316406 349.347656 216.152344 C 347.484375 216.898438 341.75 219.117188 342.863281 220.949219 C 343.914062 222.671875 354.335938 216.636719 355.257812 218.113281 C 355.902344 219.140625 340.773438 224.125 342.355469 226.65625 C 343.773438 228.917969 355.667969 221.058594 356.007812 222.148438 C 356.160156 222.632812 343.636719 228.257812 345.859375 230.71875 C 347.457031 232.488281 356.824219 224.390625 357.234375 225.804688 C 357.421875 226.441406 348.203125 230.96875 349.332031 232.78125 C 350.613281 234.84375 356.824219 229.988281 357.886719 229.761719 C 361.894531 228.910156 365.5 231.203125 372.347656 226.199219 C 385.484375 216.605469 408.816406 219.644531 401.933594 204.898438 Z M 401.933594 204.898438 " fill-opacity="1" fill-rule="evenodd"/><path fill="#69bac9" d="M 482.851562 377.359375 C 482.851562 375.574219 482.144531 373.863281 480.882812 372.601562 C 479.617188 371.34375 477.90625 370.636719 476.125 370.636719 C 476.121094 370.636719 476.121094 370.636719 476.121094 370.636719 C 474.339844 370.636719 472.628906 371.34375 471.363281 372.601562 C 470.105469 373.863281 469.394531 375.574219 469.394531 377.359375 C 469.394531 397.746094 469.394531 458.691406 469.394531 479.078125 C 469.394531 480.863281 470.105469 482.574219 471.363281 483.832031 C 472.628906 485.09375 474.339844 485.804688 476.121094 485.804688 C 476.121094 485.804688 476.121094 485.804688 476.125 485.804688 C 477.90625 485.804688 479.617188 485.09375 480.882812 483.832031 C 482.144531 482.574219 482.851562 480.863281 482.851562 479.078125 C 482.851562 458.691406 482.851562 397.746094 482.851562 377.359375 Z M 482.851562 377.359375 " fill-opacity="1" fill-rule="evenodd"/><path fill="#69bac9" d="M 434.660156 377.359375 C 434.660156 375.574219 433.949219 373.863281 432.691406 372.601562 C 431.425781 371.34375 429.714844 370.636719 427.933594 370.636719 C 427.925781 370.636719 427.925781 370.636719 427.925781 370.636719 C 426.144531 370.636719 424.433594 371.34375 423.167969 372.601562 C 421.910156 373.863281 421.199219 375.574219 421.199219 377.359375 C 421.199219 397.746094 421.199219 458.691406 421.199219 479.078125 C 421.199219 480.863281 421.910156 482.574219 423.167969 483.832031 C 424.433594 485.09375 426.144531 485.804688 427.925781 485.804688 C 427.925781 485.804688 427.925781 485.804688 427.933594 485.804688 C 429.714844 485.804688 431.425781 485.09375 432.691406 483.832031 C 433.949219 482.574219 434.660156 480.863281 434.660156 479.078125 C 434.660156 458.691406 434.660156 397.746094 434.660156 377.359375 Z M 434.660156 377.359375 " fill-opacity="1" fill-rule="evenodd"/><path fill="#28444a" d="M 496.203125 370.632812 C 496.203125 366.6875 494.632812 362.902344 491.839844 360.109375 C 489.050781 357.320312 485.265625 355.753906 481.316406 355.753906 L 416.695312 355.753906 C 412.746094 355.753906 408.960938 357.320312 406.171875 360.109375 C 403.378906 362.902344 401.808594 366.6875 401.808594 370.632812 C 401.808594 374.582031 403.378906 378.363281 406.171875 381.15625 C 408.960938 383.945312 412.746094 385.515625 416.695312 385.515625 L 481.316406 385.515625 C 485.265625 385.515625 489.050781 383.945312 491.839844 381.15625 C 494.632812 378.363281 496.203125 374.582031 496.203125 370.632812 Z M 496.203125 370.632812 " fill-opacity="1" fill-rule="evenodd"/><path fill="#f2c4b1" d="M 419.183594 361.574219 C 421.675781 353.523438 400 385.765625 400.003906 392.78125 C 400.042969 418.230469 411.378906 442.117188 415.039062 469.816406 C 415.039062 469.816406 427.425781 466.789062 428.351562 463.480469 C 423.675781 419.6875 425.054688 407.734375 419.960938 395.058594 C 419.761719 394.5625 439.976562 371.359375 439.761719 370.863281 Z M 419.183594 361.574219 " fill-opacity="1" fill-rule="evenodd"/><path fill="#f2c4b1" d="M 396.523438 359.261719 C 400.246094 351.703125 373.78125 380.148438 372.6875 387.078125 C 368.734375 412.21875 376.179688 437.585938 375.453125 465.519531 C 375.453125 465.519531 388.160156 464.46875 389.59375 461.347656 C 391.847656 417.363281 395.082031 405.773438 392.039062 392.453125 C 391.917969 391.933594 415.523438 372.1875 415.390625 371.664062 Z M 396.523438 359.261719 " fill-opacity="1" fill-rule="evenodd"/><path fill="#28444a" d="M 374.824219 461.070312 C 374.824219 461.070312 371.042969 465.945312 368.703125 468.78125 C 360.417969 478.820312 352.5625 486.558594 353.40625 488.417969 C 354.632812 491.125 394.496094 479.445312 395.875 475.332031 C 396.910156 472.242188 389.777344 458.378906 389.777344 458.378906 C 384.914062 463.402344 379.683594 464.421875 374.824219 461.070312 Z M 374.824219 461.070312 " fill-opacity="1" fill-rule="evenodd"/><path fill="#28444a" d="M 413.785156 462.507812 C 413.785156 462.507812 411.261719 468.140625 409.65625 471.449219 C 403.980469 483.160156 398.175781 492.535156 399.433594 494.144531 C 401.265625 496.484375 437.242188 475.71875 437.609375 471.398438 C 437.882812 468.148438 427.675781 456.363281 427.675781 456.363281 C 424.140625 462.394531 419.296875 464.621094 413.785156 462.507812 Z M 413.785156 462.507812 " fill-opacity="1" fill-rule="evenodd"/><path fill="#28444a" d="M 461.933594 175.902344 C 461.933594 175.902344 472.171875 178.929688 470.019531 196.65625 C 467.5625 216.925781 448.601562 231.644531 431.964844 221.644531 C 425.71875 217.886719 419.820312 233.164062 418.371094 205.386719 C 417.046875 179.929688 420.324219 173.191406 429.335938 168.015625 C 438.34375 162.835938 457.003906 162.578125 461.933594 175.902344 Z M 461.933594 175.902344 " fill-opacity="1" fill-rule="evenodd"/><path fill="#28444a" d="M 451.070312 166.371094 C 453.5 166.816406 455.855469 167.59375 458 168.816406 C 462.339844 171.292969 466.488281 175.117188 468.914062 179.503906 C 470.902344 183.09375 471.8125 187.035156 472.605469 191.019531 C 473.953125 197.789062 474.46875 204.617188 473.929688 211.511719 C 473.40625 218.199219 473.132812 225.726562 468.410156 230.988281 C 466.765625 232.820312 463.523438 231.695312 461.082031 231.304688 C 460.976562 229.160156 460.578125 227.09375 459.539062 225.183594 C 459.40625 227.265625 459.285156 229.523438 457.78125 231.125 C 455.417969 233.648438 451.183594 232.09375 447.765625 232.34375 C 443.570312 232.648438 439.253906 232.917969 435.042969 232.71875 C 432.453125 232.597656 428.996094 232.71875 426.574219 231.691406 C 426.597656 229.832031 426.894531 227.859375 426.4375 226.039062 C 425.640625 227.757812 424.835938 229.722656 424.863281 231.664062 C 423.878906 231.78125 422.917969 231.742188 421.945312 231.53125 C 420.476562 227.457031 420.253906 223.335938 419.664062 219.089844 C 418.011719 207.277344 417.976562 195.558594 422.199219 184.253906 C 424.058594 179.269531 426.820312 174.292969 431.125 171 C 433.609375 169.097656 436.6875 167.910156 439.664062 167.035156 C 442.523438 166.195312 445.207031 166.058594 448.160156 166.40625 " fill-opacity="1" fill-rule="evenodd"/><path fill="#f2c4b1" d="M 480.328125 292.523438 L 483.820312 308.988281 C 483.820312 308.988281 473.164062 320.210938 463.445312 325.878906 C 453.730469 331.546875 460.402344 346.816406 467.507812 335.792969 C 474.613281 324.765625 500.3125 318.425781 499.628906 307.929688 C 499.292969 302.800781 496.578125 286.300781 496.578125 286.300781 Z M 480.328125 292.523438 " fill-opacity="1" fill-rule="evenodd"/><path fill="#f2c4b1" d="M 405.074219 271.949219 L 405.542969 349.539062 L 419.230469 330.761719 L 419.230469 266.207031 Z M 405.074219 271.949219 " fill-opacity="1" fill-rule="evenodd"/><path fill="#f2c4b1" d="M 438.570312 221.621094 C 438.570312 221.621094 440.277344 234.824219 433.222656 235.082031 L 441.972656 266.058594 L 459.191406 234.785156 C 459.191406 234.785156 453.246094 235.941406 453.074219 230.050781 C 452.90625 224.160156 453.046875 217.183594 453.046875 217.183594 Z M 438.570312 221.621094 " fill-opacity="1" fill-rule="evenodd"/><path fill="#e07779" d="M 457.546875 234.398438 C 454.535156 242.585938 440.777344 253.699219 434.304688 234.128906 C 434.304688 234.128906 416.6875 233.03125 411.5625 238.375 C 406.441406 243.714844 402.882812 279.007812 402.882812 279.007812 L 416.96875 280.339844 L 417.980469 288.28125 C 418.542969 319.398438 417.433594 323.410156 403.378906 343.164062 C 393.75 349.890625 371.515625 378.335938 371.515625 378.335938 C 371.515625 378.335938 414.65625 387.4375 437.609375 406.621094 C 440.039062 408.65625 492.664062 365.4375 484.953125 333.640625 C 477.996094 304.964844 477.789062 288.441406 477.789062 288.441406 L 480.570312 298.828125 C 480.570312 298.828125 498.109375 294.550781 499.769531 291.25 C 499.769531 291.25 497.746094 242.421875 479.902344 238.972656 C 469.804688 237.023438 457.546875 234.398438 457.546875 234.398438 Z M 457.546875 234.398438 " fill-opacity="1" fill-rule="evenodd"/><path fill="#28444a" d="M 418.738281 243.242188 C 414.578125 254.402344 412.570312 267.59375 416.335938 279.171875 C 416.425781 279.449219 416.722656 279.601562 416.996094 279.511719 C 417.277344 279.421875 417.425781 279.121094 417.335938 278.84375 C 413.640625 267.492188 415.644531 254.554688 419.726562 243.609375 C 419.828125 243.335938 419.683594 243.03125 419.417969 242.929688 C 419.144531 242.828125 418.839844 242.96875 418.738281 243.242188 Z M 418.738281 243.242188 " fill-opacity="1" fill-rule="evenodd"/><path fill="#f2c4b1" d="M 422.253906 183.554688 C 422.253906 183.554688 419.9375 192.855469 422.03125 203.972656 C 424.125 215.089844 430.234375 223.929688 443.011719 223.714844 C 455.792969 223.5 461.859375 206.96875 461.859375 206.96875 C 461.859375 206.96875 467.839844 209.242188 469.324219 200.621094 C 470.808594 192.003906 464.433594 191.953125 461.988281 194.988281 C 461.988281 194.988281 461.824219 178.199219 450.34375 178.394531 C 438.863281 178.589844 428.304688 173.417969 422.253906 183.554688 Z M 422.253906 183.554688 " fill-opacity="1" fill-rule="evenodd"/><path fill="#28444a" d="M 448.257812 197.941406 C 449.140625 197.941406 449.859375 199.179688 449.859375 200.703125 C 449.859375 202.226562 449.140625 203.460938 448.257812 203.460938 C 447.375 203.460938 446.660156 202.226562 446.660156 200.703125 C 446.660156 199.179688 447.375 197.941406 448.257812 197.941406 Z M 429.8125 197.941406 C 430.695312 197.941406 431.410156 199.179688 431.410156 200.703125 C 431.410156 202.226562 430.695312 203.460938 429.8125 203.460938 C 428.929688 203.460938 428.214844 202.226562 428.214844 200.703125 C 428.214844 199.179688 428.929688 197.941406 429.8125 197.941406 Z M 429.980469 198.792969 C 430.386719 198.792969 430.714844 199.121094 430.714844 199.527344 C 430.714844 199.933594 430.386719 200.265625 429.980469 200.265625 C 429.574219 200.265625 429.242188 199.933594 429.242188 199.527344 C 429.242188 199.121094 429.574219 198.792969 429.980469 198.792969 Z M 448.382812 198.792969 C 448.789062 198.792969 449.117188 199.121094 449.117188 199.527344 C 449.117188 199.933594 448.789062 200.265625 448.382812 200.265625 C 447.976562 200.265625 447.644531 199.933594 447.644531 199.527344 C 447.644531 199.121094 447.976562 198.792969 448.382812 198.792969 Z M 448.382812 198.792969 " fill-opacity="1" fill-rule="evenodd"/><path fill="#28444a" d="M 444.800781 199.59375 C 445.230469 200.769531 446.628906 201.777344 447.929688 201.359375 C 448.207031 201.273438 448.359375 200.976562 448.273438 200.699219 C 448.183594 200.425781 447.886719 200.269531 447.609375 200.359375 C 446.835938 200.601562 446.046875 199.933594 445.792969 199.234375 C 445.695312 198.960938 445.394531 198.820312 445.121094 198.917969 C 444.847656 199.019531 444.703125 199.320312 444.800781 199.59375 Z M 444.800781 199.59375 " fill-opacity="1" fill-rule="evenodd"/><path fill="#28444a" d="M 425.949219 199.59375 C 426.378906 200.769531 427.773438 201.777344 429.074219 201.359375 C 429.355469 201.273438 429.507812 200.976562 429.417969 200.699219 C 429.328125 200.425781 429.035156 200.269531 428.757812 200.359375 C 427.984375 200.601562 427.191406 199.933594 426.941406 199.234375 C 426.84375 198.960938 426.539062 198.820312 426.265625 198.917969 C 425.992188 199.019531 425.851562 199.320312 425.949219 199.59375 Z M 425.949219 199.59375 " fill-opacity="1" fill-rule="evenodd"/><path fill="#ea9e7f" d="M 455.160156 217.738281 C 451.714844 217.636719 448.941406 214.808594 448.941406 211.339844 C 448.941406 207.808594 451.8125 204.941406 455.34375 204.941406 C 457.914062 204.941406 460.132812 206.453125 461.148438 208.640625 C 460.175781 210.753906 458.191406 214.503906 455.160156 217.738281 Z M 422.53125 206.265625 C 423.609375 205.4375 424.964844 204.941406 426.433594 204.941406 C 429.964844 204.941406 432.835938 207.808594 432.835938 211.339844 C 432.835938 214.328125 430.78125 216.835938 428.011719 217.542969 C 425.382812 214.535156 423.609375 210.628906 422.53125 206.265625 Z M 422.53125 206.265625 " fill-opacity="1" fill-rule="evenodd"/><path fill="#28444a" d="M 444.625 194.671875 C 447.144531 194.070312 449.910156 194.414062 451.847656 196.257812 C 452.082031 196.480469 452.453125 196.472656 452.675781 196.238281 C 452.898438 196.003906 452.890625 195.632812 452.65625 195.410156 C 450.425781 193.285156 447.253906 192.835938 444.351562 193.53125 C 444.035156 193.609375 443.84375 193.925781 443.917969 194.238281 C 443.992188 194.554688 444.308594 194.75 444.625 194.671875 Z M 444.625 194.671875 " fill-opacity="1" fill-rule="evenodd"/><path fill="#28444a" d="M 433.710938 193.664062 C 430.878906 192.722656 427.683594 192.894531 425.277344 194.820312 C 425.023438 195.019531 424.984375 195.390625 425.1875 195.644531 C 425.386719 195.894531 425.757812 195.9375 426.011719 195.734375 C 428.097656 194.0625 430.882812 193.960938 433.339844 194.777344 C 433.648438 194.878906 433.980469 194.714844 434.082031 194.40625 C 434.1875 194.097656 434.019531 193.765625 433.710938 193.664062 Z M 433.710938 193.664062 " fill-opacity="1" fill-rule="evenodd"/><path fill="#ea9e7f" d="M 438.621094 203.386719 C 438.222656 204.269531 437.449219 205.644531 437.25 206.910156 C 437.085938 207.925781 437.269531 208.875 438.082031 209.570312 C 438.535156 209.960938 439.082031 210.179688 439.632812 210.371094 C 439.941406 210.480469 440.273438 210.316406 440.382812 210.011719 C 440.488281 209.707031 440.328125 209.371094 440.019531 209.265625 C 439.605469 209.117188 439.1875 208.972656 438.84375 208.679688 C 438.222656 208.144531 438.300781 207.34375 438.53125 206.550781 C 438.816406 205.554688 439.382812 204.554688 439.691406 203.867188 C 439.824219 203.574219 439.691406 203.226562 439.398438 203.09375 C 439.101562 202.960938 438.753906 203.089844 438.621094 203.386719 Z M 438.621094 203.386719 " fill-opacity="1" fill-rule="evenodd"/><path fill="#ea9e7f" d="M 437.582031 215.398438 C 437.8125 215.65625 438.105469 215.808594 438.425781 215.90625 C 438.773438 216.011719 439.167969 216.035156 439.511719 216.113281 C 441.957031 216.679688 444.71875 215.496094 445.863281 213.210938 C 445.996094 212.949219 445.890625 212.632812 445.632812 212.503906 C 445.367188 212.371094 445.054688 212.476562 444.921875 212.738281 C 443.992188 214.597656 441.738281 215.546875 439.75 215.085938 C 439.472656 215.023438 439.15625 215 438.863281 214.933594 C 438.683594 214.890625 438.5 214.839844 438.375 214.695312 C 438.175781 214.480469 437.84375 214.460938 437.628906 214.652344 C 437.410156 214.847656 437.390625 215.179688 437.582031 215.398438 Z M 437.582031 215.398438 " fill-opacity="1" fill-rule="evenodd"/><path fill="#ea9e7f" d="M 466.1875 200.292969 C 466.1875 200.488281 466.148438 200.679688 466.074219 200.863281 C 465.996094 201.046875 465.890625 201.207031 465.75 201.347656 C 465.609375 201.488281 465.445312 201.597656 465.261719 201.671875 C 465.082031 201.75 464.890625 201.785156 464.691406 201.785156 C 464.492188 201.785156 464.300781 201.75 464.117188 201.671875 C 463.933594 201.597656 463.773438 201.488281 463.632812 201.347656 C 463.492188 201.207031 463.382812 201.046875 463.308594 200.863281 C 463.234375 200.679688 463.195312 200.488281 463.195312 200.292969 C 463.195312 200.09375 463.234375 199.902344 463.308594 199.71875 C 463.382812 199.535156 463.492188 199.375 463.632812 199.234375 C 463.773438 199.09375 463.933594 198.984375 464.117188 198.910156 C 464.300781 198.832031 464.492188 198.796875 464.691406 198.796875 C 464.890625 198.796875 465.082031 198.832031 465.261719 198.910156 C 465.445312 198.984375 465.609375 199.09375 465.75 199.234375 C 465.890625 199.375 465.996094 199.535156 466.074219 199.71875 C 466.148438 199.902344 466.1875 200.09375 466.1875 200.292969 Z M 466.1875 200.292969 " fill-opacity="1" fill-rule="nonzero"/><path fill="#ea9e7f" d="M 439.480469 223.875 C 443.894531 224.496094 448.820312 223.304688 452.308594 220.617188 C 452.535156 220.441406 452.582031 220.109375 452.402344 219.878906 C 452.226562 219.648438 451.890625 219.605469 451.664062 219.785156 C 448.394531 222.304688 443.773438 223.414062 439.628906 222.832031 C 439.339844 222.789062 439.070312 222.992188 439.03125 223.277344 C 438.992188 223.566406 439.191406 223.835938 439.480469 223.875 Z M 439.480469 223.875 " fill-opacity="1" fill-rule="evenodd"/><path fill="#28444a" d="M 480.492188 243.109375 C 478.199219 247.894531 476.445312 263.195312 476.941406 271.457031 C 476.957031 271.746094 477.207031 271.96875 477.5 271.953125 C 477.789062 271.933594 478.011719 271.683594 477.992188 271.394531 C 477.503906 263.285156 479.195312 248.261719 481.445312 243.5625 C 481.570312 243.300781 481.460938 242.988281 481.195312 242.859375 C 480.933594 242.734375 480.617188 242.847656 480.492188 243.109375 Z M 480.492188 243.109375 " fill-opacity="1" fill-rule="evenodd"/><path fill="#28444a" d="M 482.820312 294.007812 C 487.75 293.503906 492.621094 292.179688 496.820312 289.472656 C 497.066406 289.316406 497.132812 288.988281 496.980469 288.746094 C 496.820312 288.5 496.496094 288.429688 496.25 288.585938 C 492.191406 291.203125 487.480469 292.472656 482.710938 292.960938 C 482.421875 292.988281 482.210938 293.25 482.242188 293.539062 C 482.269531 293.828125 482.53125 294.039062 482.820312 294.007812 Z M 482.820312 294.007812 " fill-opacity="1" fill-rule="evenodd"/><path fill="#28444a" d="M 448.347656 178.519531 C 448.375 179.539062 448.425781 180.5625 448.332031 181.582031 C 447.882812 186.785156 443.726562 190.304688 437.867188 190.964844 C 438.546875 189.242188 439.070312 187.539062 439.035156 185.664062 C 438.050781 187.617188 436.664062 189.492188 434.671875 190.527344 C 433.652344 191.0625 432.507812 191.34375 431.402344 191.671875 C 429.460938 192.25 427.304688 192.585938 425.320312 192 C 426.214844 190.878906 426.832031 189.554688 427.101562 188.144531 C 426.335938 188.929688 425.546875 189.679688 424.699219 190.371094 C 424.277344 190.714844 423.828125 191.019531 423.332031 191.242188 C 421.945312 191.859375 420.59375 191.570312 420.171875 189.925781 C 419.667969 187.949219 419.929688 186.183594 420.320312 184.207031 C 421.097656 180.265625 423.9375 176.144531 427.316406 174.035156 C 435.304688 169.042969 446.441406 168.1875 454.671875 173.152344 C 460.066406 176.40625 463.207031 181.664062 463.769531 187.871094 C 463.96875 190.074219 463.992188 192.359375 462.980469 194.375 C 462.359375 195.613281 460.777344 195.941406 459.367188 196.078125 C 459.179688 190.695312 458.449219 188.757812 455.464844 184.335938 C 454.109375 182.328125 450.667969 179.449219 448.347656 178.519531 Z M 448.347656 178.519531 " fill-opacity="1" fill-rule="evenodd"/><path fill="#f2c4b1" d="M 499.75 309.003906 C 499.335938 302.644531 483.839844 308.414062 483.839844 308.414062 C 483.839844 308.414062 470.625 322.335938 458.574219 329.359375 C 452.074219 333.152344 444.125 335.347656 438.535156 340.53125 C 437.0625 341.898438 432.511719 346.03125 434.207031 347.339844 C 435.808594 348.574219 443.363281 339.195312 444.757812 340.242188 C 445.726562 340.972656 433.394531 351.054688 435.785156 352.847656 C 437.917969 354.453125 446.195312 342.84375 446.90625 343.738281 C 447.222656 344.136719 437.554688 353.886719 440.515625 355.382812 C 442.640625 356.457031 448.472656 345.539062 449.363281 346.710938 C 449.765625 347.238281 442.789062 354.773438 444.496094 356.0625 C 446.429688 357.523438 450.484375 350.761719 451.394531 350.171875 C 454.832031 347.9375 459.019531 348.78125 463.613281 341.652344 C 472.421875 327.980469 500.601562 322.023438 499.75 309.003906 " fill-opacity="1" fill-rule="evenodd"/></svg>