<svg xmlns="http://www.w3.org/2000/svg" xmlns:xlink="http://www.w3.org/1999/xlink" width="1024" zoomAndPan="magnify" viewBox="0 0 768 576" height="768" preserveAspectRatio="xMidYMid meet" version="1.0"><defs><clipPath id="01503df666"><path d="M 161.089844 65.089844 L 606.589844 65.089844 L 606.589844 510.589844 L 161.089844 510.589844 Z M 161.089844 65.089844 " clip-rule="nonzero"/></clipPath><clipPath id="a07729e742"><path d="M 489 208 L 528.425781 208 L 528.425781 250 L 489 250 Z M 489 208 " clip-rule="nonzero"/></clipPath><clipPath id="aee04e2274"><path d="M 466 222 L 528.425781 222 L 528.425781 264 L 466 264 Z M 466 222 " clip-rule="nonzero"/></clipPath><clipPath id="e92ed68ea3"><path d="M 239.675781 208 L 279 208 L 279 250 L 239.675781 250 Z M 239.675781 208 " clip-rule="nonzero"/></clipPath><clipPath id="2f2799fa86"><path d="M 239.675781 222 L 302 222 L 302 264 L 239.675781 264 Z M 239.675781 222 " clip-rule="nonzero"/></clipPath></defs><rect x="-76.8" width="921.6" fill="#ffffff" y="-57.6" height="691.2" fill-opacity="1"/><rect x="-76.8" width="921.6" fill="#ffffff" y="-57.6" height="691.2" fill-opacity="1"/><rect x="-76.8" width="921.6" fill="#0097b2" y="-57.6" height="691.2" fill-opacity="1"/><g clip-path="url(#01503df666)"><path fill="#ffffff" d="M 606.589844 287.839844 C 606.589844 291.484375 606.5 295.128906 606.320312 298.769531 C 606.140625 302.410156 605.875 306.042969 605.515625 309.671875 C 605.160156 313.300781 604.714844 316.917969 604.179688 320.523438 C 603.644531 324.128906 603.019531 327.71875 602.308594 331.296875 C 601.597656 334.871094 600.800781 338.425781 599.914062 341.964844 C 599.027344 345.5 598.054688 349.011719 596.996094 352.5 C 595.9375 355.988281 594.796875 359.449219 593.566406 362.882812 C 592.339844 366.3125 591.027344 369.714844 589.632812 373.082031 C 588.238281 376.449219 586.761719 379.78125 585.203125 383.078125 C 583.644531 386.371094 582.003906 389.628906 580.285156 392.84375 C 578.570312 396.058594 576.773438 399.230469 574.898438 402.355469 C 573.023438 405.480469 571.074219 408.5625 569.050781 411.59375 C 567.023438 414.625 564.925781 417.601562 562.753906 420.53125 C 560.582031 423.460938 558.339844 426.332031 556.027344 429.148438 C 553.714844 431.96875 551.335938 434.726562 548.886719 437.429688 C 546.4375 440.128906 543.925781 442.769531 541.347656 445.347656 C 538.769531 447.925781 536.128906 450.4375 533.429688 452.886719 C 530.726562 455.335938 527.96875 457.714844 525.148438 460.027344 C 522.332031 462.339844 519.460938 464.582031 516.53125 466.753906 C 513.601562 468.925781 510.625 471.023438 507.59375 473.050781 C 504.5625 475.074219 501.480469 477.023438 498.355469 478.898438 C 495.230469 480.773438 492.058594 482.570312 488.84375 484.285156 C 485.628906 486.003906 482.371094 487.644531 479.078125 489.203125 C 475.78125 490.761719 472.449219 492.238281 469.082031 493.632812 C 465.714844 495.027344 462.3125 496.339844 458.882812 497.566406 C 455.449219 498.796875 451.988281 499.9375 448.5 500.996094 C 445.011719 502.054688 441.5 503.027344 437.960938 503.914062 C 434.425781 504.800781 430.871094 505.597656 427.296875 506.308594 C 423.71875 507.019531 420.128906 507.644531 416.523438 508.179688 C 412.917969 508.714844 409.300781 509.160156 405.671875 509.515625 C 402.042969 509.875 398.410156 510.140625 394.769531 510.320312 C 391.128906 510.5 387.484375 510.589844 383.839844 510.589844 C 380.195312 510.589844 376.550781 510.5 372.910156 510.320312 C 369.269531 510.140625 365.632812 509.875 362.003906 509.515625 C 358.378906 509.160156 354.761719 508.714844 351.15625 508.179688 C 347.546875 507.644531 343.957031 507.019531 340.382812 506.308594 C 336.808594 505.597656 333.25 504.800781 329.714844 503.914062 C 326.179688 503.027344 322.667969 502.054688 319.179688 500.996094 C 315.691406 499.9375 312.230469 498.796875 308.796875 497.566406 C 305.363281 496.339844 301.964844 495.027344 298.597656 493.632812 C 295.226562 492.238281 291.898438 490.761719 288.601562 489.203125 C 285.304688 487.644531 282.050781 486.003906 278.835938 484.285156 C 275.621094 482.570312 272.449219 480.773438 269.324219 478.898438 C 266.195312 477.023438 263.117188 475.074219 260.085938 473.050781 C 257.054688 471.023438 254.074219 468.925781 251.148438 466.753906 C 248.21875 464.582031 245.347656 462.339844 242.527344 460.027344 C 239.710938 457.714844 236.949219 455.335938 234.25 452.886719 C 231.546875 450.4375 228.910156 447.925781 226.332031 445.347656 C 223.753906 442.769531 221.242188 440.128906 218.792969 437.429688 C 216.34375 434.726562 213.964844 431.96875 211.652344 429.148438 C 209.339844 426.332031 207.097656 423.460938 204.925781 420.53125 C 202.753906 417.601562 200.65625 414.625 198.628906 411.59375 C 196.605469 408.5625 194.652344 405.480469 192.78125 402.355469 C 190.90625 399.230469 189.109375 396.058594 187.390625 392.84375 C 185.671875 389.628906 184.035156 386.371094 182.476562 383.078125 C 180.917969 379.78125 179.441406 376.449219 178.042969 373.082031 C 176.648438 369.714844 175.339844 366.3125 174.109375 362.882812 C 172.882812 359.449219 171.738281 355.988281 170.679688 352.5 C 169.621094 349.011719 168.648438 345.5 167.765625 341.960938 C 166.878906 338.425781 166.082031 334.871094 165.367188 331.296875 C 164.65625 327.71875 164.035156 324.128906 163.5 320.523438 C 162.964844 316.917969 162.519531 313.300781 162.160156 309.671875 C 161.804688 306.042969 161.535156 302.410156 161.355469 298.769531 C 161.179688 295.128906 161.089844 291.484375 161.089844 287.839844 C 161.089844 284.195312 161.179688 280.550781 161.355469 276.910156 C 161.535156 273.269531 161.804688 269.632812 162.160156 266.003906 C 162.519531 262.378906 162.964844 258.761719 163.5 255.15625 C 164.035156 251.546875 164.65625 247.957031 165.367188 244.382812 C 166.082031 240.808594 166.878906 237.25 167.765625 233.714844 C 168.648438 230.179688 169.621094 226.667969 170.679688 223.179688 C 171.738281 219.691406 172.882812 216.230469 174.109375 212.796875 C 175.339844 209.363281 176.648438 205.964844 178.042969 202.597656 C 179.441406 199.226562 180.917969 195.898438 182.476562 192.601562 C 184.035156 189.304688 185.671875 186.050781 187.390625 182.835938 C 189.109375 179.621094 190.90625 176.449219 192.78125 173.324219 C 194.652344 170.195312 196.605469 167.117188 198.628906 164.085938 C 200.65625 161.054688 202.753906 158.074219 204.925781 155.148438 C 207.097656 152.21875 209.339844 149.347656 211.652344 146.527344 C 213.964844 143.710938 216.34375 140.949219 218.792969 138.25 C 221.242188 135.546875 223.753906 132.910156 226.332031 130.332031 C 228.910156 127.753906 231.546875 125.242188 234.25 122.792969 C 236.949219 120.34375 239.710938 117.964844 242.527344 115.652344 C 245.347656 113.339844 248.21875 111.097656 251.148438 108.925781 C 254.074219 106.753906 257.054688 104.65625 260.085938 102.628906 C 263.117188 100.605469 266.195312 98.652344 269.324219 96.78125 C 272.449219 94.90625 275.621094 93.109375 278.835938 91.390625 C 282.050781 89.671875 285.304688 88.035156 288.601562 86.476562 C 291.898438 84.917969 295.226562 83.441406 298.597656 82.042969 C 301.964844 80.648438 305.363281 79.339844 308.796875 78.109375 C 312.230469 76.882812 315.691406 75.738281 319.179688 74.679688 C 322.667969 73.621094 326.179688 72.648438 329.714844 71.765625 C 333.25 70.878906 336.808594 70.082031 340.382812 69.371094 C 343.957031 68.65625 347.546875 68.035156 351.15625 67.5 C 354.761719 66.964844 358.378906 66.519531 362.003906 66.160156 C 365.632812 65.804688 369.269531 65.535156 372.910156 65.355469 C 376.550781 65.179688 380.195312 65.089844 383.839844 65.089844 C 387.484375 65.089844 391.128906 65.179688 394.769531 65.355469 C 398.410156 65.535156 402.042969 65.804688 405.671875 66.160156 C 409.300781 66.519531 412.917969 66.964844 416.523438 67.5 C 420.128906 68.035156 423.71875 68.65625 427.296875 69.371094 C 430.871094 70.082031 434.425781 70.878906 437.960938 71.765625 C 441.5 72.648438 445.011719 73.621094 448.5 74.679688 C 451.988281 75.738281 455.449219 76.882812 458.882812 78.109375 C 462.3125 79.339844 465.714844 80.648438 469.082031 82.042969 C 472.449219 83.441406 475.78125 84.917969 479.078125 86.476562 C 482.371094 88.035156 485.628906 89.671875 488.84375 91.390625 C 492.058594 93.109375 495.230469 94.90625 498.355469 96.78125 C 501.480469 98.652344 504.5625 100.605469 507.59375 102.628906 C 510.625 104.65625 513.601562 106.753906 516.53125 108.925781 C 519.460938 111.097656 522.332031 113.339844 525.148438 115.652344 C 527.96875 117.964844 530.726562 120.34375 533.429688 122.792969 C 536.128906 125.242188 538.769531 127.753906 541.347656 130.332031 C 543.925781 132.910156 546.4375 135.546875 548.886719 138.25 C 551.335938 140.949219 553.714844 143.710938 556.027344 146.527344 C 558.339844 149.347656 560.582031 152.21875 562.753906 155.148438 C 564.925781 158.074219 567.023438 161.054688 569.050781 164.085938 C 571.074219 167.117188 573.023438 170.195312 574.898438 173.324219 C 576.773438 176.449219 578.570312 179.621094 580.285156 182.835938 C 582.003906 186.050781 583.644531 189.304688 585.203125 192.601562 C 586.761719 195.898438 588.238281 199.226562 589.632812 202.597656 C 591.027344 205.964844 592.339844 209.363281 593.566406 212.796875 C 594.796875 216.230469 595.9375 219.691406 596.996094 223.179688 C 598.054688 226.667969 599.027344 230.179688 599.914062 233.714844 C 600.800781 237.25 601.597656 240.808594 602.308594 244.382812 C 603.019531 247.957031 603.644531 251.546875 604.179688 255.15625 C 604.714844 258.761719 605.160156 262.378906 605.515625 266.003906 C 605.875 269.632812 606.140625 273.269531 606.320312 276.910156 C 606.5 280.550781 606.589844 284.195312 606.589844 287.839844 Z M 606.589844 287.839844 " fill-opacity="1" fill-rule="nonzero"/></g><path fill="#f2c4b1" d="M 448.101562 450.734375 C 448.101562 450.734375 447.371094 396.867188 445.179688 378.5 C 442.984375 360.128906 444.667969 338.957031 444.667969 338.957031 L 462.878906 332.628906 C 462.878906 332.628906 461.808594 363.40625 461.652344 370.03125 C 461.574219 373.109375 462.464844 389.710938 461.832031 407.425781 C 461.328125 421.519531 459.203125 435.691406 459.582031 448.8125 C 459.582031 448.8125 456.175781 450.457031 448.101562 450.734375 Z M 448.101562 450.734375 " fill-opacity="1" fill-rule="evenodd"/><path fill="#f2c4b1" d="M 488.550781 450.734375 C 488.550781 450.734375 489.28125 396.867188 491.472656 378.5 C 493.667969 360.128906 491.984375 338.957031 491.984375 338.957031 L 472.730469 335.679688 C 472.730469 335.679688 474.839844 363.40625 475 370.03125 C 475.078125 373.109375 474.183594 389.710938 474.820312 407.425781 C 475.324219 421.519531 477.449219 435.691406 477.070312 448.8125 C 477.070312 448.8125 480.476562 450.457031 488.550781 450.734375 Z M 488.550781 450.734375 " fill-opacity="1" fill-rule="evenodd"/><path fill="#28444a" d="M 447.8125 446.191406 C 447.8125 446.191406 444.160156 449.5625 441.921875 451.507812 C 434.007812 458.382812 426.742188 463.492188 427.164062 465.082031 C 427.777344 467.398438 460.992188 463.414062 462.632812 460.328125 C 463.867188 458.007812 460.042969 446.039062 460.042969 446.039062 C 455.515625 449.390625 451.226562 449.503906 447.8125 446.191406 Z M 447.8125 446.191406 " fill-opacity="1" fill-rule="evenodd"/><path fill="#28444a" d="M 488.839844 446.191406 C 488.839844 446.191406 492.492188 449.5625 494.726562 451.507812 C 502.644531 458.382812 509.910156 463.492188 509.488281 465.082031 C 508.875 467.398438 475.660156 463.414062 474.019531 460.328125 C 472.785156 458.007812 476.609375 446.039062 476.609375 446.039062 C 481.136719 449.390625 485.425781 449.503906 488.839844 446.191406 Z M 488.839844 446.191406 " fill-opacity="1" fill-rule="evenodd"/><path fill="#28444a" d="M 474.039062 120.824219 C 474.039062 120.824219 483.195312 123.53125 481.273438 139.402344 C 479.074219 157.542969 462.117188 170.714844 447.242188 161.761719 C 441.65625 158.402344 435.105469 150.960938 433.914062 142.449219 C 432.007812 128.789062 436.828125 118.398438 444.886719 113.765625 C 452.945312 109.132812 469.632812 108.902344 474.039062 120.824219 Z M 474.039062 120.824219 " fill-opacity="1" fill-rule="evenodd"/><path fill="#28444a" d="M 467.210938 117.671875 C 470.191406 112.703125 476.632812 110.527344 481.84375 113.808594 C 485.1875 115.910156 487.441406 119.746094 488.6875 123.410156 C 490.300781 128.140625 490.027344 133.433594 489.382812 138.300781 C 488.316406 146.378906 486.34375 154.625 486.75 162.816406 C 487.078125 169.351562 488.875 176.730469 495.863281 178.960938 C 494.847656 180.867188 493.238281 181.839844 491.21875 182.59375 C 484.265625 185.1875 478.488281 181.148438 476.140625 174.566406 C 473.5 167.175781 474.476562 158.863281 475.945312 151.359375 C 477.136719 145.300781 478.808594 139.078125 477.542969 132.886719 C 476.359375 127.054688 471.195312 124.972656 468.160156 120.414062 " fill-opacity="1" fill-rule="evenodd"/><path fill="#69bac9" d="M 437.28125 250.453125 C 437.28125 250.453125 435.144531 250.726562 433.21875 265.097656 C 431.289062 279.46875 443.570312 440.777344 443.570312 440.777344 C 443.984375 443.046875 465.644531 442.539062 465.644531 442.539062 C 465.644531 442.539062 464.308594 318.707031 466.285156 318.53125 C 468.363281 318.351562 472.734375 442.566406 472.734375 442.566406 C 472.734375 442.566406 491.738281 442.753906 492.597656 441.417969 C 492.597656 441.417969 497.519531 258.699219 489.683594 250.394531 Z M 437.28125 250.453125 " fill-opacity="1" fill-rule="evenodd"/><path fill="#28444a" d="M 433.855469 260.855469 C 433.644531 262.109375 433.429688 263.519531 433.21875 265.097656 C 432.800781 268.222656 433.050781 278.300781 433.707031 292.15625 C 446.085938 296.335938 468.460938 302.40625 493.902344 302.367188 C 493.660156 287.464844 493.203125 274.335938 492.429688 264.964844 C 476.480469 260.414062 449.675781 254.554688 433.855469 260.855469 Z M 433.855469 260.855469 " fill-opacity="1" fill-rule="evenodd"/><g clip-path="url(#a07729e742)"><path fill="#f2c4b1" d="M 508.882812 215.417969 L 514.085938 224.195312 C 514.085938 224.195312 503.667969 233.316406 494.546875 237.566406 C 485.425781 241.8125 490.109375 255.972656 497.34375 246.734375 C 504.582031 237.496094 527.992188 233.96875 528.25 224.554688 C 528.375 219.957031 519.402344 208.988281 519.402344 208.988281 Z M 508.882812 215.417969 " fill-opacity="1" fill-rule="evenodd"/></g><path fill="#f2c4b1" d="M 412.261719 207.511719 L 407.433594 216.199219 C 407.433594 216.199219 402.835938 203.992188 394.574219 189.695312 C 394.574219 189.695312 386.796875 187.476562 388.046875 191.867188 C 389.296875 196.257812 392.839844 232.652344 407.902344 232.375 C 418.179688 232.183594 429.523438 208.773438 429.523438 208.773438 Z M 412.261719 207.511719 " fill-opacity="1" fill-rule="evenodd"/><path fill="#f2c4b1" d="M 394.839844 191.632812 C 396.542969 187.625 396.089844 183.46875 396.046875 179.265625 C 396.023438 176.921875 396.222656 174.546875 396.546875 172.226562 C 396.605469 171.816406 396.671875 171.40625 396.726562 170.996094 C 396.761719 170.722656 396.78125 170.441406 396.808594 170.167969 C 396.828125 169.902344 396.84375 169.636719 396.859375 169.371094 C 396.90625 168.640625 397.0625 166.140625 395.574219 166.753906 C 394.761719 167.085938 394.351562 168.058594 394.09375 168.828125 C 393.460938 170.695312 393.261719 172.695312 392.984375 174.632812 C 392.882812 175.34375 392.820312 176.449219 392.257812 176.964844 C 389.996094 175.710938 378.199219 164.507812 376.023438 165.820312 C 372.839844 167.738281 384.890625 174.523438 384.558594 176.109375 C 384.25 177.59375 369.277344 167.46875 368.078125 171.46875 C 367.425781 173.644531 380.71875 177.671875 382.453125 179.664062 C 383.585938 180.972656 366.253906 176.539062 366.601562 179.496094 C 366.789062 181.066406 380.796875 182.339844 381.414062 183.578125 C 381.660156 184.074219 369.347656 183.71875 370.039062 186.023438 C 370.355469 187.070312 373.027344 186.976562 374.042969 186.945312 C 375.859375 186.894531 378.015625 186.726562 379.726562 187.464844 C 381.21875 188.109375 382.433594 189.410156 383.707031 190.386719 C 385.46875 191.738281 387.179688 192.832031 389.210938 193.746094 C 389.441406 194.730469 389.597656 195.726562 389.785156 196.722656 C 389.898438 197.328125 390.050781 197.996094 390.632812 198.3125 C 391.367188 198.710938 392.414062 198.332031 393.140625 198.097656 C 395.171875 197.441406 396.851562 196.152344 396.316406 193.859375 C 396.195312 193.328125 395.140625 192.078125 394.839844 191.632812 Z M 394.839844 191.632812 " fill-opacity="1" fill-rule="evenodd"/><path fill="#f2c4b1" d="M 453.144531 161.742188 C 453.144531 161.742188 454.671875 173.5625 448.359375 173.789062 L 456.1875 201.515625 L 471.585938 173.523438 C 471.585938 173.523438 466.269531 174.558594 466.117188 169.289062 C 465.964844 164.015625 466.089844 157.773438 466.089844 157.773438 Z M 453.144531 161.742188 " fill-opacity="1" fill-rule="evenodd"/><path fill="#f2c4b1" d="M 438.554688 127.675781 C 438.554688 127.675781 436.480469 135.996094 438.355469 145.949219 C 440.226562 155.898438 445.6875 163.808594 457.117188 163.617188 C 468.546875 163.425781 473.972656 148.628906 473.972656 148.628906 C 473.972656 148.628906 479.320312 150.664062 480.648438 142.949219 C 481.972656 135.234375 476.277344 135.191406 474.085938 137.910156 C 474.085938 137.910156 473.941406 122.882812 463.671875 123.058594 C 453.40625 123.234375 443.964844 118.601562 438.554688 127.675781 Z M 438.554688 127.675781 " fill-opacity="1" fill-rule="evenodd"/><path fill="#28444a" d="M 461.808594 140.550781 C 462.597656 140.550781 463.238281 141.660156 463.238281 143.023438 C 463.238281 144.386719 462.597656 145.492188 461.808594 145.492188 C 461.019531 145.492188 460.378906 144.386719 460.378906 143.023438 C 460.378906 141.660156 461.019531 140.550781 461.808594 140.550781 Z M 445.3125 140.550781 C 446.101562 140.550781 446.742188 141.660156 446.742188 143.023438 C 446.742188 144.386719 446.101562 145.492188 445.3125 145.492188 C 444.523438 145.492188 443.882812 144.386719 443.882812 143.023438 C 443.882812 141.660156 444.523438 140.550781 445.3125 140.550781 Z M 445.460938 141.3125 C 445.824219 141.3125 446.121094 141.605469 446.121094 141.972656 C 446.121094 142.335938 445.824219 142.628906 445.460938 142.628906 C 445.097656 142.628906 444.804688 142.335938 444.804688 141.972656 C 444.804688 141.605469 445.097656 141.3125 445.460938 141.3125 Z M 461.917969 141.3125 C 462.28125 141.3125 462.578125 141.605469 462.578125 141.972656 C 462.578125 142.335938 462.28125 142.628906 461.917969 142.628906 C 461.554688 142.628906 461.261719 142.335938 461.261719 141.972656 C 461.261719 141.605469 461.554688 141.3125 461.917969 141.3125 Z M 461.917969 141.3125 " fill-opacity="1" fill-rule="evenodd"/><path fill="#28444a" d="M 458.714844 142.03125 C 459.097656 143.082031 460.347656 143.980469 461.511719 143.609375 C 461.761719 143.535156 461.894531 143.265625 461.820312 143.015625 C 461.738281 142.773438 461.476562 142.632812 461.226562 142.714844 C 460.535156 142.929688 459.828125 142.332031 459.601562 141.707031 C 459.515625 141.464844 459.242188 141.335938 459 141.421875 C 458.753906 141.515625 458.628906 141.785156 458.714844 142.03125 Z M 458.714844 142.03125 " fill-opacity="1" fill-rule="evenodd"/><path fill="#28444a" d="M 441.855469 142.03125 C 442.238281 143.082031 443.488281 143.980469 444.652344 143.609375 C 444.898438 143.535156 445.035156 143.265625 444.960938 143.015625 C 444.878906 142.773438 444.617188 142.632812 444.367188 142.714844 C 443.671875 142.929688 442.96875 142.332031 442.742188 141.707031 C 442.65625 141.464844 442.382812 141.335938 442.140625 141.421875 C 441.894531 141.515625 441.769531 141.785156 441.855469 142.03125 Z M 441.855469 142.03125 " fill-opacity="1" fill-rule="evenodd"/><path fill="#ea9e7f" d="M 467.984375 158.265625 C 464.902344 158.175781 462.421875 155.644531 462.421875 152.542969 C 462.421875 149.382812 464.988281 146.8125 468.148438 146.8125 C 470.445312 146.8125 472.429688 148.167969 473.339844 150.125 C 472.46875 152.015625 470.695312 155.371094 467.984375 158.265625 Z M 438.804688 148 C 439.769531 147.257812 440.980469 146.8125 442.292969 146.8125 C 445.453125 146.8125 448.019531 149.382812 448.019531 152.542969 C 448.019531 155.214844 446.179688 157.460938 443.707031 158.09375 C 441.351562 155.398438 439.769531 151.902344 438.804688 148 Z M 438.804688 148 " fill-opacity="1" fill-rule="evenodd"/><path fill="#28444a" d="M 458.457031 137.621094 C 460.710938 137.082031 463.183594 137.390625 464.917969 139.042969 C 465.125 139.242188 465.457031 139.234375 465.660156 139.023438 C 465.859375 138.8125 465.851562 138.480469 465.640625 138.28125 C 463.644531 136.378906 460.808594 135.980469 458.214844 136.601562 C 457.933594 136.667969 457.757812 136.953125 457.828125 137.234375 C 457.894531 137.515625 458.175781 137.691406 458.457031 137.621094 Z M 458.457031 137.621094 " fill-opacity="1" fill-rule="evenodd"/><path fill="#28444a" d="M 448.785156 136.71875 C 446.25 135.875 443.390625 136.03125 441.242188 137.753906 C 441.015625 137.933594 440.976562 138.265625 441.160156 138.492188 C 441.339844 138.71875 441.671875 138.753906 441.894531 138.574219 C 443.761719 137.078125 446.253906 136.984375 448.453125 137.714844 C 448.726562 137.808594 449.023438 137.65625 449.117188 137.382812 C 449.207031 137.109375 449.058594 136.8125 448.785156 136.71875 Z M 448.785156 136.71875 " fill-opacity="1" fill-rule="evenodd"/><path fill="#ea9e7f" d="M 453.191406 145.421875 C 452.832031 146.214844 452.140625 147.445312 451.960938 148.578125 C 451.816406 149.484375 451.980469 150.335938 452.707031 150.960938 C 453.113281 151.308594 453.601562 151.503906 454.097656 151.675781 C 454.371094 151.773438 454.667969 151.625 454.765625 151.351562 C 454.859375 151.078125 454.714844 150.78125 454.441406 150.683594 C 454.070312 150.554688 453.695312 150.425781 453.390625 150.164062 C 452.832031 149.683594 452.90625 148.964844 453.109375 148.257812 C 453.363281 147.363281 453.871094 146.46875 454.148438 145.855469 C 454.265625 145.589844 454.148438 145.28125 453.882812 145.160156 C 453.621094 145.042969 453.308594 145.160156 453.191406 145.421875 Z M 453.191406 145.421875 " fill-opacity="1" fill-rule="evenodd"/><path fill="#28444a" d="M 460 153.539062 C 460.242188 154.679688 460.027344 155.742188 459.496094 156.621094 C 456.113281 154.773438 453.332031 156.085938 451.777344 157.285156 C 451.234375 156.589844 450.8125 155.648438 450.546875 154.445312 Z M 460 153.539062 " fill-opacity="1" fill-rule="evenodd"/><path fill="#e07779" d="M 451.726562 157.28125 C 453.277344 156.085938 456.0625 154.765625 459.441406 156.617188 L 459.203125 157.035156 C 457.222656 159.3125 454.496094 159.800781 452.128906 157.804688 Z M 451.726562 157.28125 " fill-opacity="1" fill-rule="evenodd"/><path fill="#ea9e7f" d="M 477.84375 142.652344 C 477.84375 142.832031 477.808594 143 477.742188 143.164062 C 477.671875 143.328125 477.574219 143.472656 477.449219 143.601562 C 477.324219 143.726562 477.179688 143.820312 477.015625 143.890625 C 476.851562 143.957031 476.679688 143.992188 476.503906 143.992188 C 476.328125 143.992188 476.15625 143.957031 475.992188 143.890625 C 475.828125 143.820312 475.683594 143.726562 475.558594 143.601562 C 475.433594 143.472656 475.335938 143.328125 475.269531 143.164062 C 475.199219 143 475.167969 142.832031 475.167969 142.652344 C 475.167969 142.476562 475.199219 142.304688 475.269531 142.140625 C 475.335938 141.976562 475.433594 141.832031 475.558594 141.707031 C 475.683594 141.582031 475.828125 141.484375 475.992188 141.417969 C 476.15625 141.347656 476.328125 141.316406 476.503906 141.316406 C 476.679688 141.316406 476.851562 141.347656 477.015625 141.417969 C 477.179688 141.484375 477.324219 141.582031 477.449219 141.707031 C 477.574219 141.832031 477.671875 141.976562 477.742188 142.140625 C 477.808594 142.304688 477.84375 142.476562 477.84375 142.652344 Z M 477.84375 142.652344 " fill-opacity="1" fill-rule="nonzero"/><path fill="#ea9e7f" d="M 453.960938 163.761719 C 457.910156 164.316406 462.3125 163.25 465.429688 160.84375 C 465.636719 160.6875 465.675781 160.390625 465.515625 160.183594 C 465.359375 159.976562 465.058594 159.941406 464.855469 160.097656 C 461.933594 162.355469 457.800781 163.347656 454.09375 162.824219 C 453.835938 162.789062 453.59375 162.96875 453.558594 163.226562 C 453.523438 163.484375 453.703125 163.722656 453.960938 163.761719 Z M 453.960938 163.761719 " fill-opacity="1" fill-rule="evenodd"/><path fill="#28444a" d="M 467.105469 126.132812 C 467.105469 126.132812 464.859375 127.320312 463.449219 127.933594 C 462.304688 128.429688 458.949219 121.179688 451.269531 122.859375 C 438.671875 125.617188 438.503906 142.785156 439.730469 153.683594 C 440.324219 158.953125 437.035156 145.203125 437.035156 145.203125 C 437.035156 145.203125 434.40625 132.699219 436.671875 127.769531 C 438.941406 122.835938 445.523438 111.492188 457.683594 112.285156 C 469.839844 113.078125 473.191406 118.449219 474.09375 120.835938 L 470.878906 124.203125 Z M 467.105469 126.132812 " fill-opacity="1" fill-rule="evenodd"/><path fill="#69bac9" d="M 457.78125 191.285156 L 450.265625 172.503906 C 450.265625 172.503906 435.21875 173.46875 429.039062 176.703125 C 424.363281 179.152344 409.179688 208.4375 409.179688 208.4375 C 409.179688 208.4375 415.847656 218.816406 425.839844 219.863281 L 432.753906 212.378906 C 432.347656 237.007812 433.695312 250.335938 430.554688 289.191406 C 439.726562 291.855469 447.785156 294.25 459.527344 292.285156 L 463.167969 271.496094 L 467.609375 291.957031 C 479.828125 292.378906 486.34375 293.707031 497.125 289.8125 C 497.125 289.8125 495.582031 236.710938 495.417969 234.914062 C 494.957031 229.84375 495.625 207.449219 495.625 207.449219 L 503.597656 220.589844 C 503.597656 220.589844 515.957031 216.726562 522.105469 209.238281 C 522.105469 209.238281 501.8125 176.15625 494.359375 173.542969 C 488.402344 171.457031 472.355469 172.125 468.644531 172.308594 Z M 457.78125 191.285156 " fill-opacity="1" fill-rule="evenodd"/><path fill="#28444a" d="M 437.382812 260.535156 C 443.402344 260.941406 449.332031 261.644531 455.375 261.777344 C 455.636719 261.785156 455.855469 261.578125 455.859375 261.316406 C 455.863281 261.054688 455.65625 260.839844 455.398438 260.835938 C 449.367188 260.703125 443.453125 260 437.445312 259.59375 C 437.183594 259.574219 436.960938 259.773438 436.941406 260.03125 C 436.925781 260.292969 437.121094 260.519531 437.382812 260.535156 Z M 437.382812 260.535156 " fill-opacity="1" fill-rule="evenodd"/><path fill="#28444a" d="M 411.863281 206.421875 C 415.515625 211.335938 419.910156 215.613281 426.160156 216.757812 C 426.417969 216.804688 426.664062 216.636719 426.710938 216.378906 C 426.757812 216.121094 426.585938 215.875 426.332031 215.828125 C 420.328125 214.730469 416.125 210.582031 412.625 205.859375 C 412.464844 205.648438 412.171875 205.605469 411.960938 205.761719 C 411.753906 205.917969 411.710938 206.210938 411.863281 206.421875 Z M 411.863281 206.421875 " fill-opacity="1" fill-rule="evenodd"/><path fill="#28444a" d="M 507.148438 214.75 C 511.410156 213.515625 515.484375 211.574219 518.746094 208.519531 C 518.9375 208.339844 518.945312 208.042969 518.769531 207.851562 C 518.59375 207.660156 518.292969 207.652344 518.105469 207.828125 C 514.949219 210.78125 511.007812 212.652344 506.886719 213.84375 C 506.640625 213.914062 506.492188 214.175781 506.566406 214.425781 C 506.640625 214.675781 506.902344 214.820312 507.148438 214.75 Z M 507.148438 214.75 " fill-opacity="1" fill-rule="evenodd"/><path fill="#28444a" d="M 457.664062 197.152344 L 473.277344 172.132812 C 471.210938 172.1875 469.558594 172.261719 468.648438 172.304688 L 457.785156 191.285156 L 450.265625 172.503906 C 450.265625 172.503906 448.964844 172.585938 446.964844 172.785156 Z M 457.664062 197.152344 " fill-opacity="1" fill-rule="evenodd"/><path fill="#28444a" d="M 429.25 184.222656 C 429.894531 190.273438 430.941406 196.289062 431.578125 202.34375 C 432.339844 209.558594 432.5625 216.792969 432.402344 224.042969 C 432.398438 224.304688 432.601562 224.519531 432.863281 224.527344 C 433.121094 224.53125 433.339844 224.324219 433.34375 224.066406 C 433.507812 216.773438 433.285156 209.496094 432.515625 202.246094 C 431.878906 196.1875 430.835938 190.175781 430.183594 184.121094 C 430.160156 183.863281 429.921875 183.675781 429.664062 183.703125 C 429.40625 183.730469 429.222656 183.960938 429.25 184.222656 Z M 429.25 184.222656 " fill-opacity="1" fill-rule="evenodd"/><path fill="#28444a" d="M 464.339844 128.171875 L 473.832031 120.589844 C 473.832031 120.589844 478.261719 122.652344 479.523438 127.441406 C 480.78125 132.226562 478.488281 135.652344 477.703125 136.320312 C 477.703125 136.320312 474.476562 135.832031 471.890625 140.667969 C 467.984375 142.230469 470.269531 129.496094 464.339844 128.171875 Z M 464.339844 128.171875 " fill-opacity="1" fill-rule="evenodd"/><path fill="#28444a" d="M 458.15625 201.679688 L 476.363281 272.839844 C 476.363281 272.839844 508.078125 267.777344 521.828125 261.121094 L 503 190.328125 Z M 458.15625 201.679688 " fill-opacity="1" fill-rule="evenodd"/><path fill="#f2c4b1" d="M 471.894531 208.394531 L 494.785156 202.792969 L 495.957031 207.59375 L 473.066406 213.195312 Z M 471.894531 208.394531 " fill-opacity="1" fill-rule="evenodd"/><g clip-path="url(#aee04e2274)"><path fill="#f2c4b1" d="M 528.25 225.523438 C 528.40625 219.824219 514.128906 223.6875 514.128906 223.6875 C 514.128906 223.6875 501.210938 235 489.902344 240.265625 C 483.800781 243.109375 476.539062 244.40625 471.136719 248.566406 C 469.710938 249.664062 465.316406 252.96875 466.71875 254.277344 C 468.042969 255.507812 475.546875 247.773438 476.699219 248.824219 C 477.5 249.554688 465.691406 257.519531 467.667969 259.316406 C 469.4375 260.921875 477.765625 251.261719 478.324219 252.113281 C 478.574219 252.496094 469.160156 260.386719 471.671875 261.964844 C 473.476562 263.097656 479.570312 253.847656 480.269531 254.96875 C 480.582031 255.472656 473.746094 261.609375 475.160156 262.898438 C 476.761719 264.363281 480.929688 258.671875 481.789062 258.21875 C 485.035156 256.511719 488.695312 257.609375 493.375 251.636719 C 502.347656 240.179688 527.933594 237.195312 528.25 225.523438 " fill-opacity="1" fill-rule="evenodd"/></g><path fill="#f2c4b1" d="M 319.984375 450.734375 C 319.984375 450.734375 320.714844 396.867188 322.902344 378.5 C 325.097656 360.128906 323.414062 338.957031 323.414062 338.957031 L 305.207031 332.628906 C 305.207031 332.628906 306.273438 363.40625 306.433594 370.03125 C 306.507812 373.109375 305.617188 389.710938 306.25 407.425781 C 306.757812 421.519531 308.882812 435.691406 308.5 448.8125 C 308.5 448.8125 311.910156 450.457031 319.984375 450.734375 Z M 319.984375 450.734375 " fill-opacity="1" fill-rule="evenodd"/><path fill="#f2c4b1" d="M 279.53125 450.734375 C 279.53125 450.734375 278.804688 396.867188 276.613281 378.5 C 274.417969 360.128906 276.101562 338.957031 276.101562 338.957031 L 295.351562 335.679688 C 295.351562 335.679688 293.242188 363.40625 293.085938 370.03125 C 293.007812 373.109375 293.898438 389.710938 293.265625 407.425781 C 292.757812 421.519531 290.636719 435.691406 291.015625 448.8125 C 291.015625 448.8125 287.609375 450.457031 279.53125 450.734375 Z M 279.53125 450.734375 " fill-opacity="1" fill-rule="evenodd"/><path fill="#28444a" d="M 320.273438 446.191406 C 320.273438 446.191406 323.925781 449.5625 326.160156 451.507812 C 334.074219 458.382812 341.34375 463.492188 340.917969 465.082031 C 340.304688 467.398438 307.089844 463.414062 305.449219 460.328125 C 304.214844 458.007812 308.039062 446.039062 308.039062 446.039062 C 312.570312 449.390625 316.859375 449.503906 320.273438 446.191406 Z M 320.273438 446.191406 " fill-opacity="1" fill-rule="evenodd"/><path fill="#28444a" d="M 279.242188 446.191406 C 279.242188 446.191406 275.589844 449.5625 273.355469 451.507812 C 265.441406 458.382812 258.171875 463.492188 258.59375 465.082031 C 259.210938 467.398438 292.425781 463.414062 294.066406 460.328125 C 295.296875 458.007812 291.476562 446.039062 291.476562 446.039062 C 286.945312 449.390625 282.65625 449.503906 279.242188 446.191406 Z M 279.242188 446.191406 " fill-opacity="1" fill-rule="evenodd"/><path fill="#28444a" d="M 294.042969 120.824219 C 294.042969 120.824219 284.886719 123.53125 286.8125 139.402344 C 289.011719 157.542969 305.964844 170.714844 320.84375 161.761719 C 326.429688 158.402344 331.707031 172.074219 333 147.210938 C 334.1875 124.429688 331.253906 118.398438 323.199219 113.765625 C 315.140625 109.132812 298.453125 108.902344 294.042969 120.824219 Z M 294.042969 120.824219 " fill-opacity="1" fill-rule="evenodd"/><path fill="#28444a" d="M 303.761719 112.292969 C 301.589844 112.691406 299.484375 113.390625 297.566406 114.484375 C 293.6875 116.699219 289.976562 120.121094 287.808594 124.050781 C 286.027344 127.261719 285.214844 130.789062 284.503906 134.355469 C 283.296875 140.414062 282.835938 146.527344 283.320312 152.695312 C 283.789062 158.683594 284.03125 165.417969 288.253906 170.128906 C 289.726562 171.769531 292.628906 170.761719 294.808594 170.410156 C 294.902344 168.492188 295.261719 166.640625 296.191406 164.929688 C 296.308594 166.792969 296.414062 168.816406 297.761719 170.25 C 299.875 172.507812 303.664062 171.113281 306.71875 171.339844 C 310.46875 171.613281 314.332031 171.851562 318.097656 171.675781 C 320.414062 171.566406 323.503906 171.675781 325.667969 170.757812 C 325.652344 169.09375 325.382812 167.328125 325.792969 165.695312 C 326.507812 167.234375 327.226562 168.992188 327.199219 170.730469 C 328.082031 170.835938 328.941406 170.800781 329.8125 170.613281 C 331.125 166.964844 331.324219 163.277344 331.851562 159.476562 C 333.328125 148.90625 333.359375 138.417969 329.585938 128.300781 C 327.917969 123.839844 325.453125 119.386719 321.601562 116.4375 C 319.378906 114.738281 316.625 113.671875 313.964844 112.890625 C 311.40625 112.136719 309.007812 112.015625 306.363281 112.328125 " fill-opacity="1" fill-rule="evenodd"/><g clip-path="url(#e92ed68ea3)"><path fill="#f2c4b1" d="M 259.199219 215.417969 L 253.996094 224.195312 C 253.996094 224.195312 264.417969 233.316406 273.535156 237.566406 C 282.65625 241.8125 277.976562 255.972656 270.738281 246.734375 C 263.5 237.496094 240.089844 233.96875 239.835938 224.554688 C 239.710938 219.957031 248.683594 208.988281 248.683594 208.988281 Z M 259.199219 215.417969 " fill-opacity="1" fill-rule="evenodd"/></g><path fill="#f2c4b1" d="M 314.941406 161.742188 C 314.941406 161.742188 313.410156 173.5625 319.722656 173.789062 L 311.894531 201.515625 L 296.496094 173.523438 C 296.496094 173.523438 301.8125 174.558594 301.964844 169.289062 C 302.121094 164.015625 301.992188 157.773438 301.992188 157.773438 Z M 314.941406 161.742188 " fill-opacity="1" fill-rule="evenodd"/><path fill="#e07779" d="M 299.054688 172.6875 C 299.054688 172.6875 310.796875 183.339844 317.324219 172.9375 C 317.324219 172.9375 329.910156 171.667969 334.488281 176.449219 C 339.066406 181.230469 357.277344 200.585938 357.277344 200.585938 L 331.851562 220.1875 C 331.851562 220.1875 334.238281 249.09375 334.480469 279.59375 C 334.726562 310.089844 333.242188 368.164062 333.242188 368.164062 C 333.242188 368.164062 303.925781 377.75 266.3125 369.5625 C 266.3125 369.5625 263.785156 288.082031 270.0625 261.308594 C 276.34375 234.535156 273.058594 208.246094 273.058594 208.246094 L 262.507812 219.742188 C 262.507812 219.742188 248.988281 215.621094 245.832031 209.339844 C 245.832031 209.339844 263.007812 180.207031 271.816406 177.554688 C 280.621094 174.902344 299.054688 172.6875 299.054688 172.6875 Z M 299.054688 172.6875 " fill-opacity="1" fill-rule="evenodd"/><path fill="#f2c4b1" d="M 329.53125 127.675781 C 329.53125 127.675781 331.601562 135.996094 329.730469 145.949219 C 327.855469 155.898438 322.394531 163.808594 310.964844 163.617188 C 299.539062 163.425781 294.109375 148.628906 294.109375 148.628906 C 294.109375 148.628906 288.761719 150.664062 287.4375 142.949219 C 286.109375 135.234375 291.808594 135.191406 293.996094 137.910156 C 293.996094 137.910156 294.140625 122.882812 304.410156 123.058594 C 314.679688 123.234375 324.117188 118.601562 329.53125 127.675781 Z M 329.53125 127.675781 " fill-opacity="1" fill-rule="evenodd"/><path fill="#28444a" d="M 306.273438 140.550781 C 305.484375 140.550781 304.84375 141.660156 304.84375 143.023438 C 304.84375 144.386719 305.484375 145.492188 306.273438 145.492188 C 307.0625 145.492188 307.703125 144.386719 307.703125 143.023438 C 307.703125 141.660156 307.0625 140.550781 306.273438 140.550781 Z M 322.769531 140.550781 C 321.980469 140.550781 321.339844 141.660156 321.339844 143.023438 C 321.339844 144.386719 321.980469 145.492188 322.769531 145.492188 C 323.5625 145.492188 324.203125 144.386719 324.203125 143.023438 C 324.203125 141.660156 323.5625 140.550781 322.769531 140.550781 Z M 322.621094 141.3125 C 322.257812 141.3125 321.960938 141.605469 321.960938 141.972656 C 321.960938 142.335938 322.257812 142.628906 322.621094 142.628906 C 322.984375 142.628906 323.28125 142.335938 323.28125 141.972656 C 323.28125 141.605469 322.984375 141.3125 322.621094 141.3125 Z M 306.164062 141.3125 C 305.800781 141.3125 305.507812 141.605469 305.507812 141.972656 C 305.507812 142.335938 305.800781 142.628906 306.164062 142.628906 C 306.527344 142.628906 306.824219 142.335938 306.824219 141.972656 C 306.824219 141.605469 306.527344 141.3125 306.164062 141.3125 Z M 306.164062 141.3125 " fill-opacity="1" fill-rule="evenodd"/><path fill="#28444a" d="M 309.371094 142.03125 C 308.984375 143.082031 307.734375 143.980469 306.574219 143.609375 C 306.324219 143.535156 306.1875 143.265625 306.265625 143.015625 C 306.347656 142.773438 306.609375 142.632812 306.859375 142.714844 C 307.550781 142.929688 308.257812 142.332031 308.484375 141.707031 C 308.570312 141.464844 308.839844 141.335938 309.085938 141.421875 C 309.328125 141.515625 309.457031 141.785156 309.371094 142.03125 Z M 309.371094 142.03125 " fill-opacity="1" fill-rule="evenodd"/><path fill="#28444a" d="M 326.230469 142.03125 C 325.847656 143.082031 324.597656 143.980469 323.433594 143.609375 C 323.183594 143.535156 323.046875 143.265625 323.125 143.015625 C 323.207031 142.773438 323.46875 142.632812 323.71875 142.714844 C 324.410156 142.929688 325.117188 142.332031 325.34375 141.707031 C 325.429688 141.464844 325.699219 141.335938 325.945312 141.421875 C 326.191406 141.515625 326.316406 141.785156 326.230469 142.03125 Z M 326.230469 142.03125 " fill-opacity="1" fill-rule="evenodd"/><path fill="#ea9e7f" d="M 300.101562 158.265625 C 303.183594 158.175781 305.664062 155.644531 305.664062 152.542969 C 305.664062 149.382812 303.097656 146.8125 299.9375 146.8125 C 297.636719 146.8125 295.65625 148.167969 294.746094 150.125 C 295.613281 152.015625 297.390625 155.371094 300.101562 158.265625 Z M 329.28125 148 C 328.316406 147.257812 327.105469 146.8125 325.792969 146.8125 C 322.632812 146.8125 320.066406 149.382812 320.066406 152.542969 C 320.066406 155.214844 321.902344 157.460938 324.378906 158.09375 C 326.734375 155.398438 328.316406 151.902344 329.28125 148 Z M 329.28125 148 " fill-opacity="1" fill-rule="evenodd"/><path fill="#28444a" d="M 309.523438 137.625 C 307.269531 137.085938 304.796875 137.394531 303.066406 139.046875 C 302.855469 139.246094 302.523438 139.238281 302.324219 139.027344 C 302.125 138.816406 302.132812 138.484375 302.34375 138.285156 C 304.335938 136.382812 307.171875 135.984375 309.769531 136.605469 C 310.050781 136.671875 310.222656 136.957031 310.15625 137.238281 C 310.089844 137.519531 309.804688 137.695312 309.523438 137.625 Z M 309.523438 137.625 " fill-opacity="1" fill-rule="evenodd"/><path fill="#28444a" d="M 319.300781 136.71875 C 321.832031 135.875 324.691406 136.03125 326.84375 137.753906 C 327.070312 137.933594 327.105469 138.265625 326.925781 138.492188 C 326.742188 138.71875 326.414062 138.753906 326.1875 138.574219 C 324.320312 137.078125 321.828125 136.984375 319.628906 137.714844 C 319.355469 137.808594 319.058594 137.65625 318.96875 137.382812 C 318.875 137.109375 319.023438 136.8125 319.300781 136.71875 Z M 319.300781 136.71875 " fill-opacity="1" fill-rule="evenodd"/><path fill="#ea9e7f" d="M 314.894531 145.421875 C 315.25 146.214844 315.941406 147.445312 316.121094 148.578125 C 316.265625 149.484375 316.101562 150.335938 315.375 150.960938 C 314.972656 151.308594 314.480469 151.503906 313.988281 151.675781 C 313.714844 151.773438 313.414062 151.625 313.316406 151.351562 C 313.222656 151.078125 313.367188 150.78125 313.640625 150.683594 C 314.011719 150.554688 314.386719 150.425781 314.691406 150.164062 C 315.25 149.683594 315.179688 148.964844 314.972656 148.257812 C 314.71875 147.363281 314.214844 146.46875 313.9375 145.855469 C 313.816406 145.589844 313.933594 145.28125 314.199219 145.160156 C 314.464844 145.042969 314.773438 145.160156 314.894531 145.421875 Z M 314.894531 145.421875 " fill-opacity="1" fill-rule="evenodd"/><path fill="#ea9e7f" d="M 315.113281 155.546875 C 315 155.671875 314.835938 155.71875 314.675781 155.757812 C 314.414062 155.816406 314.132812 155.839844 313.882812 155.894531 C 312.105469 156.308594 310.089844 155.457031 309.257812 153.792969 C 309.140625 153.558594 308.859375 153.464844 308.625 153.582031 C 308.390625 153.699219 308.296875 153.980469 308.414062 154.214844 C 309.4375 156.261719 311.910156 157.320312 314.09375 156.816406 C 314.402344 156.746094 314.757812 156.722656 315.070312 156.628906 C 315.355469 156.542969 315.617188 156.402344 315.820312 156.171875 C 315.992188 155.980469 315.972656 155.679688 315.777344 155.507812 C 315.589844 155.332031 315.289062 155.351562 315.113281 155.546875 Z M 315.113281 155.546875 " fill-opacity="1" fill-rule="evenodd"/><path fill="#ea9e7f" d="M 290.242188 142.652344 C 290.242188 142.832031 290.273438 143 290.34375 143.164062 C 290.410156 143.328125 290.507812 143.472656 290.632812 143.601562 C 290.757812 143.726562 290.902344 143.820312 291.066406 143.890625 C 291.230469 143.957031 291.402344 143.992188 291.578125 143.992188 C 291.757812 143.992188 291.925781 143.957031 292.089844 143.890625 C 292.253906 143.820312 292.398438 143.726562 292.523438 143.601562 C 292.648438 143.472656 292.746094 143.328125 292.816406 143.164062 C 292.882812 143 292.917969 142.832031 292.917969 142.652344 C 292.917969 142.476562 292.882812 142.304688 292.816406 142.140625 C 292.746094 141.976562 292.648438 141.832031 292.523438 141.707031 C 292.398438 141.582031 292.253906 141.484375 292.089844 141.417969 C 291.925781 141.347656 291.757812 141.316406 291.578125 141.316406 C 291.402344 141.316406 291.230469 141.347656 291.066406 141.417969 C 290.902344 141.484375 290.757812 141.582031 290.632812 141.707031 C 290.507812 141.832031 290.410156 141.976562 290.34375 142.140625 C 290.273438 142.304688 290.242188 142.476562 290.242188 142.652344 Z M 290.242188 142.652344 " fill-opacity="1" fill-rule="nonzero"/><path fill="#ea9e7f" d="M 313.992188 162.824219 C 310.285156 163.347656 306.152344 162.355469 303.226562 160.097656 C 303.023438 159.941406 302.726562 159.976562 302.566406 160.183594 C 302.410156 160.390625 302.449219 160.6875 302.652344 160.84375 C 305.773438 163.25 310.175781 164.316406 314.121094 163.761719 C 314.378906 163.722656 314.5625 163.484375 314.527344 163.226562 C 314.488281 162.96875 314.25 162.789062 313.992188 162.824219 Z M 313.992188 162.824219 " fill-opacity="1" fill-rule="evenodd"/><path fill="#f2c4b1" d="M 364.304688 225.589844 C 364.304688 225.589844 363.984375 213.636719 352.320312 198.109375 L 345.355469 211.910156 L 351.570312 227.835938 Z M 364.304688 225.589844 " fill-opacity="1" fill-rule="evenodd"/><path fill="#28444a" d="M 271.414062 181.234375 C 273.0625 185.597656 273.421875 199.121094 272.371094 206.316406 C 272.332031 206.574219 272.511719 206.8125 272.769531 206.851562 C 273.027344 206.890625 273.265625 206.710938 273.304688 206.453125 C 274.375 199.125 273.976562 185.347656 272.296875 180.902344 C 272.207031 180.660156 271.933594 180.535156 271.691406 180.628906 C 271.445312 180.71875 271.324219 180.992188 271.414062 181.234375 Z M 271.414062 181.234375 " fill-opacity="1" fill-rule="evenodd"/><path fill="#28444a" d="M 261.195312 213.84375 C 257.078125 212.652344 253.136719 210.78125 249.980469 207.828125 C 249.789062 207.652344 249.492188 207.660156 249.316406 207.851562 C 249.140625 208.042969 249.148438 208.339844 249.339844 208.519531 C 252.601562 211.574219 256.675781 213.515625 260.933594 214.75 C 261.183594 214.820312 261.445312 214.675781 261.519531 214.425781 C 261.589844 214.175781 261.445312 213.914062 261.195312 213.84375 Z M 261.195312 213.84375 " fill-opacity="1" fill-rule="evenodd"/><path fill="#28444a" d="M 337.898438 184.121094 C 337.246094 190.175781 336.207031 196.1875 335.566406 202.246094 C 334.796875 209.496094 334.578125 216.773438 334.738281 224.066406 C 334.746094 224.324219 334.960938 224.53125 335.21875 224.527344 C 335.480469 224.519531 335.6875 224.304688 335.679688 224.042969 C 335.523438 216.792969 335.746094 209.558594 336.503906 202.34375 C 337.144531 196.289062 338.1875 190.273438 338.835938 184.222656 C 338.863281 183.960938 338.679688 183.730469 338.417969 183.703125 C 338.160156 183.675781 337.925781 183.863281 337.898438 184.121094 Z M 337.898438 184.121094 " fill-opacity="1" fill-rule="evenodd"/><path fill="#28444a" d="M 306.195312 123.167969 C 306.175781 124.082031 306.128906 124.996094 306.210938 125.90625 C 306.613281 130.566406 310.328125 133.714844 315.570312 134.308594 C 314.964844 132.761719 314.492188 131.242188 314.527344 129.5625 C 315.410156 131.3125 316.648438 132.988281 318.425781 133.914062 C 319.339844 134.394531 320.363281 134.644531 321.351562 134.9375 C 323.089844 135.457031 325.015625 135.757812 326.792969 135.234375 C 325.992188 134.230469 325.4375 133.042969 325.199219 131.78125 C 325.882812 132.484375 326.589844 133.15625 327.347656 133.773438 C 327.722656 134.082031 328.128906 134.355469 328.570312 134.554688 C 329.8125 135.105469 331.019531 134.847656 331.394531 133.375 C 331.847656 131.609375 331.613281 130.027344 331.265625 128.257812 C 330.566406 124.730469 328.027344 121.042969 325.007812 119.15625 C 317.863281 114.6875 307.902344 113.921875 300.542969 118.363281 C 295.71875 121.277344 292.90625 125.980469 292.40625 131.539062 C 292.230469 133.507812 292.207031 135.550781 293.113281 137.355469 C 293.667969 138.464844 295.082031 138.761719 296.34375 138.882812 C 296.511719 134.0625 297.164062 132.332031 299.832031 128.375 C 301.046875 126.574219 304.125 124 306.195312 123.167969 Z M 306.195312 123.167969 " fill-opacity="1" fill-rule="evenodd"/><path fill="#28444a" d="M 348.988281 178.398438 C 342.796875 176.675781 333.300781 179.367188 327.910156 183.9375 C 320.273438 190.417969 317.894531 200.726562 311.15625 207.957031 C 308.328125 210.992188 305.109375 213.765625 301.617188 216.007812 C 298.375 218.089844 294.875 219.730469 291.511719 221.605469 C 281.6875 227.082031 267.445312 237.304688 271.074219 250.601562 C 271.5625 252.382812 272.304688 254.113281 273.261719 255.691406 C 274.667969 258.023438 276.589844 259.835938 279.03125 261.046875 C 280.90625 261.980469 282.96875 262.765625 285.035156 262.640625 C 328.039062 260 353.203125 219.945312 356.488281 214.761719 C 358.679688 211.308594 360.550781 207.363281 361.25 203.308594 C 362.6875 194.964844 361.40625 181.855469 348.988281 178.398438 Z M 348.988281 178.398438 " fill-opacity="1" fill-rule="evenodd"/><path fill="#f2c4b1" d="M 351.078125 188.96875 C 346.160156 182.253906 336.695312 185.207031 333.144531 187.242188 C 326.390625 191.113281 318.34375 207.621094 334.148438 211.753906 C 344.191406 214.382812 359.933594 201.0625 351.078125 188.96875 Z M 351.078125 188.96875 " fill-opacity="1" fill-rule="evenodd"/><path fill="#28444a" d="M 335.207031 190.726562 C 336.421875 190.625 337.761719 191.066406 338.4375 192.265625 C 338.5625 192.492188 338.851562 192.574219 339.078125 192.449219 C 339.304688 192.320312 339.386719 192.03125 339.257812 191.804688 C 338.390625 190.261719 336.6875 189.652344 335.125 189.789062 C 334.867188 189.808594 334.675781 190.039062 334.695312 190.296875 C 334.71875 190.558594 334.949219 190.75 335.207031 190.726562 Z M 335.207031 190.726562 " fill-opacity="1" fill-rule="evenodd"/><path fill="#28444a" d="M 344.421875 195.300781 C 345.789062 195.425781 347.097656 196.078125 347.722656 196.894531 C 347.882812 197.101562 348.175781 197.140625 348.382812 196.980469 C 348.589844 196.820312 348.628906 196.527344 348.472656 196.320312 C 347.71875 195.335938 346.15625 194.511719 344.507812 194.363281 C 344.25 194.339844 344.019531 194.527344 343.996094 194.789062 C 343.972656 195.046875 344.164062 195.277344 344.421875 195.300781 Z M 344.421875 195.300781 " fill-opacity="1" fill-rule="evenodd"/><path fill="#28444a" d="M 331.820312 193.476562 C 332.484375 195.210938 334.480469 196.152344 336.28125 195.890625 C 336.539062 195.851562 336.71875 195.609375 336.679688 195.351562 C 336.640625 195.097656 336.402344 194.917969 336.144531 194.957031 C 334.761719 195.15625 333.210938 194.472656 332.699219 193.140625 C 332.609375 192.898438 332.335938 192.777344 332.09375 192.867188 C 331.847656 192.960938 331.726562 193.234375 331.820312 193.476562 Z M 331.820312 193.476562 " fill-opacity="1" fill-rule="evenodd"/><path fill="#28444a" d="M 341.960938 198.90625 C 342.71875 200.574219 344.550781 202.152344 346.542969 201.859375 C 346.800781 201.820312 346.976562 201.582031 346.941406 201.324219 C 346.902344 201.066406 346.664062 200.886719 346.40625 200.925781 C 344.824219 201.160156 343.421875 199.839844 342.820312 198.515625 C 342.714844 198.277344 342.433594 198.171875 342.195312 198.28125 C 341.960938 198.386719 341.855469 198.667969 341.960938 198.90625 Z M 341.960938 198.90625 " fill-opacity="1" fill-rule="evenodd"/><path fill="#ea9e7f" d="M 331.910156 203.632812 C 332.804688 204.90625 334.292969 205.6875 335.863281 205.207031 C 336.113281 205.128906 336.25 204.867188 336.175781 204.617188 C 336.097656 204.367188 335.835938 204.230469 335.585938 204.304688 C 334.425781 204.660156 333.34375 204.035156 332.679688 203.089844 C 332.53125 202.875 332.238281 202.824219 332.023438 202.972656 C 331.8125 203.125 331.757812 203.417969 331.910156 203.632812 Z M 331.910156 203.632812 " fill-opacity="1" fill-rule="evenodd"/><path fill="#ea9e7f" d="M 338.710938 211.957031 C 337.691406 211.046875 337.046875 209.71875 337.046875 208.246094 C 337.046875 205.5 339.277344 203.269531 342.023438 203.269531 C 344.769531 203.269531 346.996094 205.5 346.996094 208.246094 C 346.996094 208.28125 346.996094 208.320312 346.996094 208.355469 C 344.488281 210.253906 341.554688 211.550781 338.710938 211.957031 Z M 327.398438 193.460938 C 329.820312 193.796875 331.6875 195.875 331.6875 198.390625 C 331.6875 201.136719 329.457031 203.367188 326.710938 203.367188 C 326.144531 203.367188 325.597656 203.273438 325.089844 203.097656 C 324.65625 199.90625 325.703125 196.417969 327.398438 193.460938 Z M 327.398438 193.460938 " fill-opacity="1" fill-rule="evenodd"/><g clip-path="url(#2f2799fa86)"><path fill="#f2c4b1" d="M 239.832031 225.523438 C 239.679688 219.824219 253.953125 223.6875 253.953125 223.6875 C 253.953125 223.6875 266.871094 235 278.179688 240.265625 C 284.28125 243.109375 291.542969 244.40625 296.945312 248.566406 C 298.371094 249.664062 302.765625 252.96875 301.363281 254.277344 C 300.042969 255.507812 292.539062 247.773438 291.382812 248.824219 C 290.582031 249.554688 302.394531 257.519531 300.414062 259.316406 C 298.644531 260.921875 290.316406 251.261719 289.757812 252.113281 C 289.511719 252.496094 298.925781 260.386719 296.410156 261.964844 C 294.609375 263.097656 288.511719 253.847656 287.816406 254.96875 C 287.5 255.472656 294.335938 261.609375 292.921875 262.898438 C 291.320312 264.363281 287.152344 258.671875 286.292969 258.21875 C 283.046875 256.511719 279.386719 257.609375 274.710938 251.636719 C 265.734375 240.179688 240.152344 237.195312 239.832031 225.523438 " fill-opacity="1" fill-rule="evenodd"/></g><path fill="#e07779" d="M 274.410156 237.628906 L 277.042969 239.039062 C 277.042969 239.039062 275.28125 246.355469 271.738281 249.484375 L 269.277344 247.546875 C 271.996094 244.292969 273.410156 241.140625 274.410156 237.628906 Z M 274.410156 237.628906 " fill-opacity="1" fill-rule="evenodd"/><path fill="#f2c4b1" d="M 363.101562 221.789062 C 360.265625 215.707031 348.703125 226.972656 336.390625 228.96875 C 329.746094 230.046875 322.40625 229.320312 316.074219 231.859375 C 314.40625 232.527344 309.28125 234.511719 310.277344 236.152344 C 311.214844 237.695312 320.535156 232.292969 321.359375 233.617188 C 321.933594 234.535156 308.40625 238.992188 309.820312 241.261719 C 311.085938 243.285156 321.726562 236.25 322.03125 237.222656 C 322.167969 237.660156 310.964844 242.695312 312.953125 244.898438 C 314.382812 246.480469 322.757812 239.230469 323.128906 240.5 C 323.292969 241.066406 315.050781 245.117188 316.058594 246.742188 C 317.203125 248.585938 322.761719 244.242188 323.710938 244.039062 C 327.296875 243.28125 330.519531 245.332031 336.644531 240.851562 C 348.390625 232.265625 369.257812 234.984375 363.101562 221.789062 Z M 363.101562 221.789062 " fill-opacity="1" fill-rule="evenodd"/></svg>