<svg xmlns="http://www.w3.org/2000/svg" xmlns:xlink="http://www.w3.org/1999/xlink" width="1024" zoomAndPan="magnify" viewBox="0 0 768 576" height="768" preserveAspectRatio="xMidYMid meet" version="1.0"><defs><clipPath id="63639a78c7"><path d="M 161.089844 65.089844 L 606.589844 65.089844 L 606.589844 510.589844 L 161.089844 510.589844 Z M 161.089844 65.089844 " clip-rule="nonzero"/></clipPath><clipPath id="70cc575d44"><path d="M 242.050781 205 L 282 205 L 282 248 L 242.050781 248 Z M 242.050781 205 " clip-rule="nonzero"/></clipPath><clipPath id="26d7a83fd6"><path d="M 242.050781 219 L 305 219 L 305 261 L 242.050781 261 Z M 242.050781 219 " clip-rule="nonzero"/></clipPath><clipPath id="a39b9dccf5"><path d="M 486 271 L 526.300781 271 L 526.300781 315 L 486 315 Z M 486 271 " clip-rule="nonzero"/></clipPath><clipPath id="c0dda396f7"><path d="M 463 287 L 526.300781 287 L 526.300781 329 L 463 329 Z M 463 287 " clip-rule="nonzero"/></clipPath></defs><rect x="-76.8" width="921.6" fill="#ffffff" y="-57.6" height="691.2" fill-opacity="1"/><rect x="-76.8" width="921.6" fill="#ffffff" y="-57.6" height="691.2" fill-opacity="1"/><rect x="-76.8" width="921.6" fill="#ff62d8" y="-57.6" height="691.2" fill-opacity="1"/><g clip-path="url(#63639a78c7)"><path fill="#ffffff" d="M 606.589844 287.839844 C 606.589844 291.484375 606.5 295.128906 606.320312 298.769531 C 606.140625 302.410156 605.875 306.042969 605.515625 309.671875 C 605.160156 313.300781 604.714844 316.917969 604.179688 320.523438 C 603.644531 324.128906 603.019531 327.71875 602.308594 331.296875 C 601.597656 334.871094 600.800781 338.425781 599.914062 341.964844 C 599.027344 345.5 598.054688 349.011719 596.996094 352.5 C 595.9375 355.988281 594.796875 359.449219 593.566406 362.882812 C 592.339844 366.3125 591.027344 369.714844 589.632812 373.082031 C 588.238281 376.449219 586.761719 379.78125 585.203125 383.078125 C 583.644531 386.371094 582.003906 389.628906 580.285156 392.84375 C 578.570312 396.058594 576.773438 399.230469 574.898438 402.355469 C 573.023438 405.480469 571.074219 408.5625 569.050781 411.59375 C 567.023438 414.625 564.925781 417.601562 562.753906 420.53125 C 560.582031 423.460938 558.339844 426.332031 556.027344 429.148438 C 553.714844 431.96875 551.335938 434.726562 548.886719 437.429688 C 546.4375 440.128906 543.925781 442.769531 541.347656 445.347656 C 538.769531 447.925781 536.128906 450.4375 533.429688 452.886719 C 530.726562 455.335938 527.96875 457.714844 525.148438 460.027344 C 522.332031 462.339844 519.460938 464.582031 516.53125 466.753906 C 513.601562 468.925781 510.625 471.023438 507.59375 473.050781 C 504.5625 475.074219 501.480469 477.023438 498.355469 478.898438 C 495.230469 480.773438 492.058594 482.570312 488.84375 484.285156 C 485.628906 486.003906 482.371094 487.644531 479.078125 489.203125 C 475.78125 490.761719 472.449219 492.238281 469.082031 493.632812 C 465.714844 495.027344 462.3125 496.339844 458.882812 497.566406 C 455.449219 498.796875 451.988281 499.9375 448.5 500.996094 C 445.011719 502.054688 441.5 503.027344 437.960938 503.914062 C 434.425781 504.800781 430.871094 505.597656 427.296875 506.308594 C 423.71875 507.019531 420.128906 507.644531 416.523438 508.179688 C 412.917969 508.714844 409.300781 509.160156 405.671875 509.515625 C 402.042969 509.875 398.410156 510.140625 394.769531 510.320312 C 391.128906 510.5 387.484375 510.589844 383.839844 510.589844 C 380.195312 510.589844 376.550781 510.5 372.910156 510.320312 C 369.269531 510.140625 365.632812 509.875 362.003906 509.515625 C 358.378906 509.160156 354.761719 508.714844 351.15625 508.179688 C 347.546875 507.644531 343.957031 507.019531 340.382812 506.308594 C 336.808594 505.597656 333.25 504.800781 329.714844 503.914062 C 326.179688 503.027344 322.667969 502.054688 319.179688 500.996094 C 315.691406 499.9375 312.230469 498.796875 308.796875 497.566406 C 305.363281 496.339844 301.964844 495.027344 298.597656 493.632812 C 295.226562 492.238281 291.898438 490.761719 288.601562 489.203125 C 285.304688 487.644531 282.050781 486.003906 278.835938 484.285156 C 275.621094 482.570312 272.449219 480.773438 269.324219 478.898438 C 266.195312 477.023438 263.117188 475.074219 260.085938 473.050781 C 257.054688 471.023438 254.074219 468.925781 251.148438 466.753906 C 248.21875 464.582031 245.347656 462.339844 242.527344 460.027344 C 239.710938 457.714844 236.949219 455.335938 234.25 452.886719 C 231.546875 450.4375 228.910156 447.925781 226.332031 445.347656 C 223.753906 442.769531 221.242188 440.128906 218.792969 437.429688 C 216.34375 434.726562 213.964844 431.96875 211.652344 429.148438 C 209.339844 426.332031 207.097656 423.460938 204.925781 420.53125 C 202.753906 417.601562 200.65625 414.625 198.628906 411.59375 C 196.605469 408.5625 194.652344 405.480469 192.78125 402.355469 C 190.90625 399.230469 189.109375 396.058594 187.390625 392.84375 C 185.671875 389.628906 184.035156 386.371094 182.476562 383.078125 C 180.917969 379.78125 179.441406 376.449219 178.042969 373.082031 C 176.648438 369.714844 175.339844 366.3125 174.109375 362.882812 C 172.882812 359.449219 171.738281 355.988281 170.679688 352.5 C 169.621094 349.011719 168.648438 345.5 167.765625 341.960938 C 166.878906 338.425781 166.082031 334.871094 165.367188 331.296875 C 164.65625 327.71875 164.035156 324.128906 163.5 320.523438 C 162.964844 316.917969 162.519531 313.300781 162.160156 309.671875 C 161.804688 306.042969 161.535156 302.410156 161.355469 298.769531 C 161.179688 295.128906 161.089844 291.484375 161.089844 287.839844 C 161.089844 284.195312 161.179688 280.550781 161.355469 276.910156 C 161.535156 273.269531 161.804688 269.632812 162.160156 266.003906 C 162.519531 262.378906 162.964844 258.761719 163.5 255.15625 C 164.035156 251.546875 164.65625 247.957031 165.367188 244.382812 C 166.082031 240.808594 166.878906 237.25 167.765625 233.714844 C 168.648438 230.179688 169.621094 226.667969 170.679688 223.179688 C 171.738281 219.691406 172.882812 216.230469 174.109375 212.796875 C 175.339844 209.363281 176.648438 205.964844 178.042969 202.597656 C 179.441406 199.226562 180.917969 195.898438 182.476562 192.601562 C 184.035156 189.304688 185.671875 186.050781 187.390625 182.835938 C 189.109375 179.621094 190.90625 176.449219 192.78125 173.324219 C 194.652344 170.195312 196.605469 167.117188 198.628906 164.085938 C 200.65625 161.054688 202.753906 158.074219 204.925781 155.148438 C 207.097656 152.21875 209.339844 149.347656 211.652344 146.527344 C 213.964844 143.710938 216.34375 140.949219 218.792969 138.25 C 221.242188 135.546875 223.753906 132.910156 226.332031 130.332031 C 228.910156 127.753906 231.546875 125.242188 234.25 122.792969 C 236.949219 120.34375 239.710938 117.964844 242.527344 115.652344 C 245.347656 113.339844 248.21875 111.097656 251.148438 108.925781 C 254.074219 106.753906 257.054688 104.65625 260.085938 102.628906 C 263.117188 100.605469 266.195312 98.652344 269.324219 96.78125 C 272.449219 94.90625 275.621094 93.109375 278.835938 91.390625 C 282.050781 89.671875 285.304688 88.035156 288.601562 86.476562 C 291.898438 84.917969 295.226562 83.441406 298.597656 82.042969 C 301.964844 80.648438 305.363281 79.339844 308.796875 78.109375 C 312.230469 76.882812 315.691406 75.738281 319.179688 74.679688 C 322.667969 73.621094 326.179688 72.648438 329.714844 71.765625 C 333.25 70.878906 336.808594 70.082031 340.382812 69.371094 C 343.957031 68.65625 347.546875 68.035156 351.15625 67.5 C 354.761719 66.964844 358.378906 66.519531 362.003906 66.160156 C 365.632812 65.804688 369.269531 65.535156 372.910156 65.355469 C 376.550781 65.179688 380.195312 65.089844 383.839844 65.089844 C 387.484375 65.089844 391.128906 65.179688 394.769531 65.355469 C 398.410156 65.535156 402.042969 65.804688 405.671875 66.160156 C 409.300781 66.519531 412.917969 66.964844 416.523438 67.5 C 420.128906 68.035156 423.71875 68.65625 427.296875 69.371094 C 430.871094 70.082031 434.425781 70.878906 437.960938 71.765625 C 441.5 72.648438 445.011719 73.621094 448.5 74.679688 C 451.988281 75.738281 455.449219 76.882812 458.882812 78.109375 C 462.3125 79.339844 465.714844 80.648438 469.082031 82.042969 C 472.449219 83.441406 475.78125 84.917969 479.078125 86.476562 C 482.371094 88.035156 485.628906 89.671875 488.84375 91.390625 C 492.058594 93.109375 495.230469 94.90625 498.355469 96.78125 C 501.480469 98.652344 504.5625 100.605469 507.59375 102.628906 C 510.625 104.65625 513.601562 106.753906 516.53125 108.925781 C 519.460938 111.097656 522.332031 113.339844 525.148438 115.652344 C 527.96875 117.964844 530.726562 120.34375 533.429688 122.792969 C 536.128906 125.242188 538.769531 127.753906 541.347656 130.332031 C 543.925781 132.910156 546.4375 135.546875 548.886719 138.25 C 551.335938 140.949219 553.714844 143.710938 556.027344 146.527344 C 558.339844 149.347656 560.582031 152.21875 562.753906 155.148438 C 564.925781 158.074219 567.023438 161.054688 569.050781 164.085938 C 571.074219 167.117188 573.023438 170.195312 574.898438 173.324219 C 576.773438 176.449219 578.570312 179.621094 580.285156 182.835938 C 582.003906 186.050781 583.644531 189.304688 585.203125 192.601562 C 586.761719 195.898438 588.238281 199.226562 589.632812 202.597656 C 591.027344 205.964844 592.339844 209.363281 593.566406 212.796875 C 594.796875 216.230469 595.9375 219.691406 596.996094 223.179688 C 598.054688 226.667969 599.027344 230.179688 599.914062 233.714844 C 600.800781 237.25 601.597656 240.808594 602.308594 244.382812 C 603.019531 247.957031 603.644531 251.546875 604.179688 255.15625 C 604.714844 258.761719 605.160156 262.378906 605.515625 266.003906 C 605.875 269.632812 606.140625 273.269531 606.320312 276.910156 C 606.5 280.550781 606.589844 284.195312 606.589844 287.839844 Z M 606.589844 287.839844 " fill-opacity="1" fill-rule="nonzero"/></g><path fill="#f2c4b1" d="M 323.558594 450.886719 C 323.558594 450.886719 324.296875 396.285156 326.523438 377.667969 C 328.75 359.042969 327.039062 337.582031 327.039062 337.582031 L 308.558594 331.171875 C 308.558594 331.171875 309.644531 362.367188 309.804688 369.082031 C 309.882812 372.203125 308.976562 389.03125 309.621094 406.988281 C 310.136719 421.273438 312.289062 435.636719 311.902344 448.941406 C 311.902344 448.941406 315.363281 450.609375 323.558594 450.886719 Z M 323.558594 450.886719 " fill-opacity="1" fill-rule="evenodd"/><path fill="#f2c4b1" d="M 282.503906 450.886719 C 282.503906 450.886719 281.765625 396.285156 279.539062 377.667969 C 277.3125 359.042969 279.023438 337.582031 279.023438 337.582031 L 298.558594 334.257812 C 298.558594 334.257812 296.417969 362.367188 296.257812 369.082031 C 296.179688 372.203125 297.085938 389.03125 296.441406 406.988281 C 295.925781 421.273438 293.773438 435.636719 294.160156 448.941406 C 294.160156 448.941406 290.699219 450.609375 282.503906 450.886719 Z M 282.503906 450.886719 " fill-opacity="1" fill-rule="evenodd"/><path fill="#28444a" d="M 323.851562 446.285156 C 323.851562 446.285156 327.5625 449.703125 329.828125 451.671875 C 337.863281 458.644531 345.238281 463.820312 344.808594 465.433594 C 344.183594 467.78125 310.476562 463.742188 308.808594 460.613281 C 307.558594 458.261719 311.4375 446.128906 311.4375 446.128906 C 316.035156 449.523438 320.390625 449.640625 323.851562 446.285156 Z M 323.851562 446.285156 " fill-opacity="1" fill-rule="evenodd"/><path fill="#28444a" d="M 282.207031 446.285156 C 282.207031 446.285156 278.5 449.703125 276.234375 451.671875 C 268.199219 458.644531 260.824219 463.820312 261.253906 465.433594 C 261.878906 467.78125 295.585938 463.742188 297.253906 460.613281 C 298.503906 458.261719 294.625 446.128906 294.625 446.128906 C 290.027344 449.523438 285.671875 449.640625 282.207031 446.285156 Z M 282.207031 446.285156 " fill-opacity="1" fill-rule="evenodd"/><path fill="#28444a" d="M 297.230469 116.46875 C 297.230469 116.46875 287.9375 119.214844 289.890625 135.296875 C 292.125 153.6875 309.332031 167.039062 324.429688 157.964844 C 330.101562 154.558594 336.746094 147.015625 337.957031 138.386719 C 339.890625 124.542969 334.996094 114.007812 326.820312 109.3125 C 318.644531 104.617188 301.707031 104.382812 297.230469 116.46875 Z M 297.230469 116.46875 " fill-opacity="1" fill-rule="evenodd"/><path fill="#28444a" d="M 304.164062 113.269531 C 301.136719 108.234375 294.597656 106.03125 289.3125 109.351562 C 285.917969 111.488281 283.628906 115.375 282.367188 119.085938 C 280.730469 123.882812 281.007812 129.25 281.660156 134.183594 C 282.742188 142.371094 284.746094 150.730469 284.332031 159.03125 C 284 165.660156 282.175781 173.140625 275.085938 175.402344 C 276.113281 177.332031 277.75 178.316406 279.796875 179.078125 C 286.855469 181.710938 292.714844 177.617188 295.101562 170.941406 C 297.777344 163.453125 296.789062 155.027344 295.296875 147.421875 C 294.089844 141.28125 292.394531 134.96875 293.675781 128.691406 C 294.878906 122.78125 300.121094 120.671875 303.199219 116.050781 " fill-opacity="1" fill-rule="evenodd"/><path fill="#69bac9" d="M 334.539062 247.867188 C 334.539062 247.867188 336.707031 248.144531 338.664062 262.714844 C 340.617188 277.28125 328.15625 440.796875 328.15625 440.796875 C 327.734375 443.097656 305.753906 442.582031 305.753906 442.582031 C 305.753906 442.582031 307.105469 317.054688 305.101562 316.878906 C 302.996094 316.695312 298.558594 442.609375 298.558594 442.609375 C 298.558594 442.609375 279.269531 442.800781 278.394531 441.445312 C 278.394531 441.445312 273.402344 256.230469 281.355469 247.808594 Z M 334.539062 247.867188 " fill-opacity="1" fill-rule="evenodd"/><path fill="#28444a" d="M 338.015625 258.414062 C 338.230469 259.6875 338.445312 261.113281 338.664062 262.714844 C 339.085938 265.882812 338.832031 276.097656 338.167969 290.140625 C 325.601562 294.378906 302.894531 300.53125 277.074219 300.496094 C 277.316406 285.386719 277.78125 272.078125 278.566406 262.578125 C 294.753906 257.96875 321.960938 252.027344 338.015625 258.414062 Z M 338.015625 258.414062 " fill-opacity="1" fill-rule="evenodd"/><g clip-path="url(#70cc575d44)"><path fill="#f2c4b1" d="M 261.871094 212.351562 L 256.589844 221.25 C 256.589844 221.25 267.164062 230.5 276.421875 234.804688 C 285.679688 239.113281 280.925781 253.464844 273.582031 244.101562 C 266.234375 234.734375 242.476562 231.160156 242.214844 221.617188 C 242.089844 216.957031 251.195312 205.839844 251.195312 205.839844 Z M 261.871094 212.351562 " fill-opacity="1" fill-rule="evenodd"/></g><path fill="#f2c4b1" d="M 359.933594 204.339844 L 364.835938 213.148438 C 364.835938 213.148438 369.5 200.773438 377.886719 186.28125 C 377.886719 186.28125 385.777344 184.027344 384.511719 188.480469 C 383.242188 192.929688 379.644531 229.824219 364.359375 229.542969 C 353.925781 229.347656 342.414062 205.617188 342.414062 205.617188 Z M 359.933594 204.339844 " fill-opacity="1" fill-rule="evenodd"/><path fill="#f2c4b1" d="M 377.640625 188.234375 C 375.910156 184.175781 376.371094 179.960938 376.417969 175.699219 C 376.4375 173.324219 376.234375 170.917969 375.90625 168.566406 C 375.847656 168.148438 375.78125 167.734375 375.726562 167.316406 C 375.6875 167.039062 375.667969 166.757812 375.644531 166.476562 C 375.621094 166.210938 375.605469 165.941406 375.589844 165.671875 C 375.542969 164.929688 375.386719 162.394531 376.894531 163.015625 C 377.71875 163.355469 378.132812 164.339844 378.398438 165.121094 C 379.039062 167.011719 379.242188 169.039062 379.523438 171.003906 C 379.625 171.726562 379.691406 172.847656 380.257812 173.367188 C 382.554688 172.097656 394.527344 160.742188 396.734375 162.070312 C 399.96875 164.015625 387.734375 170.894531 388.074219 172.5 C 388.390625 174.003906 403.585938 163.738281 404.800781 167.796875 C 405.460938 170 391.96875 174.082031 390.210938 176.105469 C 389.058594 177.429688 406.652344 172.933594 406.296875 175.933594 C 406.109375 177.523438 391.890625 178.8125 391.265625 180.070312 C 391.015625 180.574219 403.511719 180.214844 402.808594 182.550781 C 402.488281 183.609375 399.777344 183.515625 398.746094 183.484375 C 396.902344 183.433594 394.714844 183.265625 392.980469 184.011719 C 391.464844 184.664062 390.230469 185.984375 388.9375 186.972656 C 387.152344 188.34375 385.414062 189.449219 383.355469 190.375 C 383.121094 191.378906 382.960938 192.382812 382.769531 193.394531 C 382.65625 194.007812 382.5 194.6875 381.910156 195.007812 C 381.164062 195.410156 380.101562 195.027344 379.363281 194.789062 C 377.300781 194.121094 375.597656 192.816406 376.140625 190.492188 C 376.265625 189.957031 377.335938 188.6875 377.640625 188.234375 Z M 377.640625 188.234375 " fill-opacity="1" fill-rule="evenodd"/><path fill="#f2c4b1" d="M 318.441406 157.945312 C 318.441406 157.945312 316.886719 169.925781 323.292969 170.15625 L 315.351562 198.261719 L 299.722656 169.886719 C 299.722656 169.886719 305.117188 170.9375 305.273438 165.59375 C 305.429688 160.25 305.296875 153.921875 305.296875 153.921875 Z M 318.441406 157.945312 " fill-opacity="1" fill-rule="evenodd"/><path fill="#f2c4b1" d="M 333.246094 123.410156 C 333.246094 123.410156 335.351562 131.847656 333.449219 141.933594 C 331.550781 152.023438 326.003906 160.039062 314.40625 159.84375 C 302.808594 159.652344 297.300781 144.652344 297.300781 144.652344 C 297.300781 144.652344 291.871094 146.714844 290.527344 138.894531 C 289.179688 131.074219 294.960938 131.03125 297.183594 133.785156 C 297.183594 133.785156 297.332031 118.550781 307.753906 118.730469 C 318.175781 118.910156 327.753906 114.214844 333.246094 123.410156 Z M 333.246094 123.410156 " fill-opacity="1" fill-rule="evenodd"/><path fill="#28444a" d="M 309.648438 136.464844 C 308.847656 136.464844 308.195312 137.585938 308.195312 138.96875 C 308.195312 140.351562 308.847656 141.472656 309.648438 141.472656 C 310.449219 141.472656 311.097656 140.351562 311.097656 138.96875 C 311.097656 137.585938 310.449219 136.464844 309.648438 136.464844 Z M 326.390625 136.464844 C 325.589844 136.464844 324.9375 137.585938 324.9375 138.96875 C 324.9375 140.351562 325.589844 141.472656 326.390625 141.472656 C 327.191406 141.472656 327.839844 140.351562 327.839844 138.96875 C 327.839844 137.585938 327.191406 136.464844 326.390625 136.464844 Z M 326.238281 137.234375 C 325.867188 137.234375 325.570312 137.535156 325.570312 137.902344 C 325.570312 138.269531 325.867188 138.570312 326.238281 138.570312 C 326.605469 138.570312 326.90625 138.269531 326.90625 137.902344 C 326.90625 137.535156 326.605469 137.234375 326.238281 137.234375 Z M 309.535156 137.234375 C 309.167969 137.234375 308.867188 137.535156 308.867188 137.902344 C 308.867188 138.269531 309.167969 138.570312 309.535156 138.570312 C 309.902344 138.570312 310.203125 138.269531 310.203125 137.902344 C 310.203125 137.535156 309.902344 137.234375 309.535156 137.234375 Z M 309.535156 137.234375 " fill-opacity="1" fill-rule="evenodd"/><path fill="#28444a" d="M 312.785156 137.964844 C 312.394531 139.027344 311.128906 139.941406 309.945312 139.566406 C 309.695312 139.488281 309.558594 139.214844 309.632812 138.964844 C 309.71875 138.714844 309.984375 138.574219 310.238281 138.65625 C 310.9375 138.875 311.65625 138.269531 311.886719 137.636719 C 311.972656 137.390625 312.25 137.261719 312.496094 137.347656 C 312.746094 137.441406 312.875 137.714844 312.785156 137.964844 Z M 312.785156 137.964844 " fill-opacity="1" fill-rule="evenodd"/><path fill="#28444a" d="M 329.898438 137.964844 C 329.507812 139.027344 328.238281 139.941406 327.058594 139.566406 C 326.804688 139.488281 326.667969 139.214844 326.746094 138.964844 C 326.828125 138.714844 327.097656 138.574219 327.347656 138.65625 C 328.050781 138.875 328.769531 138.269531 328.996094 137.636719 C 329.085938 137.390625 329.359375 137.261719 329.609375 137.347656 C 329.855469 137.441406 329.984375 137.714844 329.898438 137.964844 Z M 329.898438 137.964844 " fill-opacity="1" fill-rule="evenodd"/><path fill="#ea9e7f" d="M 303.378906 154.421875 C 306.507812 154.328125 309.023438 151.765625 309.023438 148.621094 C 309.023438 145.414062 306.417969 142.8125 303.210938 142.8125 C 300.878906 142.8125 298.867188 144.183594 297.945312 146.167969 C 298.824219 148.085938 300.625 151.488281 303.378906 154.421875 Z M 332.992188 144.015625 C 332.015625 143.261719 330.785156 142.8125 329.453125 142.8125 C 326.246094 142.8125 323.640625 145.414062 323.640625 148.621094 C 323.640625 151.328125 325.507812 153.605469 328.019531 154.246094 C 330.40625 151.515625 332.015625 147.972656 332.992188 144.015625 Z M 332.992188 144.015625 " fill-opacity="1" fill-rule="evenodd"/><path fill="#28444a" d="M 312.957031 133.5 C 310.671875 132.953125 308.160156 133.265625 306.402344 134.9375 C 306.191406 135.140625 305.851562 135.132812 305.648438 134.917969 C 305.449219 134.707031 305.457031 134.371094 305.667969 134.167969 C 307.691406 132.242188 310.570312 131.835938 313.207031 132.464844 C 313.492188 132.53125 313.667969 132.820312 313.597656 133.105469 C 313.53125 133.390625 313.242188 133.566406 312.957031 133.5 Z M 312.957031 133.5 " fill-opacity="1" fill-rule="evenodd"/><path fill="#28444a" d="M 322.863281 132.578125 C 325.433594 131.722656 328.335938 131.878906 330.519531 133.625 C 330.75 133.808594 330.785156 134.144531 330.601562 134.375 C 330.417969 134.601562 330.082031 134.640625 329.851562 134.457031 C 327.957031 132.941406 325.429688 132.84375 323.199219 133.585938 C 322.921875 133.679688 322.617188 133.527344 322.527344 133.25 C 322.433594 132.972656 322.585938 132.671875 322.863281 132.578125 Z M 322.863281 132.578125 " fill-opacity="1" fill-rule="evenodd"/><path fill="#ea9e7f" d="M 318.390625 141.402344 C 318.753906 142.207031 319.453125 143.453125 319.636719 144.597656 C 319.785156 145.519531 319.617188 146.382812 318.878906 147.015625 C 318.46875 147.367188 317.972656 147.566406 317.472656 147.742188 C 317.191406 147.835938 316.890625 147.691406 316.792969 147.414062 C 316.695312 147.136719 316.84375 146.832031 317.121094 146.734375 C 317.496094 146.605469 317.878906 146.472656 318.1875 146.207031 C 318.753906 145.722656 318.679688 144.992188 318.472656 144.273438 C 318.210938 143.371094 317.699219 142.464844 317.417969 141.839844 C 317.296875 141.574219 317.417969 141.257812 317.6875 141.136719 C 317.953125 141.015625 318.269531 141.132812 318.390625 141.402344 Z M 318.390625 141.402344 " fill-opacity="1" fill-rule="evenodd"/><path fill="#28444a" d="M 311.589844 149.621094 C 311.34375 150.773438 311.5625 151.855469 312.097656 152.746094 C 315.53125 150.871094 318.359375 152.203125 319.933594 153.417969 C 320.484375 152.710938 320.910156 151.757812 321.183594 150.539062 Z M 311.589844 149.621094 " fill-opacity="1" fill-rule="evenodd"/><path fill="#e07779" d="M 319.878906 153.421875 C 318.304688 152.210938 315.476562 150.875 312.046875 152.75 L 312.289062 153.171875 C 314.300781 155.484375 317.066406 155.976562 319.46875 153.953125 Z M 319.878906 153.421875 " fill-opacity="1" fill-rule="evenodd"/><path fill="#ea9e7f" d="M 293.375 138.59375 C 293.375 138.773438 293.410156 138.949219 293.476562 139.113281 C 293.546875 139.28125 293.644531 139.425781 293.773438 139.554688 C 293.898438 139.679688 294.046875 139.78125 294.210938 139.847656 C 294.378906 139.917969 294.550781 139.953125 294.730469 139.953125 C 294.914062 139.953125 295.085938 139.917969 295.253906 139.847656 C 295.417969 139.78125 295.566406 139.679688 295.691406 139.554688 C 295.820312 139.425781 295.917969 139.28125 295.988281 139.113281 C 296.054688 138.949219 296.089844 138.773438 296.089844 138.59375 C 296.089844 138.414062 296.054688 138.242188 295.988281 138.074219 C 295.917969 137.910156 295.820312 137.761719 295.691406 137.636719 C 295.566406 137.507812 295.417969 137.410156 295.253906 137.339844 C 295.085938 137.273438 294.914062 137.238281 294.730469 137.238281 C 294.550781 137.238281 294.378906 137.273438 294.210938 137.339844 C 294.046875 137.410156 293.898438 137.507812 293.773438 137.636719 C 293.644531 137.761719 293.546875 137.910156 293.476562 138.074219 C 293.410156 138.242188 293.375 138.414062 293.375 138.59375 Z M 293.375 138.59375 " fill-opacity="1" fill-rule="nonzero"/><path fill="#ea9e7f" d="M 317.476562 159.042969 C 313.714844 159.570312 309.519531 158.566406 306.550781 156.277344 C 306.34375 156.117188 306.042969 156.15625 305.882812 156.363281 C 305.722656 156.574219 305.761719 156.875 305.96875 157.035156 C 309.132812 159.476562 313.605469 160.554688 317.609375 159.988281 C 317.871094 159.953125 318.054688 159.710938 318.019531 159.449219 C 317.980469 159.1875 317.738281 159.007812 317.476562 159.042969 Z M 317.476562 159.042969 " fill-opacity="1" fill-rule="evenodd"/><path fill="#28444a" d="M 304.269531 121.847656 C 304.269531 121.847656 306.550781 123.050781 307.980469 123.671875 C 309.144531 124.175781 312.546875 116.828125 320.339844 118.53125 C 333.128906 121.328125 333.296875 138.730469 332.050781 149.777344 C 331.449219 155.117188 334.789062 141.179688 334.789062 141.179688 C 334.789062 141.179688 337.457031 128.507812 335.15625 123.507812 C 332.855469 118.503906 326.171875 107.007812 313.832031 107.8125 C 301.492188 108.613281 298.09375 114.058594 297.175781 116.476562 L 300.441406 119.890625 Z M 304.269531 121.847656 " fill-opacity="1" fill-rule="evenodd"/><path fill="#69bac9" d="M 313.730469 187.890625 L 321.363281 168.851562 C 321.363281 168.851562 336.632812 169.832031 342.902344 173.113281 C 347.648438 175.59375 363.058594 205.28125 363.058594 205.28125 C 363.058594 205.28125 356.292969 215.796875 346.152344 216.859375 L 339.132812 209.273438 C 339.542969 234.238281 338.179688 247.75 341.363281 287.136719 C 332.054688 289.835938 323.878906 292.265625 311.960938 290.273438 L 308.265625 269.199219 L 303.757812 289.941406 C 291.359375 290.367188 284.746094 291.714844 273.800781 287.765625 C 273.800781 287.765625 275.371094 233.941406 275.535156 232.117188 C 276 226.976562 275.324219 204.273438 275.324219 204.273438 L 267.234375 217.597656 C 267.234375 217.597656 254.6875 213.683594 248.449219 206.089844 C 248.449219 206.089844 269.046875 172.554688 276.609375 169.90625 C 282.65625 167.792969 298.941406 168.46875 302.707031 168.652344 Z M 313.730469 187.890625 " fill-opacity="1" fill-rule="evenodd"/><path fill="#28444a" d="M 334.371094 257.132812 C 328.277344 257.546875 322.273438 258.257812 316.152344 258.394531 C 315.890625 258.398438 315.679688 258.617188 315.683594 258.882812 C 315.6875 259.144531 315.910156 259.355469 316.175781 259.347656 C 322.308594 259.214844 328.328125 258.5 334.4375 258.089844 C 334.703125 258.070312 334.902344 257.84375 334.882812 257.578125 C 334.863281 257.316406 334.636719 257.117188 334.371094 257.132812 Z M 334.371094 257.132812 " fill-opacity="1" fill-rule="evenodd"/><path fill="#28444a" d="M 359.566406 202.664062 C 356.007812 207.453125 351.746094 211.65625 345.648438 212.773438 C 345.394531 212.820312 345.21875 213.070312 345.269531 213.328125 C 345.316406 213.589844 345.5625 213.761719 345.824219 213.710938 C 352.167969 212.550781 356.628906 208.21875 360.335938 203.234375 C 360.492188 203.023438 360.445312 202.722656 360.234375 202.566406 C 360.023438 202.410156 359.726562 202.453125 359.566406 202.664062 Z M 359.566406 202.664062 " fill-opacity="1" fill-rule="evenodd"/><path fill="#28444a" d="M 263.894531 210.757812 C 259.714844 209.550781 255.710938 207.65625 252.511719 204.660156 C 252.316406 204.480469 252.015625 204.492188 251.835938 204.683594 C 251.65625 204.878906 251.664062 205.179688 251.859375 205.359375 C 255.171875 208.457031 259.304688 210.425781 263.628906 211.675781 C 263.878906 211.75 264.148438 211.605469 264.21875 211.351562 C 264.292969 211.097656 264.148438 210.832031 263.894531 210.757812 Z M 263.894531 210.757812 " fill-opacity="1" fill-rule="evenodd"/><path fill="#28444a" d="M 313.851562 193.835938 L 298.007812 168.476562 C 300.101562 168.535156 301.78125 168.609375 302.703125 168.652344 L 313.726562 187.890625 L 321.363281 168.851562 C 321.363281 168.851562 322.679688 168.9375 324.710938 169.140625 Z M 313.851562 193.835938 " fill-opacity="1" fill-rule="evenodd"/><path fill="#28444a" d="M 341.742188 180.628906 C 341.078125 186.765625 340.023438 192.863281 339.375 199 C 338.59375 206.351562 338.367188 213.730469 338.535156 221.121094 C 338.539062 221.382812 338.757812 221.59375 339.019531 221.585938 C 339.289062 221.582031 339.496094 221.363281 339.488281 221.097656 C 339.328125 213.75 339.554688 206.414062 340.324219 199.101562 C 340.972656 192.964844 342.035156 186.867188 342.691406 180.730469 C 342.71875 180.46875 342.53125 180.234375 342.269531 180.203125 C 342.007812 180.175781 341.769531 180.367188 341.742188 180.628906 Z M 341.742188 180.628906 " fill-opacity="1" fill-rule="evenodd"/><path fill="#28444a" d="M 307.074219 123.914062 L 297.445312 116.226562 C 297.445312 116.226562 292.945312 118.320312 291.667969 123.171875 C 290.390625 128.027344 292.714844 131.5 293.515625 132.175781 C 293.515625 132.175781 296.789062 131.679688 299.410156 136.582031 C 303.378906 138.164062 301.058594 125.257812 307.074219 123.914062 Z M 307.074219 123.914062 " fill-opacity="1" fill-rule="evenodd"/><path fill="#28444a" d="M 313.351562 198.429688 L 294.875 270.5625 C 294.875 270.5625 262.6875 265.429688 248.730469 258.683594 L 267.839844 186.921875 Z M 313.351562 198.429688 " fill-opacity="1" fill-rule="evenodd"/><path fill="#f2c4b1" d="M 299.414062 205.234375 L 276.179688 199.554688 L 274.992188 204.421875 L 298.222656 210.101562 Z M 299.414062 205.234375 " fill-opacity="1" fill-rule="evenodd"/><g clip-path="url(#26d7a83fd6)"><path fill="#f2c4b1" d="M 242.210938 222.601562 C 242.054688 216.820312 256.542969 220.734375 256.542969 220.734375 C 256.542969 220.734375 269.652344 232.203125 281.128906 237.542969 C 287.324219 240.425781 294.691406 241.742188 300.175781 245.957031 C 301.621094 247.070312 306.085938 250.417969 304.660156 251.746094 C 303.316406 252.992188 295.703125 245.152344 294.53125 246.21875 C 293.714844 246.957031 305.703125 255.03125 303.695312 256.851562 C 301.902344 258.480469 293.449219 248.6875 292.882812 249.554688 C 292.628906 249.941406 302.183594 257.9375 299.632812 259.539062 C 297.804688 260.6875 291.617188 251.3125 290.910156 252.445312 C 290.589844 252.957031 297.527344 259.179688 296.09375 260.484375 C 294.464844 261.96875 290.238281 256.199219 289.363281 255.742188 C 286.070312 254.011719 282.355469 255.125 277.609375 249.070312 C 268.5 237.457031 242.535156 234.429688 242.210938 222.601562 " fill-opacity="1" fill-rule="evenodd"/></g><path fill="#69bac9" d="M 502.699219 363.28125 C 502.699219 361.664062 502.054688 360.109375 500.910156 358.96875 C 499.761719 357.824219 498.210938 357.183594 496.59375 357.183594 C 496.589844 357.183594 496.589844 357.183594 496.589844 357.183594 C 494.972656 357.183594 493.417969 357.824219 492.269531 358.96875 C 491.125 360.109375 490.484375 361.664062 490.484375 363.28125 C 490.484375 381.777344 490.484375 437.070312 490.484375 455.5625 C 490.484375 457.183594 491.125 458.734375 492.269531 459.878906 C 493.417969 461.023438 494.972656 461.667969 496.589844 461.667969 C 496.589844 461.667969 496.589844 461.667969 496.59375 461.667969 C 498.210938 461.667969 499.761719 461.023438 500.910156 459.878906 C 502.054688 458.734375 502.699219 457.183594 502.699219 455.5625 C 502.699219 437.070312 502.699219 381.777344 502.699219 363.28125 Z M 502.699219 363.28125 " fill-opacity="1" fill-rule="evenodd"/><path fill="#69bac9" d="M 458.957031 363.28125 C 458.957031 361.664062 458.3125 360.109375 457.167969 358.96875 C 456.019531 357.824219 454.46875 357.183594 452.851562 357.183594 C 452.847656 357.183594 452.847656 357.183594 452.847656 357.183594 C 451.230469 357.183594 449.675781 357.824219 448.527344 358.96875 C 447.382812 360.109375 446.742188 361.664062 446.742188 363.28125 C 446.742188 381.777344 446.742188 437.070312 446.742188 455.5625 C 446.742188 457.183594 447.382812 458.734375 448.527344 459.878906 C 449.675781 461.023438 451.230469 461.667969 452.847656 461.667969 C 452.847656 461.667969 452.847656 461.667969 452.851562 461.667969 C 454.46875 461.667969 456.019531 461.023438 457.167969 459.878906 C 458.3125 458.734375 458.957031 457.183594 458.957031 455.5625 C 458.957031 437.070312 458.957031 381.777344 458.957031 363.28125 Z M 458.957031 363.28125 " fill-opacity="1" fill-rule="evenodd"/><path fill="#28444a" d="M 514.8125 357.179688 C 514.8125 353.601562 513.390625 350.167969 510.851562 347.632812 C 508.324219 345.101562 504.886719 343.679688 501.304688 343.679688 L 442.648438 343.679688 C 439.066406 343.679688 435.628906 345.101562 433.097656 347.632812 C 430.5625 350.167969 429.140625 353.601562 429.140625 357.179688 C 429.140625 360.761719 430.5625 364.195312 433.097656 366.726562 C 435.628906 369.257812 439.066406 370.679688 442.648438 370.679688 L 501.304688 370.679688 C 504.886719 370.679688 508.324219 369.257812 510.851562 366.726562 C 513.390625 364.195312 514.8125 360.761719 514.8125 357.179688 Z M 514.8125 357.179688 " fill-opacity="1" fill-rule="evenodd"/><path fill="#f2c4b1" d="M 444.90625 348.960938 C 447.167969 341.65625 427.492188 370.910156 427.5 377.273438 C 427.535156 400.363281 437.820312 422.03125 441.144531 447.164062 C 441.144531 447.164062 452.386719 444.414062 453.230469 441.414062 C 448.984375 401.683594 450.238281 390.839844 445.613281 379.339844 C 445.429688 378.890625 463.777344 357.835938 463.585938 357.386719 Z M 444.90625 348.960938 " fill-opacity="1" fill-rule="evenodd"/><path fill="#f2c4b1" d="M 424.339844 346.867188 C 427.71875 340.007812 403.695312 365.816406 402.703125 372.101562 C 399.113281 394.910156 405.875 417.921875 405.214844 443.265625 C 405.214844 443.265625 416.746094 442.3125 418.046875 439.484375 C 420.09375 399.578125 423.03125 389.0625 420.269531 376.980469 C 420.160156 376.507812 441.582031 358.59375 441.464844 358.117188 Z M 424.339844 346.867188 " fill-opacity="1" fill-rule="evenodd"/><path fill="#28444a" d="M 404.648438 439.226562 C 404.648438 439.226562 401.214844 443.652344 399.089844 446.222656 C 391.570312 455.328125 384.441406 462.351562 385.207031 464.039062 C 386.320312 466.496094 422.5 455.898438 423.75 452.167969 C 424.691406 449.363281 418.214844 436.785156 418.214844 436.785156 C 413.804688 441.34375 409.058594 442.269531 404.648438 439.226562 Z M 404.648438 439.226562 " fill-opacity="1" fill-rule="evenodd"/><path fill="#28444a" d="M 440.007812 440.53125 C 440.007812 440.53125 437.71875 445.640625 436.261719 448.640625 C 431.109375 459.265625 425.839844 467.769531 426.984375 469.230469 C 428.644531 471.355469 461.300781 452.515625 461.632812 448.597656 C 461.882812 445.648438 452.617188 434.957031 452.617188 434.957031 C 449.40625 440.429688 445.011719 442.449219 440.007812 440.53125 Z M 440.007812 440.53125 " fill-opacity="1" fill-rule="evenodd"/><path fill="#28444a" d="M 483.710938 180.515625 C 483.710938 180.515625 493.003906 183.257812 491.050781 199.34375 C 488.820312 217.734375 471.613281 231.085938 456.511719 222.011719 C 450.84375 218.605469 445.488281 232.464844 444.171875 207.261719 C 442.96875 184.167969 445.945312 178.054688 454.125 173.359375 C 462.300781 168.660156 479.238281 168.425781 483.710938 180.515625 Z M 483.710938 180.515625 " fill-opacity="1" fill-rule="evenodd"/><path fill="#28444a" d="M 473.847656 171.867188 C 476.054688 172.269531 478.191406 172.976562 480.136719 174.089844 C 484.074219 176.332031 487.839844 179.800781 490.042969 183.78125 C 491.847656 187.039062 492.675781 190.617188 493.394531 194.230469 C 494.617188 200.371094 495.085938 206.566406 494.59375 212.820312 C 494.121094 218.890625 493.875 225.714844 489.585938 230.492188 C 488.09375 232.152344 485.148438 231.132812 482.933594 230.777344 C 482.839844 228.832031 482.476562 226.957031 481.535156 225.222656 C 481.414062 227.113281 481.304688 229.164062 479.941406 230.613281 C 477.796875 232.902344 473.949219 231.492188 470.847656 231.71875 C 467.039062 232 463.121094 232.242188 459.300781 232.058594 C 456.949219 231.949219 453.8125 232.0625 451.613281 231.128906 C 451.632812 229.441406 451.90625 227.652344 451.492188 226 C 450.765625 227.558594 450.035156 229.339844 450.0625 231.105469 C 449.167969 231.210938 448.292969 231.175781 447.410156 230.984375 C 446.078125 227.285156 445.878906 223.546875 445.339844 219.695312 C 443.84375 208.980469 443.808594 198.347656 447.640625 188.089844 C 449.332031 183.570312 451.835938 179.054688 455.746094 176.066406 C 458 174.34375 460.792969 173.265625 463.496094 172.472656 C 466.089844 171.710938 468.523438 171.585938 471.207031 171.898438 " fill-opacity="1" fill-rule="evenodd"/><g clip-path="url(#a39b9dccf5)"><path fill="#f2c4b1" d="M 506.480469 279.914062 L 511.761719 288.808594 C 511.761719 288.808594 501.1875 298.058594 491.929688 302.363281 C 482.671875 306.671875 487.425781 321.023438 494.769531 311.660156 C 502.117188 302.292969 525.875 298.71875 526.136719 289.175781 C 526.261719 284.515625 519.015625 271.375 519.015625 271.375 Z M 506.480469 279.914062 " fill-opacity="1" fill-rule="evenodd"/></g><path fill="#f2c4b1" d="M 432.105469 267.648438 L 432.527344 338.042969 L 444.953125 321.003906 L 444.953125 262.441406 Z M 432.105469 267.648438 " fill-opacity="1" fill-rule="evenodd"/><path fill="#f2c4b1" d="M 462.503906 221.992188 C 462.503906 221.992188 464.054688 233.972656 457.648438 234.203125 L 465.59375 262.308594 L 481.222656 233.9375 C 481.222656 233.9375 475.824219 234.984375 475.671875 229.640625 C 475.515625 224.296875 475.644531 217.96875 475.644531 217.96875 Z M 462.503906 221.992188 " fill-opacity="1" fill-rule="evenodd"/><path fill="#e07779" d="M 479.722656 233.582031 C 476.992188 241.011719 464.503906 251.097656 458.628906 233.339844 C 458.628906 233.339844 442.636719 232.34375 437.988281 237.191406 C 433.339844 242.035156 430.113281 274.054688 430.113281 274.054688 L 442.894531 275.265625 L 443.816406 282.46875 C 430.238281 290.9375 423.105469 312.332031 430.5625 332.261719 C 421.820312 338.363281 401.640625 364.167969 401.640625 364.167969 C 401.640625 364.167969 440.796875 372.425781 461.628906 389.832031 C 463.835938 391.675781 514.535156 351.589844 504.601562 323.621094 C 491.949219 288.007812 497.496094 269.449219 497.496094 269.449219 L 503.695312 282.28125 C 503.695312 282.28125 507.824219 281.421875 512.1875 279.667969 C 516.0625 278.113281 520.121094 275.847656 521.628906 272.851562 C 521.628906 272.851562 508.949219 240.421875 500.015625 237.734375 C 491.074219 235.046875 479.722656 233.582031 479.722656 233.582031 Z M 479.722656 233.582031 " fill-opacity="1" fill-rule="evenodd"/><path fill="#28444a" d="M 444.503906 241.605469 C 440.726562 251.730469 438.902344 263.703125 442.320312 274.203125 C 442.40625 274.457031 442.675781 274.59375 442.925781 274.511719 C 443.175781 274.429688 443.3125 274.160156 443.230469 273.910156 C 439.878906 263.609375 441.699219 251.871094 445.398438 241.941406 C 445.492188 241.691406 445.363281 241.417969 445.121094 241.324219 C 444.871094 241.234375 444.597656 241.359375 444.503906 241.605469 Z M 444.503906 241.605469 " fill-opacity="1" fill-rule="evenodd"/><path fill="#f2c4b1" d="M 447.695312 187.460938 C 447.695312 187.460938 445.589844 195.894531 447.492188 205.984375 C 449.394531 216.070312 454.9375 224.085938 466.535156 223.894531 C 478.136719 223.699219 483.644531 208.703125 483.644531 208.703125 C 483.644531 208.703125 489.070312 210.761719 490.417969 202.945312 C 491.761719 195.125 485.980469 195.078125 483.757812 197.832031 C 483.757812 197.832031 483.609375 182.601562 473.191406 182.777344 C 462.769531 182.957031 453.1875 178.261719 447.695312 187.460938 Z M 447.695312 187.460938 " fill-opacity="1" fill-rule="evenodd"/><path fill="#28444a" d="M 471.300781 200.511719 C 472.101562 200.511719 472.753906 201.632812 472.753906 203.015625 C 472.753906 204.394531 472.101562 205.519531 471.300781 205.519531 C 470.5 205.519531 469.847656 204.394531 469.847656 203.015625 C 469.847656 201.632812 470.5 200.511719 471.300781 200.511719 Z M 454.558594 200.511719 C 455.359375 200.511719 456.007812 201.632812 456.007812 203.015625 C 456.007812 204.394531 455.359375 205.519531 454.558594 205.519531 C 453.757812 205.519531 453.105469 204.394531 453.105469 203.015625 C 453.105469 201.632812 453.757812 200.511719 454.558594 200.511719 Z M 454.710938 201.28125 C 455.078125 201.28125 455.378906 201.582031 455.378906 201.949219 C 455.378906 202.316406 455.078125 202.617188 454.710938 202.617188 C 454.339844 202.617188 454.042969 202.316406 454.042969 201.949219 C 454.042969 201.582031 454.339844 201.28125 454.710938 201.28125 Z M 471.414062 201.28125 C 471.78125 201.28125 472.082031 201.582031 472.082031 201.949219 C 472.082031 202.316406 471.78125 202.617188 471.414062 202.617188 C 471.042969 202.617188 470.746094 202.316406 470.746094 201.949219 C 470.746094 201.582031 471.042969 201.28125 471.414062 201.28125 Z M 471.414062 201.28125 " fill-opacity="1" fill-rule="evenodd"/><path fill="#28444a" d="M 468.15625 202.007812 C 468.546875 203.074219 469.816406 203.988281 470.996094 203.609375 C 471.25 203.53125 471.386719 203.261719 471.308594 203.007812 C 471.226562 202.761719 470.960938 202.621094 470.707031 202.703125 C 470.003906 202.921875 469.285156 202.316406 469.058594 201.683594 C 468.96875 201.433594 468.695312 201.308594 468.445312 201.394531 C 468.199219 201.484375 468.070312 201.761719 468.15625 202.007812 Z M 468.15625 202.007812 " fill-opacity="1" fill-rule="evenodd"/><path fill="#28444a" d="M 451.046875 202.007812 C 451.4375 203.074219 452.703125 203.988281 453.882812 203.609375 C 454.136719 203.53125 454.273438 203.261719 454.195312 203.007812 C 454.113281 202.761719 453.847656 202.621094 453.59375 202.703125 C 452.890625 202.921875 452.175781 202.316406 451.945312 201.683594 C 451.859375 201.433594 451.582031 201.308594 451.335938 201.394531 C 451.085938 201.484375 450.957031 201.761719 451.046875 202.007812 Z M 451.046875 202.007812 " fill-opacity="1" fill-rule="evenodd"/><path fill="#ea9e7f" d="M 477.566406 218.46875 C 474.4375 218.375 471.917969 215.808594 471.917969 212.664062 C 471.917969 209.460938 474.523438 206.859375 477.730469 206.859375 C 480.0625 206.859375 482.078125 208.230469 483 210.214844 C 482.117188 212.132812 480.316406 215.535156 477.566406 218.46875 Z M 447.949219 208.0625 C 448.925781 207.308594 450.160156 206.859375 451.492188 206.859375 C 454.699219 206.859375 457.300781 209.460938 457.300781 212.664062 C 457.300781 215.375 455.4375 217.648438 452.925781 218.292969 C 450.535156 215.5625 448.925781 212.019531 447.949219 208.0625 Z M 447.949219 208.0625 " fill-opacity="1" fill-rule="evenodd"/><path fill="#28444a" d="M 468 197.542969 C 470.289062 196.996094 472.796875 197.308594 474.554688 198.984375 C 474.769531 199.1875 475.105469 199.175781 475.308594 198.964844 C 475.511719 198.753906 475.503906 198.414062 475.289062 198.210938 C 473.265625 196.285156 470.386719 195.878906 467.753906 196.507812 C 467.46875 196.578125 467.292969 196.867188 467.359375 197.152344 C 467.429688 197.4375 467.714844 197.613281 468 197.542969 Z M 468 197.542969 " fill-opacity="1" fill-rule="evenodd"/><path fill="#28444a" d="M 458.097656 196.628906 C 455.527344 195.777344 452.625 195.933594 450.441406 197.679688 C 450.214844 197.863281 450.175781 198.195312 450.359375 198.425781 C 450.542969 198.65625 450.878906 198.691406 451.109375 198.507812 C 453.003906 196.992188 455.53125 196.898438 457.761719 197.640625 C 458.042969 197.734375 458.34375 197.582031 458.4375 197.304688 C 458.527344 197.023438 458.378906 196.722656 458.097656 196.628906 Z M 458.097656 196.628906 " fill-opacity="1" fill-rule="evenodd"/><path fill="#ea9e7f" d="M 462.550781 205.449219 C 462.191406 206.25 461.488281 207.496094 461.304688 208.644531 C 461.160156 209.566406 461.328125 210.429688 462.0625 211.058594 C 462.472656 211.414062 462.96875 211.609375 463.472656 211.785156 C 463.75 211.882812 464.054688 211.734375 464.152344 211.457031 C 464.246094 211.179688 464.101562 210.878906 463.824219 210.78125 C 463.445312 210.648438 463.066406 210.515625 462.757812 210.25 C 462.191406 209.765625 462.261719 209.039062 462.46875 208.320312 C 462.730469 207.414062 463.242188 206.507812 463.523438 205.886719 C 463.644531 205.617188 463.523438 205.300781 463.257812 205.179688 C 462.988281 205.0625 462.671875 205.179688 462.550781 205.449219 Z M 462.550781 205.449219 " fill-opacity="1" fill-rule="evenodd"/><path fill="#ea9e7f" d="M 461.609375 216.347656 C 461.816406 216.578125 462.082031 216.71875 462.375 216.808594 C 462.691406 216.902344 463.046875 216.925781 463.359375 216.996094 C 465.578125 217.507812 468.085938 216.4375 469.125 214.359375 C 469.246094 214.125 469.148438 213.835938 468.914062 213.71875 C 468.675781 213.601562 468.390625 213.699219 468.273438 213.933594 C 467.425781 215.621094 465.382812 216.480469 463.578125 216.066406 C 463.324219 216.007812 463.039062 215.984375 462.773438 215.925781 C 462.609375 215.886719 462.441406 215.839844 462.328125 215.710938 C 462.148438 215.511719 461.84375 215.496094 461.652344 215.671875 C 461.453125 215.847656 461.4375 216.148438 461.609375 216.347656 Z M 461.609375 216.347656 " fill-opacity="1" fill-rule="evenodd"/><path fill="#ea9e7f" d="M 487.574219 202.640625 C 487.574219 202.820312 487.539062 202.992188 487.46875 203.160156 C 487.402344 203.324219 487.304688 203.472656 487.175781 203.597656 C 487.046875 203.726562 486.902344 203.824219 486.734375 203.894531 C 486.570312 203.960938 486.394531 203.996094 486.214844 203.996094 C 486.035156 203.996094 485.863281 203.960938 485.695312 203.894531 C 485.527344 203.824219 485.382812 203.726562 485.253906 203.597656 C 485.128906 203.472656 485.03125 203.324219 484.960938 203.160156 C 484.890625 202.992188 484.855469 202.820312 484.855469 202.640625 C 484.855469 202.460938 484.890625 202.285156 484.960938 202.121094 C 485.03125 201.953125 485.128906 201.808594 485.253906 201.679688 C 485.382812 201.554688 485.527344 201.457031 485.695312 201.386719 C 485.863281 201.316406 486.035156 201.28125 486.214844 201.28125 C 486.394531 201.28125 486.570312 201.316406 486.734375 201.386719 C 486.902344 201.457031 487.046875 201.554688 487.175781 201.679688 C 487.304688 201.808594 487.402344 201.953125 487.46875 202.121094 C 487.539062 202.285156 487.574219 202.460938 487.574219 202.640625 Z M 487.574219 202.640625 " fill-opacity="1" fill-rule="nonzero"/><path fill="#ea9e7f" d="M 463.332031 224.035156 C 467.339844 224.601562 471.808594 223.519531 474.972656 221.082031 C 475.179688 220.921875 475.222656 220.621094 475.0625 220.410156 C 474.902344 220.203125 474.597656 220.164062 474.390625 220.324219 C 471.421875 222.613281 467.230469 223.617188 463.464844 223.089844 C 463.203125 223.054688 462.960938 223.234375 462.925781 223.496094 C 462.886719 223.757812 463.070312 224 463.332031 224.035156 Z M 463.332031 224.035156 " fill-opacity="1" fill-rule="evenodd"/><path fill="#28444a" d="M 500.554688 241.484375 C 498.472656 245.828125 496.878906 259.710938 497.328125 267.203125 C 497.347656 267.46875 497.574219 267.667969 497.835938 267.652344 C 498.101562 267.636719 498.300781 267.410156 498.285156 267.148438 C 497.839844 259.789062 499.375 246.160156 501.417969 241.898438 C 501.53125 241.660156 501.429688 241.375 501.191406 241.261719 C 500.953125 241.148438 500.667969 241.246094 500.554688 241.484375 Z M 500.554688 241.484375 " fill-opacity="1" fill-rule="evenodd"/><path fill="#28444a" d="M 506.609375 278.042969 C 510.933594 276.792969 515.066406 274.824219 518.378906 271.726562 C 518.570312 271.546875 518.582031 271.242188 518.402344 271.050781 C 518.222656 270.855469 517.917969 270.847656 517.726562 271.027344 C 514.523438 274.019531 510.523438 275.914062 506.34375 277.121094 C 506.089844 277.195312 505.941406 277.460938 506.015625 277.714844 C 506.089844 277.96875 506.355469 278.113281 506.609375 278.042969 Z M 506.609375 278.042969 " fill-opacity="1" fill-rule="evenodd"/><path fill="#28444a" d="M 471.378906 182.890625 C 471.398438 183.816406 471.445312 184.742188 471.363281 185.667969 C 470.953125 190.390625 467.183594 193.582031 461.863281 194.183594 C 462.480469 192.617188 462.957031 191.074219 462.925781 189.371094 C 462.027344 191.144531 460.769531 192.84375 458.964844 193.785156 C 458.035156 194.269531 457 194.523438 455.996094 194.820312 C 454.234375 195.34375 452.277344 195.648438 450.476562 195.117188 C 451.289062 194.101562 451.847656 192.902344 452.09375 191.621094 C 451.398438 192.332031 450.683594 193.015625 449.910156 193.640625 C 449.53125 193.953125 449.121094 194.230469 448.671875 194.429688 C 447.410156 194.992188 446.183594 194.730469 445.804688 193.238281 C 445.34375 191.445312 445.582031 189.84375 445.9375 188.050781 C 446.644531 184.472656 449.222656 180.734375 452.285156 178.820312 C 459.539062 174.292969 469.644531 173.515625 477.113281 178.019531 C 482.011719 180.972656 484.863281 185.742188 485.375 191.375 C 485.554688 193.371094 485.578125 195.445312 484.65625 197.273438 C 484.09375 198.398438 482.660156 198.695312 481.378906 198.820312 C 481.207031 193.933594 480.546875 192.179688 477.835938 188.167969 C 476.605469 186.34375 473.480469 183.730469 471.378906 182.890625 Z M 471.378906 182.890625 " fill-opacity="1" fill-rule="evenodd"/><g clip-path="url(#c0dda396f7)"><path fill="#f2c4b1" d="M 526.140625 290.160156 C 526.296875 284.382812 511.808594 288.296875 511.808594 288.296875 C 511.808594 288.296875 498.699219 299.765625 487.222656 305.101562 C 481.027344 307.984375 473.660156 309.300781 468.175781 313.519531 C 466.730469 314.628906 462.265625 317.980469 463.691406 319.304688 C 465.035156 320.550781 472.648438 312.714844 473.820312 313.777344 C 474.632812 314.515625 462.648438 322.589844 464.65625 324.414062 C 466.449219 326.039062 474.902344 316.25 475.46875 317.113281 C 475.722656 317.5 466.167969 325.496094 468.71875 327.097656 C 470.546875 328.25 476.734375 318.871094 477.441406 320.003906 C 477.761719 320.515625 470.824219 326.738281 472.257812 328.042969 C 473.886719 329.527344 478.113281 323.757812 478.988281 323.300781 C 482.28125 321.570312 485.996094 322.683594 490.742188 316.628906 C 499.851562 305.015625 525.816406 301.992188 526.140625 290.160156 " fill-opacity="1" fill-rule="evenodd"/></g></svg>