<svg xmlns="http://www.w3.org/2000/svg" xmlns:xlink="http://www.w3.org/1999/xlink" width="1024" zoomAndPan="magnify" viewBox="0 0 768 576" height="768" preserveAspectRatio="xMidYMid meet" version="1.0"><defs><clipPath id="357461f0f0"><path d="M 161.089844 65.089844 L 606.589844 65.089844 L 606.589844 510.589844 L 161.089844 510.589844 Z M 161.089844 65.089844 " clip-rule="nonzero"/></clipPath><clipPath id="e5458c53cf"><path d="M 458 201 L 501.410156 201 L 501.410156 247 L 458 247 Z M 458 201 " clip-rule="nonzero"/></clipPath><clipPath id="51574dff14"><path d="M 433 216 L 501.410156 216 L 501.410156 262 L 433 262 Z M 433 216 " clip-rule="nonzero"/></clipPath></defs><rect x="-76.8" width="921.6" fill="#ffffff" y="-57.6" height="691.2" fill-opacity="1"/><rect x="-76.8" width="921.6" fill="#ffbd59" y="-57.6" height="691.2" fill-opacity="1"/><g clip-path="url(#357461f0f0)"><path fill="#ffffff" d="M 606.589844 287.839844 C 606.589844 291.484375 606.5 295.128906 606.320312 298.769531 C 606.140625 302.410156 605.875 306.042969 605.515625 309.671875 C 605.160156 313.300781 604.714844 316.917969 604.179688 320.523438 C 603.644531 324.128906 603.019531 327.71875 602.308594 331.296875 C 601.597656 334.871094 600.800781 338.425781 599.914062 341.964844 C 599.027344 345.5 598.054688 349.011719 596.996094 352.5 C 595.9375 355.988281 594.796875 359.449219 593.566406 362.882812 C 592.339844 366.3125 591.027344 369.714844 589.632812 373.082031 C 588.238281 376.449219 586.761719 379.78125 585.203125 383.078125 C 583.644531 386.371094 582.003906 389.628906 580.285156 392.84375 C 578.570312 396.058594 576.773438 399.230469 574.898438 402.355469 C 573.023438 405.480469 571.074219 408.5625 569.050781 411.59375 C 567.023438 414.625 564.925781 417.601562 562.753906 420.53125 C 560.582031 423.460938 558.339844 426.332031 556.027344 429.148438 C 553.714844 431.96875 551.335938 434.726562 548.886719 437.429688 C 546.4375 440.128906 543.925781 442.769531 541.347656 445.347656 C 538.769531 447.925781 536.128906 450.4375 533.429688 452.886719 C 530.726562 455.335938 527.96875 457.714844 525.148438 460.027344 C 522.332031 462.339844 519.460938 464.582031 516.53125 466.753906 C 513.601562 468.925781 510.625 471.023438 507.59375 473.050781 C 504.5625 475.074219 501.480469 477.023438 498.355469 478.898438 C 495.230469 480.773438 492.058594 482.570312 488.84375 484.285156 C 485.628906 486.003906 482.371094 487.644531 479.078125 489.203125 C 475.78125 490.761719 472.449219 492.238281 469.082031 493.632812 C 465.714844 495.027344 462.3125 496.339844 458.882812 497.566406 C 455.449219 498.796875 451.988281 499.9375 448.5 500.996094 C 445.011719 502.054688 441.5 503.027344 437.960938 503.914062 C 434.425781 504.800781 430.871094 505.597656 427.296875 506.308594 C 423.71875 507.019531 420.128906 507.644531 416.523438 508.179688 C 412.917969 508.714844 409.300781 509.160156 405.671875 509.515625 C 402.042969 509.875 398.410156 510.140625 394.769531 510.320312 C 391.128906 510.5 387.484375 510.589844 383.839844 510.589844 C 380.195312 510.589844 376.550781 510.5 372.910156 510.320312 C 369.269531 510.140625 365.632812 509.875 362.003906 509.515625 C 358.378906 509.160156 354.761719 508.714844 351.15625 508.179688 C 347.546875 507.644531 343.957031 507.019531 340.382812 506.308594 C 336.808594 505.597656 333.25 504.800781 329.714844 503.914062 C 326.179688 503.027344 322.667969 502.054688 319.179688 500.996094 C 315.691406 499.9375 312.230469 498.796875 308.796875 497.566406 C 305.363281 496.339844 301.964844 495.027344 298.597656 493.632812 C 295.226562 492.238281 291.898438 490.761719 288.601562 489.203125 C 285.304688 487.644531 282.050781 486.003906 278.835938 484.285156 C 275.621094 482.570312 272.449219 480.773438 269.324219 478.898438 C 266.195312 477.023438 263.117188 475.074219 260.085938 473.050781 C 257.054688 471.023438 254.074219 468.925781 251.148438 466.753906 C 248.21875 464.582031 245.347656 462.339844 242.527344 460.027344 C 239.710938 457.714844 236.949219 455.335938 234.25 452.886719 C 231.546875 450.4375 228.910156 447.925781 226.332031 445.347656 C 223.753906 442.769531 221.242188 440.128906 218.792969 437.429688 C 216.34375 434.726562 213.964844 431.96875 211.652344 429.148438 C 209.339844 426.332031 207.097656 423.460938 204.925781 420.53125 C 202.753906 417.601562 200.65625 414.625 198.628906 411.59375 C 196.605469 408.5625 194.652344 405.480469 192.78125 402.355469 C 190.90625 399.230469 189.109375 396.058594 187.390625 392.84375 C 185.671875 389.628906 184.035156 386.371094 182.476562 383.078125 C 180.917969 379.78125 179.441406 376.449219 178.042969 373.082031 C 176.648438 369.714844 175.339844 366.3125 174.109375 362.882812 C 172.882812 359.449219 171.738281 355.988281 170.679688 352.5 C 169.621094 349.011719 168.648438 345.5 167.765625 341.960938 C 166.878906 338.425781 166.082031 334.871094 165.367188 331.296875 C 164.65625 327.71875 164.035156 324.128906 163.5 320.523438 C 162.964844 316.917969 162.519531 313.300781 162.160156 309.671875 C 161.804688 306.042969 161.535156 302.410156 161.355469 298.769531 C 161.179688 295.128906 161.089844 291.484375 161.089844 287.839844 C 161.089844 284.195312 161.179688 280.550781 161.355469 276.910156 C 161.535156 273.269531 161.804688 269.632812 162.160156 266.003906 C 162.519531 262.378906 162.964844 258.761719 163.5 255.15625 C 164.035156 251.550781 164.65625 247.957031 165.367188 244.382812 C 166.082031 240.808594 166.878906 237.25 167.765625 233.714844 C 168.648438 230.179688 169.621094 226.667969 170.679688 223.179688 C 171.738281 219.691406 172.882812 216.230469 174.109375 212.796875 C 175.339844 209.363281 176.648438 205.964844 178.042969 202.597656 C 179.441406 199.226562 180.917969 195.898438 182.476562 192.601562 C 184.035156 189.304688 185.671875 186.050781 187.390625 182.835938 C 189.109375 179.621094 190.90625 176.449219 192.78125 173.324219 C 194.652344 170.195312 196.605469 167.117188 198.628906 164.085938 C 200.65625 161.054688 202.753906 158.074219 204.925781 155.148438 C 207.097656 152.21875 209.339844 149.347656 211.652344 146.527344 C 213.964844 143.710938 216.34375 140.949219 218.792969 138.25 C 221.242188 135.546875 223.753906 132.910156 226.332031 130.332031 C 228.910156 127.753906 231.546875 125.242188 234.25 122.792969 C 236.949219 120.34375 239.710938 117.964844 242.527344 115.652344 C 245.347656 113.339844 248.21875 111.097656 251.148438 108.925781 C 254.074219 106.753906 257.054688 104.65625 260.085938 102.628906 C 263.117188 100.605469 266.195312 98.652344 269.324219 96.78125 C 272.449219 94.90625 275.621094 93.109375 278.835938 91.390625 C 282.050781 89.671875 285.304688 88.035156 288.601562 86.476562 C 291.898438 84.917969 295.226562 83.441406 298.597656 82.046875 C 301.964844 80.648438 305.363281 79.339844 308.796875 78.109375 C 312.230469 76.882812 315.691406 75.738281 319.179688 74.679688 C 322.667969 73.621094 326.179688 72.652344 329.714844 71.765625 C 333.25 70.878906 336.808594 70.082031 340.382812 69.371094 C 343.957031 68.65625 347.546875 68.035156 351.15625 67.5 C 354.761719 66.964844 358.378906 66.519531 362.003906 66.160156 C 365.632812 65.804688 369.269531 65.535156 372.910156 65.359375 C 376.550781 65.179688 380.195312 65.089844 383.839844 65.089844 C 387.484375 65.089844 391.128906 65.179688 394.769531 65.359375 C 398.410156 65.535156 402.042969 65.804688 405.671875 66.160156 C 409.300781 66.519531 412.917969 66.964844 416.523438 67.5 C 420.128906 68.035156 423.71875 68.65625 427.296875 69.371094 C 430.871094 70.082031 434.425781 70.878906 437.960938 71.765625 C 441.5 72.652344 445.011719 73.621094 448.5 74.679688 C 451.988281 75.738281 455.449219 76.882812 458.882812 78.109375 C 462.3125 79.339844 465.714844 80.648438 469.082031 82.046875 C 472.449219 83.441406 475.78125 84.917969 479.078125 86.476562 C 482.371094 88.035156 485.628906 89.671875 488.84375 91.390625 C 492.058594 93.109375 495.230469 94.90625 498.355469 96.78125 C 501.480469 98.652344 504.5625 100.605469 507.59375 102.628906 C 510.625 104.65625 513.601562 106.753906 516.53125 108.925781 C 519.460938 111.097656 522.332031 113.339844 525.148438 115.652344 C 527.96875 117.964844 530.726562 120.34375 533.429688 122.792969 C 536.128906 125.242188 538.769531 127.753906 541.347656 130.332031 C 543.925781 132.910156 546.4375 135.546875 548.886719 138.25 C 551.335938 140.949219 553.714844 143.710938 556.027344 146.527344 C 558.339844 149.347656 560.582031 152.21875 562.753906 155.148438 C 564.925781 158.074219 567.023438 161.054688 569.050781 164.085938 C 571.074219 167.117188 573.023438 170.195312 574.898438 173.324219 C 576.773438 176.449219 578.570312 179.621094 580.285156 182.835938 C 582.003906 186.050781 583.644531 189.304688 585.203125 192.601562 C 586.761719 195.898438 588.238281 199.226562 589.632812 202.597656 C 591.027344 205.964844 592.339844 209.363281 593.566406 212.796875 C 594.796875 216.230469 595.9375 219.691406 596.996094 223.179688 C 598.054688 226.667969 599.027344 230.179688 599.914062 233.714844 C 600.800781 237.25 601.597656 240.808594 602.308594 244.382812 C 603.019531 247.957031 603.644531 251.550781 604.179688 255.15625 C 604.714844 258.761719 605.160156 262.378906 605.515625 266.003906 C 605.875 269.632812 606.140625 273.269531 606.320312 276.910156 C 606.5 280.550781 606.589844 284.195312 606.589844 287.839844 Z M 606.589844 287.839844 " fill-opacity="1" fill-rule="nonzero"/></g><path fill="#f2c4b1" d="M 350.542969 465.8125 C 350.542969 465.8125 351.339844 407.019531 353.734375 386.972656 C 356.132812 366.921875 354.292969 343.816406 354.292969 343.816406 L 334.390625 336.910156 C 334.390625 336.910156 335.558594 370.5 335.730469 377.730469 C 335.816406 381.09375 334.839844 399.210938 335.53125 418.546875 C 336.085938 433.925781 338.40625 449.390625 337.992188 463.714844 C 337.992188 463.714844 341.71875 465.507812 350.542969 465.8125 Z M 350.542969 465.8125 " fill-opacity="1" fill-rule="evenodd"/><path fill="#f2c4b1" d="M 306.335938 465.8125 C 306.335938 465.8125 305.539062 407.019531 303.144531 386.972656 C 300.746094 366.921875 302.585938 343.816406 302.585938 343.816406 L 323.625 340.238281 C 323.625 340.238281 321.320312 370.5 321.148438 377.730469 C 321.0625 381.09375 322.039062 399.210938 321.34375 418.546875 C 320.789062 433.925781 318.46875 449.390625 318.886719 463.714844 C 318.886719 463.714844 315.160156 465.507812 306.335938 465.8125 Z M 306.335938 465.8125 " fill-opacity="1" fill-rule="evenodd"/><path fill="#28444a" d="M 350.859375 460.855469 C 350.859375 460.855469 354.851562 464.535156 357.296875 466.65625 C 365.945312 474.164062 373.890625 479.734375 373.425781 481.472656 C 372.757812 484 336.453125 479.648438 334.660156 476.28125 C 333.3125 473.75 337.492188 460.6875 337.492188 460.6875 C 342.441406 464.34375 347.128906 464.46875 350.859375 460.855469 Z M 350.859375 460.855469 " fill-opacity="1" fill-rule="evenodd"/><path fill="#28444a" d="M 306.015625 460.855469 C 306.015625 460.855469 302.023438 464.535156 299.582031 466.65625 C 290.929688 474.164062 282.988281 479.734375 283.449219 481.472656 C 284.121094 484 320.425781 479.648438 322.21875 476.28125 C 323.566406 473.75 319.386719 460.6875 319.386719 460.6875 C 314.4375 464.34375 309.746094 464.46875 306.015625 460.855469 Z M 306.015625 460.855469 " fill-opacity="1" fill-rule="evenodd"/><path fill="#28444a" d="M 322.195312 105.742188 C 322.195312 105.742188 312.1875 108.699219 314.289062 126.019531 C 316.695312 145.816406 335.226562 160.195312 351.488281 150.421875 C 357.59375 146.757812 364.75 138.636719 366.050781 129.34375 C 368.136719 114.4375 362.867188 103.09375 354.058594 98.039062 C 345.253906 92.980469 327.015625 92.730469 322.195312 105.742188 Z M 322.195312 105.742188 " fill-opacity="1" fill-rule="evenodd"/><path fill="#28444a" d="M 364.792969 114.835938 C 365.503906 119.390625 366.882812 118.609375 366.503906 129.609375 C 366.027344 143.480469 358.226562 167.742188 345.402344 176.382812 C 322.882812 191.554688 266.730469 188.273438 290.820312 161.097656 C 293.195312 158.417969 296.714844 155.691406 298.949219 152.84375 C 303.90625 146.53125 305.136719 138.339844 307.097656 130.789062 C 309.699219 120.796875 313.347656 110.15625 322.773438 104.78125 C 329.957031 100.6875 339.363281 99.910156 347.59375 100.84375 C 350.363281 101.160156 353.328125 101.832031 355.742188 103.28125 C 358.828125 105.136719 361.046875 108.125 362.625 111.292969 C 363.59375 113.230469 363.832031 115.183594 364.117188 117.296875 " fill-opacity="1" fill-rule="evenodd"/><path fill="#69bac9" d="M 362.367188 247.21875 C 362.367188 247.21875 364.703125 247.519531 366.808594 263.207031 C 368.914062 278.890625 355.496094 454.945312 355.496094 454.945312 C 355.042969 457.421875 331.367188 456.867188 331.367188 456.867188 C 331.367188 456.867188 332.824219 321.714844 330.667969 321.527344 C 328.398438 321.328125 323.621094 456.898438 323.621094 456.898438 C 323.621094 456.898438 302.847656 457.105469 301.90625 455.644531 C 301.90625 455.644531 296.53125 256.222656 305.09375 247.15625 Z M 362.367188 247.21875 " fill-opacity="1" fill-rule="evenodd"/><path fill="#28444a" d="M 366.117188 258.578125 C 366.347656 259.945312 366.582031 261.484375 366.8125 263.203125 C 367.269531 266.617188 366.996094 277.613281 366.28125 292.734375 C 352.75 297.300781 328.296875 303.925781 300.488281 303.882812 C 300.75 287.617188 301.25 273.289062 302.097656 263.058594 C 319.53125 258.09375 348.828125 251.699219 366.117188 258.578125 Z M 366.117188 258.578125 " fill-opacity="1" fill-rule="evenodd"/><path fill="#ea9e7f" d="M 389.714844 200.355469 L 394.992188 209.835938 C 394.992188 209.835938 400.019531 196.515625 409.046875 180.910156 C 409.046875 180.910156 417.550781 178.484375 416.183594 183.277344 C 414.816406 188.070312 410.945312 227.792969 394.480469 227.488281 C 383.246094 227.28125 370.851562 201.730469 370.851562 201.730469 Z M 389.714844 200.355469 " fill-opacity="1" fill-rule="evenodd"/><path fill="#f2c4b1" d="M 345.035156 150.402344 C 345.035156 150.402344 343.363281 163.300781 350.261719 163.550781 L 341.707031 193.8125 L 324.875 163.261719 C 324.875 163.261719 330.6875 164.390625 330.855469 158.636719 C 331.023438 152.882812 330.882812 146.070312 330.882812 146.070312 Z M 345.035156 150.402344 " fill-opacity="1" fill-rule="evenodd"/><path fill="#f2c4b1" d="M 360.980469 113.21875 C 360.980469 113.21875 363.25 122.300781 361.199219 133.164062 C 359.152344 144.023438 353.183594 152.65625 340.691406 152.445312 C 328.199219 152.238281 322.269531 136.089844 322.269531 136.089844 C 322.269531 136.089844 316.425781 138.308594 314.976562 129.890625 C 313.523438 121.472656 319.753906 121.425781 322.144531 124.390625 C 322.144531 124.390625 322.304688 107.988281 333.527344 108.179688 C 344.75 108.371094 355.066406 103.316406 360.980469 113.21875 Z M 360.980469 113.21875 " fill-opacity="1" fill-rule="evenodd"/><path fill="#28444a" d="M 335.5625 127.273438 C 334.699219 127.273438 334 128.480469 334 129.96875 C 334 131.457031 334.699219 132.664062 335.5625 132.664062 C 336.425781 132.664062 337.125 131.457031 337.125 129.96875 C 337.125 128.480469 336.425781 127.273438 335.5625 127.273438 Z M 353.59375 127.273438 C 352.730469 127.273438 352.03125 128.480469 352.03125 129.96875 C 352.03125 131.457031 352.730469 132.664062 353.59375 132.664062 C 354.457031 132.664062 355.15625 131.457031 355.15625 129.96875 C 355.15625 128.480469 354.457031 127.273438 353.59375 127.273438 Z M 353.429688 128.101562 C 353.03125 128.101562 352.710938 128.425781 352.710938 128.824219 C 352.710938 129.21875 353.03125 129.542969 353.429688 129.542969 C 353.824219 129.542969 354.148438 129.21875 354.148438 128.824219 C 354.148438 128.425781 353.824219 128.101562 353.429688 128.101562 Z M 335.441406 128.101562 C 335.042969 128.101562 334.722656 128.425781 334.722656 128.824219 C 334.722656 129.21875 335.042969 129.542969 335.441406 129.542969 C 335.839844 129.542969 336.160156 129.21875 336.160156 128.824219 C 336.160156 128.425781 335.839844 128.101562 335.441406 128.101562 Z M 335.441406 128.101562 " fill-opacity="1" fill-rule="evenodd"/><path fill="#28444a" d="M 338.941406 128.886719 C 338.519531 130.035156 337.15625 131.015625 335.882812 130.613281 C 335.613281 130.527344 335.464844 130.238281 335.546875 129.964844 C 335.636719 129.699219 335.925781 129.542969 336.195312 129.632812 C 336.953125 129.871094 337.726562 129.21875 337.972656 128.535156 C 338.066406 128.269531 338.363281 128.132812 338.628906 128.226562 C 338.898438 128.324219 339.035156 128.621094 338.941406 128.886719 Z M 338.941406 128.886719 " fill-opacity="1" fill-rule="evenodd"/><path fill="#28444a" d="M 357.371094 128.886719 C 356.949219 130.035156 355.582031 131.015625 354.3125 130.613281 C 354.039062 130.527344 353.890625 130.238281 353.976562 129.964844 C 354.066406 129.699219 354.351562 129.542969 354.625 129.632812 C 355.382812 129.871094 356.152344 129.21875 356.398438 128.535156 C 356.496094 128.269531 356.792969 128.132812 357.058594 128.226562 C 357.324219 128.324219 357.464844 128.621094 357.371094 128.886719 Z M 357.371094 128.886719 " fill-opacity="1" fill-rule="evenodd"/><path fill="#ea9e7f" d="M 328.816406 146.609375 C 332.183594 146.507812 334.894531 143.746094 334.894531 140.359375 C 334.894531 136.910156 332.089844 134.109375 328.636719 134.109375 C 326.125 134.109375 323.957031 135.585938 322.960938 137.722656 C 323.914062 139.789062 325.851562 143.449219 328.816406 146.609375 Z M 360.710938 135.402344 C 359.65625 134.59375 358.328125 134.109375 356.894531 134.109375 C 353.441406 134.109375 350.636719 136.910156 350.636719 140.359375 C 350.636719 143.277344 352.644531 145.726562 355.351562 146.421875 C 357.925781 143.480469 359.65625 139.664062 360.710938 135.402344 Z M 360.710938 135.402344 " fill-opacity="1" fill-rule="evenodd"/><path fill="#28444a" d="M 339.113281 124.082031 C 336.652344 123.492188 333.949219 123.828125 332.054688 125.628906 C 331.828125 125.847656 331.464844 125.839844 331.246094 125.609375 C 331.027344 125.382812 331.035156 125.019531 331.265625 124.800781 C 333.445312 122.726562 336.546875 122.289062 339.382812 122.96875 C 339.691406 123.042969 339.878906 123.351562 339.804688 123.65625 C 339.730469 123.964844 339.421875 124.15625 339.113281 124.082031 Z M 339.113281 124.082031 " fill-opacity="1" fill-rule="evenodd"/><path fill="#28444a" d="M 349.804688 123.085938 C 352.574219 122.167969 355.703125 122.335938 358.050781 124.214844 C 358.296875 124.414062 358.339844 124.773438 358.140625 125.019531 C 357.941406 125.269531 357.582031 125.308594 357.335938 125.109375 C 355.292969 123.476562 352.570312 123.375 350.167969 124.175781 C 349.867188 124.273438 349.542969 124.113281 349.445312 123.8125 C 349.34375 123.511719 349.507812 123.1875 349.804688 123.085938 Z M 349.804688 123.085938 " fill-opacity="1" fill-rule="evenodd"/><path fill="#ea9e7f" d="M 344.984375 132.589844 C 345.375 133.457031 346.128906 134.796875 346.324219 136.03125 C 346.484375 137.023438 346.304688 137.953125 345.511719 138.632812 C 345.066406 139.011719 344.535156 139.226562 343.992188 139.414062 C 343.695312 139.519531 343.367188 139.359375 343.261719 139.0625 C 343.15625 138.765625 343.316406 138.4375 343.613281 138.332031 C 344.019531 138.191406 344.429688 138.046875 344.765625 137.761719 C 345.375 137.238281 345.292969 136.457031 345.070312 135.683594 C 344.792969 134.707031 344.238281 133.734375 343.9375 133.0625 C 343.808594 132.773438 343.9375 132.433594 344.226562 132.304688 C 344.511719 132.171875 344.851562 132.300781 344.984375 132.589844 Z M 344.984375 132.589844 " fill-opacity="1" fill-rule="evenodd"/><path fill="#28444a" d="M 337.597656 141.445312 C 337.328125 142.6875 337.566406 143.851562 338.144531 144.8125 C 341.839844 142.792969 344.882812 144.226562 346.582031 145.535156 C 347.171875 144.773438 347.632812 143.746094 347.925781 142.433594 Z M 337.597656 141.445312 " fill-opacity="1" fill-rule="evenodd"/><path fill="#e07779" d="M 346.582031 145.53125 C 344.882812 144.226562 341.839844 142.789062 338.144531 144.808594 L 338.40625 145.261719 C 340.574219 147.75 343.550781 148.28125 346.140625 146.101562 Z M 346.582031 145.53125 " fill-opacity="1" fill-rule="evenodd"/><path fill="#ea9e7f" d="M 318.035156 129.566406 C 318.035156 129.761719 318.074219 129.949219 318.148438 130.125 C 318.222656 130.304688 318.328125 130.464844 318.464844 130.601562 C 318.601562 130.738281 318.761719 130.84375 318.941406 130.917969 C 319.117188 130.992188 319.304688 131.027344 319.5 131.027344 C 319.695312 131.027344 319.878906 130.992188 320.058594 130.917969 C 320.238281 130.84375 320.394531 130.738281 320.535156 130.601562 C 320.671875 130.464844 320.777344 130.304688 320.851562 130.125 C 320.925781 129.949219 320.960938 129.761719 320.960938 129.566406 C 320.960938 129.375 320.925781 129.1875 320.851562 129.007812 C 320.777344 128.828125 320.671875 128.671875 320.535156 128.535156 C 320.394531 128.398438 320.238281 128.292969 320.058594 128.21875 C 319.878906 128.144531 319.695312 128.105469 319.5 128.105469 C 319.304688 128.105469 319.117188 128.144531 318.941406 128.21875 C 318.761719 128.292969 318.601562 128.398438 318.464844 128.535156 C 318.328125 128.671875 318.222656 128.828125 318.148438 129.007812 C 318.074219 129.1875 318.035156 129.375 318.035156 129.566406 Z M 318.035156 129.566406 " fill-opacity="1" fill-rule="nonzero"/><path fill="#ea9e7f" d="M 343.996094 151.585938 C 339.945312 152.152344 335.429688 151.070312 332.234375 148.609375 C 332.011719 148.433594 331.683594 148.476562 331.511719 148.699219 C 331.339844 148.925781 331.382812 149.25 331.605469 149.421875 C 335.015625 152.046875 339.828125 153.210938 344.140625 152.605469 C 344.421875 152.5625 344.621094 152.304688 344.582031 152.023438 C 344.542969 151.742188 344.28125 151.542969 343.996094 151.585938 Z M 343.996094 151.585938 " fill-opacity="1" fill-rule="evenodd"/><path fill="#28444a" d="M 329.773438 111.539062 C 329.773438 111.539062 332.230469 112.832031 333.773438 113.5 C 335.023438 114.042969 338.691406 106.132812 347.082031 107.964844 C 360.851562 110.976562 361.039062 129.710938 359.695312 141.605469 C 359.046875 147.359375 362.640625 132.351562 362.640625 132.351562 C 362.640625 132.351562 365.515625 118.703125 363.035156 113.320312 C 360.558594 107.9375 353.363281 95.558594 340.074219 96.425781 C 326.785156 97.289062 323.125 103.148438 322.136719 105.753906 L 325.652344 109.429688 Z M 329.773438 111.539062 " fill-opacity="1" fill-rule="evenodd"/><path fill="#69bac9" d="M 339.960938 182.644531 L 348.175781 162.144531 C 348.175781 162.144531 364.625 163.199219 371.375 166.730469 C 376.484375 169.402344 393.082031 201.367188 393.082031 201.367188 C 393.082031 201.367188 385.792969 212.691406 374.875 213.835938 L 367.316406 205.664062 C 367.757812 232.546875 366.289062 247.09375 369.71875 289.5 C 359.695312 292.410156 350.890625 295.023438 338.050781 292.878906 L 334.074219 270.191406 L 329.21875 292.519531 C 315.867188 292.980469 308.746094 294.429688 296.960938 290.179688 C 296.960938 290.179688 299.539062 253.347656 299.550781 242.3125 C 299.566406 219.316406 283.839844 172.636719 303.410156 164.449219 C 309.769531 161.789062 324.03125 161.734375 328.085938 161.933594 Z M 339.960938 182.644531 " fill-opacity="1" fill-rule="evenodd"/><path fill="#f2c4b1" d="M 322.269531 199.980469 L 337.863281 225.601562 L 385.363281 247.492188 C 385.363281 247.492188 383.871094 251.5 380.828125 255.734375 C 380.828125 255.734375 331.578125 245.371094 326.648438 239.984375 C 321.714844 234.597656 304.703125 212.011719 304.703125 212.011719 Z M 322.269531 199.980469 " fill-opacity="1" fill-rule="evenodd"/><path fill="#69bac9" d="M 310.429688 167.101562 C 310.429688 167.101562 325.132812 189.15625 330.816406 204.398438 C 330.816406 204.398438 322.671875 215.007812 307.507812 220.726562 C 307.507812 220.726562 300.132812 212.035156 297.355469 206.917969 " fill-opacity="1" fill-rule="evenodd"/><path fill="#28444a" d="M 310 167.390625 C 310 167.390625 324.492188 189.117188 330.230469 204.308594 C 328.988281 205.835938 321.1875 214.921875 307.667969 220.121094 C 306.394531 218.597656 300.277344 211.21875 297.808594 206.671875 C 297.675781 206.425781 297.363281 206.332031 297.109375 206.464844 C 296.863281 206.601562 296.769531 206.914062 296.902344 207.164062 C 299.699219 212.3125 307.117188 221.0625 307.117188 221.0625 C 307.257812 221.226562 307.488281 221.285156 307.691406 221.210938 C 323.003906 215.4375 331.226562 204.714844 331.226562 204.714844 C 331.335938 204.570312 331.363281 204.382812 331.300781 204.21875 C 325.601562 188.933594 310.855469 166.820312 310.855469 166.820312 C 310.699219 166.582031 310.378906 166.519531 310.140625 166.675781 C 309.90625 166.835938 309.839844 167.152344 310 167.390625 Z M 310 167.390625 " fill-opacity="1" fill-rule="evenodd"/><path fill="#28444a" d="M 306.667969 214.328125 C 306.667969 214.328125 318.980469 207.921875 324.671875 201.851562 C 324.867188 201.644531 324.855469 201.320312 324.648438 201.125 C 324.441406 200.933594 324.113281 200.941406 323.917969 201.152344 C 318.320312 207.121094 306.191406 213.414062 306.191406 213.414062 C 305.9375 213.546875 305.839844 213.859375 305.972656 214.109375 C 306.101562 214.363281 306.414062 214.460938 306.667969 214.328125 Z M 306.667969 214.328125 " fill-opacity="1" fill-rule="evenodd"/><path fill="#28444a" d="M 362.195312 257.199219 C 355.628906 257.640625 349.164062 258.40625 342.574219 258.554688 C 342.292969 258.558594 342.0625 258.792969 342.070312 259.078125 C 342.074219 259.363281 342.3125 259.589844 342.597656 259.582031 C 349.203125 259.4375 355.683594 258.671875 362.261719 258.226562 C 362.550781 258.207031 362.761719 257.960938 362.742188 257.675781 C 362.722656 257.394531 362.480469 257.179688 362.195312 257.199219 Z M 362.195312 257.199219 " fill-opacity="1" fill-rule="evenodd"/><path fill="#28444a" d="M 305.738281 258.277344 C 312.316406 258.722656 318.796875 259.488281 325.402344 259.636719 C 325.6875 259.640625 325.925781 259.414062 325.929688 259.132812 C 325.9375 258.847656 325.707031 258.613281 325.425781 258.605469 C 318.835938 258.460938 312.371094 257.695312 305.804688 257.25 C 305.519531 257.230469 305.277344 257.445312 305.257812 257.730469 C 305.238281 258.011719 305.449219 258.257812 305.738281 258.277344 Z M 305.738281 258.277344 " fill-opacity="1" fill-rule="evenodd"/><path fill="#28444a" d="M 389.324219 198.550781 C 385.496094 203.707031 380.902344 208.230469 374.339844 209.433594 C 374.0625 209.484375 373.875 209.753906 373.929688 210.03125 C 373.976562 210.3125 374.246094 210.496094 374.527344 210.445312 C 381.359375 209.195312 386.164062 204.527344 390.15625 199.164062 C 390.324219 198.9375 390.273438 198.613281 390.046875 198.445312 C 389.816406 198.277344 389.496094 198.324219 389.324219 198.550781 Z M 389.324219 198.550781 " fill-opacity="1" fill-rule="evenodd"/><path fill="#28444a" d="M 340.09375 189.046875 L 323.03125 161.742188 C 325.289062 161.800781 327.09375 161.882812 328.089844 161.929688 L 339.960938 182.644531 L 348.183594 162.144531 C 348.183594 162.144531 349.601562 162.238281 351.789062 162.457031 Z M 340.09375 189.046875 " fill-opacity="1" fill-rule="evenodd"/><path fill="#28444a" d="M 370.128906 174.824219 C 369.417969 181.433594 368.277344 187.996094 367.582031 194.605469 C 366.738281 202.523438 366.496094 210.464844 366.675781 218.421875 C 366.679688 218.707031 366.917969 218.929688 367.199219 218.925781 C 367.488281 218.917969 367.710938 218.683594 367.703125 218.398438 C 367.53125 210.484375 367.773438 202.585938 368.605469 194.714844 C 369.300781 188.105469 370.445312 181.542969 371.152344 174.933594 C 371.183594 174.652344 370.980469 174.398438 370.699219 174.367188 C 370.414062 174.339844 370.160156 174.542969 370.128906 174.824219 Z M 370.128906 174.824219 " fill-opacity="1" fill-rule="evenodd"/><path fill="#28444a" d="M 332.796875 113.761719 L 322.425781 105.484375 C 322.425781 105.484375 317.582031 107.738281 316.203125 112.964844 C 314.828125 118.1875 317.332031 121.929688 318.191406 122.65625 C 318.191406 122.65625 321.71875 122.121094 324.542969 127.402344 C 328.816406 129.105469 326.316406 115.207031 332.796875 113.761719 Z M 332.796875 113.761719 " fill-opacity="1" fill-rule="evenodd"/><path fill="#69bac9" d="M 324.296875 108.785156 C 338.015625 105.386719 348.875 105.226562 361.558594 109.183594 C 359.003906 103.746094 357.175781 99.453125 355.046875 94.78125 C 355.046875 94.78125 334.558594 94.386719 330.496094 94.695312 C 330.496094 94.695312 326.851562 103.003906 324.296875 108.785156 Z M 324.296875 108.785156 " fill-opacity="1" fill-rule="evenodd"/><path fill="#f2c4b1" d="M 413.59375 465.8125 C 413.59375 465.8125 412.796875 407.019531 410.402344 386.972656 C 408.003906 366.921875 409.84375 343.816406 409.84375 343.816406 L 429.746094 336.910156 C 429.746094 336.910156 428.578125 370.5 428.40625 377.730469 C 428.320312 381.09375 429.296875 399.210938 428.605469 418.546875 C 428.050781 433.925781 425.730469 449.390625 426.144531 463.714844 C 426.144531 463.714844 422.417969 465.507812 413.59375 465.8125 Z M 413.59375 465.8125 " fill-opacity="1" fill-rule="evenodd"/><path fill="#f2c4b1" d="M 457.808594 465.8125 C 457.808594 465.8125 458.601562 407.019531 460.996094 386.972656 C 463.398438 366.921875 461.554688 343.816406 461.554688 343.816406 L 440.515625 340.238281 C 440.515625 340.238281 442.820312 370.5 442.996094 377.730469 C 443.078125 381.09375 442.105469 399.210938 442.796875 418.546875 C 443.351562 433.925781 445.671875 449.390625 445.253906 463.714844 C 445.253906 463.714844 448.980469 465.507812 457.808594 465.8125 Z M 457.808594 465.8125 " fill-opacity="1" fill-rule="evenodd"/><path fill="#28444a" d="M 413.277344 460.855469 C 413.277344 460.855469 409.285156 464.535156 406.839844 466.65625 C 398.191406 474.164062 390.246094 479.734375 390.707031 481.472656 C 391.378906 484 427.683594 479.648438 429.476562 476.28125 C 430.824219 473.75 426.644531 460.6875 426.644531 460.6875 C 421.695312 464.34375 417.007812 464.46875 413.277344 460.855469 Z M 413.277344 460.855469 " fill-opacity="1" fill-rule="evenodd"/><path fill="#28444a" d="M 458.121094 460.855469 C 458.121094 460.855469 462.113281 464.535156 464.554688 466.65625 C 473.203125 474.164062 481.148438 479.734375 480.6875 481.472656 C 480.015625 484 443.710938 479.648438 441.917969 476.28125 C 440.570312 473.75 444.75 460.6875 444.75 460.6875 C 449.699219 464.34375 454.386719 464.46875 458.121094 460.855469 Z M 458.121094 460.855469 " fill-opacity="1" fill-rule="evenodd"/><path fill="#28444a" d="M 443.507812 105.742188 C 443.507812 105.742188 453.515625 108.699219 451.414062 126.019531 C 449.011719 145.816406 430.476562 160.195312 414.21875 150.421875 C 408.113281 146.757812 402.34375 161.675781 400.929688 134.542969 C 399.632812 109.679688 402.839844 103.09375 411.644531 98.039062 C 420.449219 92.980469 438.691406 92.730469 443.507812 105.742188 Z M 443.507812 105.742188 " fill-opacity="1" fill-rule="evenodd"/><path fill="#28444a" d="M 432.894531 96.433594 C 435.265625 96.867188 437.566406 97.628906 439.664062 98.824219 C 443.90625 101.242188 447.960938 104.976562 450.332031 109.261719 C 452.277344 112.769531 453.167969 116.621094 453.941406 120.511719 C 455.257812 127.125 455.761719 133.792969 455.234375 140.527344 C 454.722656 147.0625 454.457031 154.414062 449.839844 159.554688 C 448.234375 161.34375 445.0625 160.246094 442.679688 159.863281 C 442.574219 157.765625 442.183594 155.75 441.167969 153.878906 C 441.039062 155.914062 440.921875 158.121094 439.453125 159.6875 C 437.140625 162.148438 433 160.632812 429.664062 160.875 C 425.5625 161.175781 421.339844 161.4375 417.226562 161.242188 C 414.691406 161.121094 411.3125 161.242188 408.949219 160.242188 C 408.96875 158.421875 409.261719 156.496094 408.816406 154.71875 C 408.035156 156.398438 407.246094 158.316406 407.277344 160.214844 C 406.3125 160.328125 405.371094 160.289062 404.421875 160.085938 C 402.988281 156.101562 402.769531 152.078125 402.191406 147.929688 C 400.578125 136.394531 400.542969 124.945312 404.667969 113.902344 C 406.488281 109.035156 409.1875 104.171875 413.394531 100.953125 C 415.824219 99.097656 418.832031 97.9375 421.742188 97.082031 C 424.535156 96.261719 427.160156 96.128906 430.046875 96.46875 " fill-opacity="1" fill-rule="evenodd"/><g clip-path="url(#e5458c53cf)"><path fill="#f2c4b1" d="M 480.027344 208.984375 L 485.710938 218.5625 C 485.710938 218.5625 474.324219 228.519531 464.355469 233.15625 C 454.386719 237.792969 459.503906 253.246094 467.417969 243.164062 C 475.328125 233.082031 500.914062 229.230469 501.191406 218.957031 C 501.328125 213.941406 491.523438 201.96875 491.523438 201.96875 Z M 480.027344 208.984375 " fill-opacity="1" fill-rule="evenodd"/></g><path fill="#f2c4b1" d="M 387.929688 199.5625 L 388.386719 275.355469 L 401.769531 257.011719 L 401.769531 193.957031 Z M 387.929688 199.5625 " fill-opacity="1" fill-rule="evenodd"/><path fill="#f2c4b1" d="M 420.671875 150.402344 C 420.671875 150.402344 422.34375 163.300781 415.445312 163.550781 L 424 193.8125 L 440.832031 163.261719 C 440.832031 163.261719 435.019531 164.390625 434.851562 158.636719 C 434.683594 152.882812 434.824219 146.070312 434.824219 146.070312 Z M 420.671875 150.402344 " fill-opacity="1" fill-rule="evenodd"/><path fill="#e07779" d="M 439.21875 162.882812 C 436.277344 170.878906 422.832031 181.738281 416.503906 162.621094 C 416.503906 162.621094 399.28125 161.546875 394.277344 166.765625 C 389.269531 171.984375 385.792969 206.460938 385.792969 206.460938 L 399.558594 207.757812 L 403.398438 218.046875 C 403.398438 218.046875 382.09375 233.984375 381.828125 267.269531 C 381.710938 282.09375 393.507812 305.839844 397.332031 326.929688 C 402.09375 353.199219 402.265625 366.578125 401.582031 376.214844 C 401.582031 376.214844 431.144531 386.15625 472.257812 377.21875 C 472.257812 377.21875 475.015625 288.292969 468.15625 259.070312 C 461.292969 229.847656 464.882812 201.15625 464.882812 201.15625 L 476.414062 213.703125 C 476.414062 213.703125 491.191406 209.207031 494.644531 202.351562 C 494.644531 202.351562 475.867188 170.554688 466.242188 167.660156 C 456.621094 164.765625 439.21875 162.882812 439.21875 162.882812 Z M 439.21875 162.882812 " fill-opacity="1" fill-rule="evenodd"/><path fill="#28444a" d="M 401.289062 171.519531 C 397.222656 182.421875 395.257812 195.308594 398.9375 206.617188 C 399.027344 206.890625 399.320312 207.035156 399.585938 206.949219 C 399.859375 206.859375 400.007812 206.570312 399.917969 206.300781 C 396.304688 195.210938 398.265625 182.574219 402.253906 171.878906 C 402.351562 171.613281 402.214844 171.316406 401.953125 171.21875 C 401.683594 171.117188 401.386719 171.253906 401.289062 171.519531 Z M 401.289062 171.519531 " fill-opacity="1" fill-rule="evenodd"/><path fill="#f2c4b1" d="M 404.726562 113.21875 C 404.726562 113.21875 402.460938 122.300781 404.507812 133.164062 C 406.554688 144.023438 412.523438 152.65625 425.015625 152.445312 C 437.507812 152.238281 443.4375 136.089844 443.4375 136.089844 C 443.4375 136.089844 449.28125 138.308594 450.734375 129.890625 C 452.183594 121.472656 445.957031 121.425781 443.5625 124.390625 C 443.5625 124.390625 443.402344 107.988281 432.179688 108.179688 C 420.957031 108.371094 410.640625 103.316406 404.726562 113.21875 Z M 404.726562 113.21875 " fill-opacity="1" fill-rule="evenodd"/><path fill="#28444a" d="M 430.144531 127.273438 C 431.007812 127.273438 431.707031 128.480469 431.707031 129.96875 C 431.707031 131.457031 431.007812 132.664062 430.144531 132.664062 C 429.28125 132.664062 428.582031 131.457031 428.582031 129.96875 C 428.582031 128.480469 429.28125 127.273438 430.144531 127.273438 Z M 412.113281 127.273438 C 412.976562 127.273438 413.675781 128.480469 413.675781 129.96875 C 413.675781 131.457031 412.976562 132.664062 412.113281 132.664062 C 411.25 132.664062 410.550781 131.457031 410.550781 129.96875 C 410.550781 128.480469 411.25 127.273438 412.113281 127.273438 Z M 412.277344 128.101562 C 412.671875 128.101562 412.996094 128.425781 412.996094 128.824219 C 412.996094 129.21875 412.671875 129.542969 412.277344 129.542969 C 411.878906 129.542969 411.558594 129.21875 411.558594 128.824219 C 411.558594 128.425781 411.878906 128.101562 412.277344 128.101562 Z M 430.265625 128.101562 C 430.660156 128.101562 430.984375 128.425781 430.984375 128.824219 C 430.984375 129.21875 430.660156 129.542969 430.265625 129.542969 C 429.867188 129.542969 429.542969 129.21875 429.542969 128.824219 C 429.542969 128.425781 429.867188 128.101562 430.265625 128.101562 Z M 430.265625 128.101562 " fill-opacity="1" fill-rule="evenodd"/><path fill="#28444a" d="M 426.761719 128.886719 C 427.183594 130.035156 428.550781 131.015625 429.820312 130.613281 C 430.09375 130.527344 430.242188 130.238281 430.15625 129.964844 C 430.066406 129.699219 429.78125 129.542969 429.507812 129.632812 C 428.753906 129.871094 427.980469 129.21875 427.734375 128.535156 C 427.640625 128.269531 427.34375 128.132812 427.074219 128.226562 C 426.808594 128.324219 426.667969 128.621094 426.761719 128.886719 Z M 426.761719 128.886719 " fill-opacity="1" fill-rule="evenodd"/><path fill="#28444a" d="M 408.335938 128.886719 C 408.753906 130.035156 410.121094 131.015625 411.390625 130.613281 C 411.664062 130.527344 411.8125 130.238281 411.730469 129.964844 C 411.640625 129.699219 411.351562 129.542969 411.082031 129.632812 C 410.324219 129.871094 409.550781 129.21875 409.304688 128.535156 C 409.210938 128.269531 408.914062 128.132812 408.648438 128.226562 C 408.378906 128.324219 408.242188 128.621094 408.335938 128.886719 Z M 408.335938 128.886719 " fill-opacity="1" fill-rule="evenodd"/><path fill="#ea9e7f" d="M 436.890625 146.609375 C 433.519531 146.507812 430.808594 143.746094 430.808594 140.359375 C 430.808594 136.910156 433.613281 134.109375 437.066406 134.109375 C 439.582031 134.109375 441.75 135.585938 442.742188 137.722656 C 441.792969 139.789062 439.851562 143.449219 436.890625 146.609375 Z M 404.996094 135.402344 C 406.050781 134.59375 407.375 134.109375 408.808594 134.109375 C 412.261719 134.109375 415.066406 136.910156 415.066406 140.359375 C 415.066406 143.277344 413.058594 145.726562 410.355469 146.421875 C 407.78125 143.480469 406.050781 139.664062 404.996094 135.402344 Z M 404.996094 135.402344 " fill-opacity="1" fill-rule="evenodd"/><path fill="#28444a" d="M 426.589844 124.082031 C 429.054688 123.492188 431.757812 123.828125 433.648438 125.628906 C 433.878906 125.847656 434.242188 125.839844 434.460938 125.609375 C 434.679688 125.382812 434.671875 125.019531 434.441406 124.800781 C 432.261719 122.726562 429.160156 122.289062 426.324219 122.96875 C 426.015625 123.042969 425.824219 123.351562 425.898438 123.65625 C 425.972656 123.964844 426.28125 124.15625 426.589844 124.082031 Z M 426.589844 124.082031 " fill-opacity="1" fill-rule="evenodd"/><path fill="#28444a" d="M 415.925781 123.089844 C 413.15625 122.167969 410.03125 122.339844 407.679688 124.21875 C 407.433594 124.414062 407.394531 124.777344 407.589844 125.023438 C 407.789062 125.269531 408.152344 125.308594 408.398438 125.113281 C 410.4375 123.480469 413.160156 123.378906 415.5625 124.175781 C 415.863281 124.277344 416.1875 124.113281 416.289062 123.8125 C 416.390625 123.515625 416.226562 123.191406 415.925781 123.089844 Z M 415.925781 123.089844 " fill-opacity="1" fill-rule="evenodd"/><path fill="#ea9e7f" d="M 420.722656 132.589844 C 420.332031 133.457031 419.578125 134.796875 419.378906 136.03125 C 419.222656 137.023438 419.402344 137.953125 420.195312 138.632812 C 420.636719 139.011719 421.171875 139.226562 421.714844 139.414062 C 422.011719 139.519531 422.339844 139.359375 422.445312 139.0625 C 422.546875 138.765625 422.390625 138.4375 422.089844 138.332031 C 421.683594 138.191406 421.273438 138.046875 420.941406 137.761719 C 420.332031 137.238281 420.410156 136.457031 420.632812 135.683594 C 420.914062 134.707031 421.464844 133.734375 421.769531 133.0625 C 421.898438 132.773438 421.769531 132.433594 421.480469 132.304688 C 421.191406 132.171875 420.851562 132.300781 420.722656 132.589844 Z M 420.722656 132.589844 " fill-opacity="1" fill-rule="evenodd"/><path fill="#ea9e7f" d="M 419.707031 144.324219 C 419.929688 144.574219 420.21875 144.726562 420.53125 144.820312 C 420.871094 144.921875 421.257812 144.945312 421.59375 145.023438 C 423.984375 145.574219 426.683594 144.421875 427.800781 142.1875 C 427.929688 141.933594 427.828125 141.621094 427.574219 141.496094 C 427.316406 141.367188 427.011719 141.472656 426.882812 141.726562 C 425.972656 143.542969 423.769531 144.46875 421.824219 144.019531 C 421.554688 143.957031 421.246094 143.933594 420.960938 143.867188 C 420.78125 143.828125 420.605469 143.777344 420.480469 143.636719 C 420.289062 143.425781 419.960938 143.40625 419.753906 143.597656 C 419.539062 143.785156 419.519531 144.113281 419.707031 144.324219 Z M 419.707031 144.324219 " fill-opacity="1" fill-rule="evenodd"/><path fill="#ea9e7f" d="M 447.667969 129.566406 C 447.667969 129.761719 447.628906 129.949219 447.554688 130.125 C 447.480469 130.304688 447.375 130.464844 447.238281 130.601562 C 447.101562 130.738281 446.945312 130.84375 446.765625 130.917969 C 446.585938 130.992188 446.398438 131.027344 446.207031 131.027344 C 446.011719 131.027344 445.824219 130.992188 445.644531 130.917969 C 445.464844 130.84375 445.308594 130.738281 445.171875 130.601562 C 445.035156 130.464844 444.929688 130.304688 444.855469 130.125 C 444.78125 129.949219 444.742188 129.761719 444.742188 129.566406 C 444.742188 129.375 444.78125 129.1875 444.855469 129.007812 C 444.929688 128.828125 445.035156 128.671875 445.171875 128.535156 C 445.308594 128.398438 445.464844 128.292969 445.644531 128.21875 C 445.824219 128.144531 446.011719 128.105469 446.207031 128.105469 C 446.398438 128.105469 446.585938 128.144531 446.765625 128.21875 C 446.945312 128.292969 447.101562 128.398438 447.238281 128.535156 C 447.375 128.671875 447.480469 128.828125 447.554688 129.007812 C 447.628906 129.1875 447.667969 129.375 447.667969 129.566406 Z M 447.667969 129.566406 " fill-opacity="1" fill-rule="nonzero"/><path fill="#ea9e7f" d="M 421.5625 152.605469 C 425.878906 153.210938 430.691406 152.046875 434.101562 149.421875 C 434.324219 149.25 434.367188 148.925781 434.195312 148.699219 C 434.019531 148.476562 433.695312 148.433594 433.472656 148.609375 C 430.277344 151.070312 425.757812 152.152344 421.707031 151.585938 C 421.425781 151.542969 421.164062 151.742188 421.125 152.023438 C 421.085938 152.304688 421.28125 152.5625 421.5625 152.605469 Z M 421.5625 152.605469 " fill-opacity="1" fill-rule="evenodd"/><path fill="#28444a" d="M 465.710938 171.3125 C 463.878906 176.164062 463.441406 191.199219 464.613281 199.199219 C 464.652344 199.480469 464.914062 199.675781 465.195312 199.632812 C 465.476562 199.59375 465.671875 199.332031 465.632812 199.050781 C 464.480469 191.199219 464.875 176.4375 466.675781 171.675781 C 466.777344 171.410156 466.644531 171.113281 466.375 171.015625 C 466.109375 170.914062 465.8125 171.046875 465.710938 171.3125 Z M 465.710938 171.3125 " fill-opacity="1" fill-rule="evenodd"/><path fill="#28444a" d="M 478.128906 208.253906 C 482.785156 206.90625 487.238281 204.789062 490.804688 201.453125 C 491.011719 201.257812 491.019531 200.933594 490.828125 200.726562 C 490.636719 200.519531 490.308594 200.507812 490.101562 200.703125 C 486.652344 203.925781 482.34375 205.964844 477.84375 207.265625 C 477.570312 207.34375 477.410156 207.628906 477.492188 207.902344 C 477.570312 208.175781 477.855469 208.332031 478.128906 208.253906 Z M 478.128906 208.253906 " fill-opacity="1" fill-rule="evenodd"/><path fill="#28444a" d="M 430.230469 108.300781 C 430.257812 109.296875 430.304688 110.292969 430.214844 111.289062 C 429.777344 116.375 425.714844 119.8125 419.984375 120.460938 C 420.648438 118.773438 421.164062 117.113281 421.128906 115.277344 C 420.164062 117.1875 418.808594 119.019531 416.863281 120.03125 C 415.863281 120.550781 414.746094 120.828125 413.667969 121.148438 C 411.769531 121.710938 409.660156 122.039062 407.722656 121.46875 C 408.597656 120.375 409.199219 119.082031 409.464844 117.699219 C 408.714844 118.46875 407.945312 119.203125 407.113281 119.878906 C 406.703125 120.214844 406.261719 120.511719 405.777344 120.726562 C 404.421875 121.332031 403.101562 121.050781 402.691406 119.441406 C 402.195312 117.511719 402.453125 115.785156 402.835938 113.855469 C 403.597656 110.003906 406.371094 105.980469 409.671875 103.921875 C 417.484375 99.042969 428.367188 98.207031 436.410156 103.058594 C 441.683594 106.234375 444.757812 111.371094 445.304688 117.4375 C 445.5 119.585938 445.523438 121.816406 444.535156 123.785156 C 443.925781 125 442.382812 125.320312 441 125.453125 C 440.816406 120.191406 440.105469 118.300781 437.1875 113.980469 C 435.859375 112.019531 432.496094 109.207031 430.230469 108.300781 Z M 430.230469 108.300781 " fill-opacity="1" fill-rule="evenodd"/><g clip-path="url(#51574dff14)"><path fill="#f2c4b1" d="M 501.195312 220.015625 C 501.363281 213.792969 485.761719 218.007812 485.761719 218.007812 C 485.761719 218.007812 471.640625 230.355469 459.28125 236.105469 C 452.609375 239.207031 444.675781 240.621094 438.769531 245.164062 C 437.214844 246.359375 432.410156 249.96875 433.941406 251.394531 C 435.386719 252.738281 443.589844 244.296875 444.851562 245.441406 C 445.726562 246.238281 432.816406 254.933594 434.980469 256.894531 C 436.914062 258.644531 446.015625 248.101562 446.625 249.035156 C 446.898438 249.453125 436.609375 258.0625 439.355469 259.785156 C 441.328125 261.023438 447.988281 250.925781 448.75 252.148438 C 449.09375 252.699219 441.625 259.398438 443.167969 260.804688 C 444.921875 262.402344 449.476562 256.191406 450.414062 255.695312 C 453.960938 253.835938 457.960938 255.03125 463.074219 248.511719 C 472.882812 236.011719 500.847656 232.753906 501.195312 220.015625 " fill-opacity="1" fill-rule="evenodd"/></g><path fill="#f2c4b1" d="M 335.519531 237.625 C 334.015625 231.585938 350.160156 232.351562 350.160156 232.351562 C 350.160156 232.351562 366.605469 241.378906 379.914062 244.339844 C 387.097656 245.9375 395.152344 245.617188 401.894531 248.785156 C 403.671875 249.617188 409.140625 252.109375 407.949219 253.832031 C 406.828125 255.457031 397.003906 248.972656 396.015625 250.363281 C 395.332031 251.328125 409.8125 257.046875 408.121094 259.425781 C 406.609375 261.554688 395.453125 253.210938 395.058594 254.25 C 394.878906 254.71875 406.78125 260.917969 404.46875 263.191406 C 402.808594 264.824219 394.132812 256.390625 393.652344 257.75 C 393.433594 258.359375 402.171875 263.296875 400.964844 265.003906 C 399.597656 266.941406 393.8125 261.851562 392.789062 261.570312 C 388.925781 260.515625 385.277344 262.542969 378.878906 257.273438 C 366.609375 247.167969 338.601562 249.992188 335.519531 237.625 " fill-opacity="1" fill-rule="evenodd"/></svg>