<svg xmlns="http://www.w3.org/2000/svg" xmlns:xlink="http://www.w3.org/1999/xlink" width="1024" zoomAndPan="magnify" viewBox="0 0 768 576" height="768" preserveAspectRatio="xMidYMid meet" version="1.0"><defs><clipPath id="5c28dc17d7"><path d="M 161.089844 65.089844 L 606.589844 65.089844 L 606.589844 510.589844 L 161.089844 510.589844 Z M 161.089844 65.089844 " clip-rule="nonzero"/></clipPath></defs><rect x="-76.8" width="921.6" fill="#ffffff" y="-57.6" height="691.2" fill-opacity="1"/><rect x="-76.8" width="921.6" fill="#137866" y="-57.6" height="691.2" fill-opacity="1"/><g clip-path="url(#5c28dc17d7)"><path fill="#ffffff" d="M 606.589844 287.839844 C 606.589844 291.484375 606.5 295.128906 606.320312 298.769531 C 606.140625 302.410156 605.875 306.042969 605.515625 309.671875 C 605.160156 313.300781 604.714844 316.917969 604.179688 320.523438 C 603.644531 324.128906 603.019531 327.71875 602.308594 331.296875 C 601.597656 334.871094 600.800781 338.425781 599.914062 341.960938 C 599.027344 345.5 598.054688 349.011719 596.996094 352.5 C 595.9375 355.988281 594.796875 359.449219 593.566406 362.882812 C 592.339844 366.3125 591.027344 369.714844 589.632812 373.082031 C 588.238281 376.449219 586.761719 379.78125 585.203125 383.078125 C 583.644531 386.371094 582.003906 389.628906 580.285156 392.84375 C 578.570312 396.058594 576.773438 399.230469 574.898438 402.355469 C 573.023438 405.480469 571.074219 408.5625 569.050781 411.59375 C 567.023438 414.625 564.925781 417.601562 562.753906 420.53125 C 560.582031 423.460938 558.339844 426.332031 556.027344 429.148438 C 553.714844 431.96875 551.335938 434.726562 548.886719 437.429688 C 546.4375 440.128906 543.925781 442.769531 541.347656 445.347656 C 538.769531 447.925781 536.128906 450.4375 533.429688 452.886719 C 530.726562 455.335938 527.96875 457.714844 525.148438 460.027344 C 522.332031 462.339844 519.460938 464.582031 516.53125 466.753906 C 513.601562 468.925781 510.625 471.023438 507.59375 473.050781 C 504.5625 475.074219 501.480469 477.023438 498.355469 478.898438 C 495.230469 480.773438 492.058594 482.570312 488.84375 484.285156 C 485.628906 486.003906 482.371094 487.644531 479.078125 489.203125 C 475.78125 490.761719 472.449219 492.238281 469.082031 493.632812 C 465.714844 495.027344 462.3125 496.339844 458.882812 497.566406 C 455.449219 498.796875 451.988281 499.9375 448.5 500.996094 C 445.011719 502.054688 441.5 503.027344 437.960938 503.914062 C 434.425781 504.800781 430.871094 505.597656 427.296875 506.308594 C 423.71875 507.019531 420.128906 507.644531 416.523438 508.179688 C 412.917969 508.714844 409.300781 509.160156 405.671875 509.515625 C 402.042969 509.875 398.410156 510.140625 394.769531 510.320312 C 391.128906 510.5 387.484375 510.589844 383.839844 510.589844 C 380.195312 510.589844 376.550781 510.5 372.910156 510.320312 C 369.269531 510.140625 365.632812 509.875 362.003906 509.515625 C 358.378906 509.160156 354.761719 508.714844 351.15625 508.179688 C 347.546875 507.644531 343.957031 507.019531 340.382812 506.308594 C 336.808594 505.597656 333.25 504.800781 329.714844 503.914062 C 326.179688 503.027344 322.667969 502.054688 319.179688 500.996094 C 315.691406 499.9375 312.230469 498.796875 308.796875 497.566406 C 305.363281 496.339844 301.964844 495.027344 298.597656 493.632812 C 295.226562 492.238281 291.898438 490.761719 288.601562 489.203125 C 285.304688 487.644531 282.050781 486.003906 278.835938 484.285156 C 275.621094 482.570312 272.449219 480.773438 269.324219 478.898438 C 266.195312 477.023438 263.117188 475.074219 260.085938 473.050781 C 257.054688 471.023438 254.074219 468.925781 251.148438 466.753906 C 248.21875 464.582031 245.347656 462.339844 242.527344 460.027344 C 239.710938 457.714844 236.949219 455.335938 234.25 452.886719 C 231.546875 450.4375 228.910156 447.925781 226.332031 445.347656 C 223.753906 442.769531 221.242188 440.128906 218.792969 437.429688 C 216.34375 434.726562 213.964844 431.96875 211.652344 429.148438 C 209.339844 426.332031 207.097656 423.460938 204.925781 420.53125 C 202.753906 417.601562 200.65625 414.625 198.628906 411.59375 C 196.605469 408.5625 194.652344 405.480469 192.78125 402.355469 C 190.90625 399.230469 189.109375 396.058594 187.390625 392.84375 C 185.671875 389.628906 184.035156 386.371094 182.476562 383.078125 C 180.917969 379.78125 179.441406 376.449219 178.042969 373.082031 C 176.648438 369.714844 175.339844 366.3125 174.109375 362.882812 C 172.882812 359.449219 171.738281 355.988281 170.679688 352.5 C 169.621094 349.011719 168.648438 345.5 167.765625 341.960938 C 166.878906 338.425781 166.082031 334.871094 165.367188 331.296875 C 164.65625 327.71875 164.035156 324.128906 163.5 320.523438 C 162.964844 316.917969 162.519531 313.300781 162.160156 309.671875 C 161.804688 306.042969 161.535156 302.410156 161.355469 298.769531 C 161.179688 295.128906 161.089844 291.484375 161.089844 287.839844 C 161.089844 284.195312 161.179688 280.550781 161.355469 276.910156 C 161.535156 273.269531 161.804688 269.632812 162.160156 266.003906 C 162.519531 262.378906 162.964844 258.761719 163.5 255.15625 C 164.035156 251.546875 164.65625 247.957031 165.367188 244.382812 C 166.082031 240.808594 166.878906 237.25 167.765625 233.714844 C 168.648438 230.179688 169.621094 226.667969 170.679688 223.179688 C 171.738281 219.691406 172.882812 216.230469 174.109375 212.796875 C 175.339844 209.363281 176.648438 205.964844 178.042969 202.597656 C 179.441406 199.226562 180.917969 195.898438 182.476562 192.601562 C 184.035156 189.304688 185.671875 186.050781 187.390625 182.835938 C 189.109375 179.621094 190.90625 176.449219 192.78125 173.324219 C 194.652344 170.195312 196.605469 167.117188 198.628906 164.085938 C 200.65625 161.054688 202.753906 158.074219 204.925781 155.148438 C 207.097656 152.21875 209.339844 149.347656 211.652344 146.527344 C 213.964844 143.710938 216.34375 140.949219 218.792969 138.25 C 221.242188 135.546875 223.753906 132.910156 226.332031 130.332031 C 228.910156 127.753906 231.546875 125.242188 234.25 122.792969 C 236.949219 120.34375 239.710938 117.964844 242.527344 115.652344 C 245.347656 113.339844 248.21875 111.097656 251.148438 108.925781 C 254.074219 106.753906 257.054688 104.65625 260.085938 102.628906 C 263.117188 100.605469 266.195312 98.652344 269.324219 96.78125 C 272.449219 94.90625 275.621094 93.109375 278.835938 91.390625 C 282.050781 89.671875 285.304688 88.035156 288.601562 86.476562 C 291.898438 84.917969 295.226562 83.441406 298.597656 82.042969 C 301.964844 80.648438 305.363281 79.339844 308.796875 78.109375 C 312.230469 76.882812 315.691406 75.738281 319.179688 74.679688 C 322.667969 73.621094 326.179688 72.648438 329.714844 71.765625 C 333.25 70.878906 336.808594 70.082031 340.382812 69.367188 C 343.957031 68.65625 347.546875 68.035156 351.15625 67.5 C 354.761719 66.964844 358.378906 66.519531 362.003906 66.160156 C 365.632812 65.804688 369.269531 65.535156 372.910156 65.355469 C 376.550781 65.179688 380.195312 65.089844 383.839844 65.089844 C 387.484375 65.089844 391.128906 65.179688 394.769531 65.355469 C 398.410156 65.535156 402.042969 65.804688 405.671875 66.160156 C 409.300781 66.519531 412.917969 66.964844 416.523438 67.5 C 420.128906 68.035156 423.71875 68.65625 427.296875 69.367188 C 430.871094 70.082031 434.425781 70.878906 437.960938 71.765625 C 441.5 72.648438 445.011719 73.621094 448.5 74.679688 C 451.988281 75.738281 455.449219 76.882812 458.882812 78.109375 C 462.3125 79.339844 465.714844 80.648438 469.082031 82.042969 C 472.449219 83.441406 475.78125 84.917969 479.078125 86.476562 C 482.371094 88.035156 485.628906 89.671875 488.84375 91.390625 C 492.058594 93.109375 495.230469 94.90625 498.355469 96.78125 C 501.480469 98.652344 504.5625 100.605469 507.59375 102.628906 C 510.625 104.65625 513.601562 106.753906 516.53125 108.925781 C 519.460938 111.097656 522.332031 113.339844 525.148438 115.652344 C 527.96875 117.964844 530.726562 120.34375 533.429688 122.792969 C 536.128906 125.242188 538.769531 127.753906 541.347656 130.332031 C 543.925781 132.910156 546.4375 135.546875 548.886719 138.25 C 551.335938 140.949219 553.714844 143.710938 556.027344 146.527344 C 558.339844 149.347656 560.582031 152.21875 562.753906 155.148438 C 564.925781 158.074219 567.023438 161.054688 569.050781 164.085938 C 571.074219 167.117188 573.023438 170.195312 574.898438 173.324219 C 576.773438 176.449219 578.570312 179.621094 580.285156 182.835938 C 582.003906 186.050781 583.644531 189.304688 585.203125 192.601562 C 586.761719 195.898438 588.238281 199.226562 589.632812 202.597656 C 591.027344 205.964844 592.339844 209.363281 593.566406 212.796875 C 594.796875 216.230469 595.9375 219.691406 596.996094 223.179688 C 598.054688 226.667969 599.027344 230.179688 599.914062 233.714844 C 600.800781 237.25 601.597656 240.808594 602.308594 244.382812 C 603.019531 247.957031 603.644531 251.546875 604.179688 255.15625 C 604.714844 258.761719 605.160156 262.378906 605.515625 266.003906 C 605.875 269.632812 606.140625 273.269531 606.320312 276.910156 C 606.5 280.550781 606.589844 284.195312 606.589844 287.839844 Z M 606.589844 287.839844 " fill-opacity="1" fill-rule="nonzero"/></g><path fill="#f2c4b1" d="M 414.957031 452.710938 C 414.957031 452.710938 414.175781 394.980469 411.824219 375.296875 C 409.472656 355.605469 411.277344 332.917969 411.277344 332.917969 L 430.804688 326.136719 C 430.804688 326.136719 429.660156 359.117188 429.488281 366.21875 C 429.40625 369.519531 430.363281 387.3125 429.683594 406.296875 C 429.140625 421.402344 426.863281 436.585938 427.269531 450.652344 C 427.269531 450.652344 423.617188 452.414062 414.957031 452.710938 Z M 414.957031 452.710938 " fill-opacity="1" fill-rule="evenodd"/><path fill="#f2c4b1" d="M 458.335938 452.710938 C 458.335938 452.710938 459.117188 394.980469 461.46875 375.296875 C 463.824219 355.605469 462.015625 332.917969 462.015625 332.917969 L 441.371094 329.402344 C 441.371094 329.402344 443.632812 359.117188 443.804688 366.21875 C 443.886719 369.519531 442.929688 387.3125 443.609375 406.296875 C 444.152344 421.402344 446.429688 436.585938 446.023438 450.652344 C 446.023438 450.652344 449.679688 452.414062 458.335938 452.710938 Z M 458.335938 452.710938 " fill-opacity="1" fill-rule="evenodd"/><path fill="#28444a" d="M 414.644531 447.84375 C 414.644531 447.84375 410.726562 451.457031 408.332031 453.539062 C 399.84375 460.910156 392.050781 466.382812 392.503906 468.089844 C 393.160156 470.570312 428.78125 466.300781 430.542969 462.992188 C 431.863281 460.507812 427.765625 447.679688 427.765625 447.679688 C 422.90625 451.269531 418.304688 451.390625 414.644531 447.84375 Z M 414.644531 447.84375 " fill-opacity="1" fill-rule="evenodd"/><path fill="#28444a" d="M 458.648438 447.84375 C 458.648438 447.84375 462.5625 451.457031 464.960938 453.539062 C 473.449219 460.910156 481.242188 466.382812 480.789062 468.089844 C 480.128906 470.570312 444.511719 466.300781 442.75 462.992188 C 441.429688 460.507812 445.527344 447.679688 445.527344 447.679688 C 450.386719 451.269531 454.984375 451.390625 458.648438 447.84375 Z M 458.648438 447.84375 " fill-opacity="1" fill-rule="evenodd"/><path fill="#28444a" d="M 442.769531 99.136719 C 442.769531 99.136719 452.589844 102.039062 450.527344 119.046875 C 448.167969 138.488281 429.984375 152.605469 414.027344 143.011719 C 408.039062 139.410156 401.015625 131.4375 399.738281 122.3125 C 397.695312 107.675781 402.863281 96.535156 411.503906 91.570312 C 420.144531 86.605469 438.042969 86.359375 442.769531 99.136719 Z M 442.769531 99.136719 " fill-opacity="1" fill-rule="evenodd"/><path fill="#28444a" d="M 400.976562 108.066406 C 400.277344 112.539062 398.921875 111.773438 399.296875 122.574219 C 399.761719 136.195312 407.417969 160.019531 420 168.503906 C 442.09375 183.402344 497.195312 180.179688 473.554688 153.492188 C 471.226562 150.863281 467.773438 148.183594 465.578125 145.386719 C 460.714844 139.191406 459.507812 131.144531 457.585938 123.734375 C 455.03125 113.917969 451.453125 103.472656 442.203125 98.195312 C 435.152344 94.175781 425.925781 93.410156 417.847656 94.328125 C 415.132812 94.636719 412.222656 95.296875 409.855469 96.722656 C 406.824219 98.542969 404.652344 101.476562 403.101562 104.589844 C 402.152344 106.492188 401.917969 108.410156 401.636719 110.484375 " fill-opacity="1" fill-rule="evenodd"/><path fill="#69bac9" d="M 403.351562 238.0625 C 403.351562 238.0625 401.0625 238.355469 398.996094 253.757812 C 396.929688 269.160156 410.09375 442.042969 410.09375 442.042969 C 410.542969 444.472656 433.769531 443.925781 433.769531 443.925781 C 433.769531 443.925781 432.339844 311.214844 434.457031 311.027344 C 436.683594 310.832031 441.371094 443.960938 441.371094 443.960938 C 441.371094 443.960938 461.753906 444.160156 462.675781 442.726562 C 462.675781 442.726562 467.953125 246.902344 459.550781 238 Z M 403.351562 238.0625 " fill-opacity="1" fill-rule="evenodd"/><path fill="#28444a" d="M 399.679688 249.214844 C 399.453125 250.558594 399.222656 252.066406 398.996094 253.757812 C 398.550781 257.109375 398.816406 267.910156 399.519531 282.757812 C 412.796875 287.238281 436.789062 293.742188 464.074219 293.703125 C 463.816406 277.730469 463.328125 263.660156 462.496094 253.617188 C 445.390625 248.742188 416.644531 242.460938 399.679688 249.214844 Z M 399.679688 249.214844 " fill-opacity="1" fill-rule="evenodd"/><path fill="#f2c4b1" d="M 420.363281 142.992188 C 420.363281 142.992188 422.003906 155.65625 415.234375 155.902344 L 423.628906 185.617188 L 440.144531 155.617188 C 440.144531 155.617188 434.441406 156.726562 434.277344 151.078125 C 434.113281 145.425781 434.25 138.734375 434.25 138.734375 Z M 420.363281 142.992188 " fill-opacity="1" fill-rule="evenodd"/><path fill="#f2c4b1" d="M 404.71875 106.480469 C 404.71875 106.480469 402.492188 115.398438 404.503906 126.0625 C 406.511719 136.726562 412.371094 145.203125 424.625 145 C 436.882812 144.792969 442.703125 128.9375 442.703125 128.9375 C 442.703125 128.9375 448.4375 131.117188 449.859375 122.851562 C 451.28125 114.582031 445.171875 114.535156 442.824219 117.445312 C 442.824219 117.445312 442.667969 101.34375 431.65625 101.53125 C 420.644531 101.71875 410.519531 96.753906 404.71875 106.480469 Z M 404.71875 106.480469 " fill-opacity="1" fill-rule="evenodd"/><path fill="#28444a" d="M 429.65625 120.28125 C 430.503906 120.28125 431.191406 121.464844 431.191406 122.925781 C 431.191406 124.386719 430.503906 125.574219 429.65625 125.574219 C 428.808594 125.574219 428.121094 124.386719 428.121094 122.925781 C 428.121094 121.464844 428.808594 120.28125 429.65625 120.28125 Z M 411.964844 120.28125 C 412.808594 120.28125 413.496094 121.464844 413.496094 122.925781 C 413.496094 124.386719 412.808594 125.574219 411.964844 125.574219 C 411.117188 125.574219 410.429688 124.386719 410.429688 122.925781 C 410.429688 121.464844 411.117188 120.28125 411.964844 120.28125 Z M 412.125 121.09375 C 412.515625 121.09375 412.832031 121.410156 412.832031 121.800781 C 412.832031 122.191406 412.515625 122.507812 412.125 122.507812 C 411.734375 122.507812 411.417969 122.191406 411.417969 121.800781 C 411.417969 121.410156 411.734375 121.09375 412.125 121.09375 Z M 429.773438 121.09375 C 430.164062 121.09375 430.480469 121.410156 430.480469 121.800781 C 430.480469 122.191406 430.164062 122.507812 429.773438 122.507812 C 429.382812 122.507812 429.066406 122.191406 429.066406 121.800781 C 429.066406 121.410156 429.382812 121.09375 429.773438 121.09375 Z M 429.773438 121.09375 " fill-opacity="1" fill-rule="evenodd"/><path fill="#28444a" d="M 426.339844 121.863281 C 426.75 122.992188 428.089844 123.957031 429.339844 123.558594 C 429.605469 123.476562 429.75 123.1875 429.667969 122.921875 C 429.582031 122.660156 429.300781 122.511719 429.03125 122.597656 C 428.289062 122.832031 427.53125 122.191406 427.289062 121.519531 C 427.199219 121.257812 426.90625 121.121094 426.644531 121.214844 C 426.382812 121.3125 426.246094 121.601562 426.339844 121.863281 Z M 426.339844 121.863281 " fill-opacity="1" fill-rule="evenodd"/><path fill="#28444a" d="M 408.257812 121.863281 C 408.671875 122.992188 410.007812 123.957031 411.257812 123.558594 C 411.523438 123.476562 411.667969 123.1875 411.585938 122.921875 C 411.5 122.660156 411.21875 122.511719 410.953125 122.597656 C 410.207031 122.832031 409.453125 122.191406 409.207031 121.519531 C 409.117188 121.257812 408.824219 121.121094 408.5625 121.214844 C 408.300781 121.3125 408.164062 121.601562 408.257812 121.863281 Z M 408.257812 121.863281 " fill-opacity="1" fill-rule="evenodd"/><path fill="#ea9e7f" d="M 436.277344 139.265625 C 432.96875 139.167969 430.308594 136.457031 430.308594 133.128906 C 430.308594 129.742188 433.0625 126.992188 436.449219 126.992188 C 438.917969 126.992188 441.042969 128.441406 442.019531 130.539062 C 441.085938 132.566406 439.183594 136.164062 436.277344 139.265625 Z M 404.980469 128.261719 C 406.015625 127.46875 407.316406 126.992188 408.722656 126.992188 C 412.113281 126.992188 414.863281 129.742188 414.863281 133.128906 C 414.863281 135.996094 412.894531 138.402344 410.238281 139.082031 C 407.714844 136.191406 406.015625 132.445312 404.980469 128.261719 Z M 404.980469 128.261719 " fill-opacity="1" fill-rule="evenodd"/><path fill="#28444a" d="M 426.171875 117.144531 C 428.589844 116.566406 431.238281 116.894531 433.097656 118.664062 C 433.320312 118.878906 433.679688 118.871094 433.894531 118.644531 C 434.105469 118.421875 434.097656 118.0625 433.875 117.847656 C 431.734375 115.8125 428.691406 115.382812 425.910156 116.050781 C 425.605469 116.121094 425.421875 116.425781 425.492188 116.726562 C 425.566406 117.03125 425.871094 117.214844 426.171875 117.144531 Z M 426.171875 117.144531 " fill-opacity="1" fill-rule="evenodd"/><path fill="#28444a" d="M 415.707031 116.171875 C 412.988281 115.269531 409.921875 115.433594 407.617188 117.28125 C 407.375 117.472656 407.335938 117.828125 407.527344 118.070312 C 407.722656 118.3125 408.078125 118.351562 408.320312 118.15625 C 410.320312 116.554688 412.992188 116.457031 415.351562 117.238281 C 415.644531 117.335938 415.964844 117.179688 416.0625 116.882812 C 416.160156 116.589844 416 116.269531 415.707031 116.171875 Z M 415.707031 116.171875 " fill-opacity="1" fill-rule="evenodd"/><path fill="#ea9e7f" d="M 420.414062 125.5 C 420.03125 126.351562 419.289062 127.667969 419.097656 128.878906 C 418.941406 129.855469 419.117188 130.765625 419.894531 131.433594 C 420.328125 131.808594 420.855469 132.015625 421.386719 132.203125 C 421.679688 132.304688 422 132.148438 422.101562 131.855469 C 422.203125 131.5625 422.050781 131.242188 421.757812 131.140625 C 421.355469 131 420.953125 130.859375 420.628906 130.578125 C 420.03125 130.066406 420.109375 129.296875 420.328125 128.535156 C 420.601562 127.582031 421.140625 126.621094 421.441406 125.964844 C 421.566406 125.679688 421.441406 125.347656 421.15625 125.21875 C 420.875 125.089844 420.539062 125.21875 420.414062 125.5 Z M 420.414062 125.5 " fill-opacity="1" fill-rule="evenodd"/><path fill="#28444a" d="M 427.71875 134.199219 C 427.980469 135.417969 427.746094 136.5625 427.179688 137.503906 C 423.550781 135.519531 420.566406 136.929688 418.898438 138.214844 C 418.320312 137.46875 417.867188 136.457031 417.582031 135.167969 Z M 427.71875 134.199219 " fill-opacity="1" fill-rule="evenodd"/><path fill="#e07779" d="M 418.84375 138.207031 C 420.507812 136.925781 423.496094 135.515625 427.121094 137.5 L 426.863281 137.945312 C 424.738281 140.386719 421.816406 140.910156 419.277344 138.769531 Z M 418.84375 138.207031 " fill-opacity="1" fill-rule="evenodd"/><path fill="#ea9e7f" d="M 446.851562 122.53125 C 446.851562 122.722656 446.816406 122.90625 446.742188 123.082031 C 446.667969 123.257812 446.566406 123.414062 446.429688 123.546875 C 446.296875 123.683594 446.140625 123.785156 445.964844 123.859375 C 445.789062 123.929688 445.605469 123.96875 445.417969 123.96875 C 445.226562 123.96875 445.042969 123.929688 444.867188 123.859375 C 444.691406 123.785156 444.535156 123.683594 444.402344 123.546875 C 444.269531 123.414062 444.164062 123.257812 444.089844 123.082031 C 444.019531 122.90625 443.980469 122.722656 443.980469 122.53125 C 443.980469 122.34375 444.019531 122.160156 444.089844 121.984375 C 444.164062 121.808594 444.269531 121.652344 444.402344 121.519531 C 444.535156 121.382812 444.691406 121.28125 444.867188 121.207031 C 445.042969 121.132812 445.226562 121.097656 445.417969 121.097656 C 445.605469 121.097656 445.789062 121.132812 445.964844 121.207031 C 446.140625 121.28125 446.296875 121.382812 446.429688 121.519531 C 446.566406 121.652344 446.667969 121.808594 446.742188 121.984375 C 446.816406 122.160156 446.851562 122.34375 446.851562 122.53125 Z M 446.851562 122.53125 " fill-opacity="1" fill-rule="nonzero"/><path fill="#ea9e7f" d="M 421.242188 145.152344 C 425.476562 145.75 430.199219 144.609375 433.542969 142.03125 C 433.761719 141.859375 433.804688 141.542969 433.632812 141.320312 C 433.464844 141.101562 433.144531 141.058594 432.925781 141.230469 C 429.789062 143.648438 425.359375 144.710938 421.382812 144.152344 C 421.105469 144.113281 420.847656 144.304688 420.808594 144.582031 C 420.769531 144.859375 420.964844 145.113281 421.242188 145.152344 Z M 421.242188 145.152344 " fill-opacity="1" fill-rule="evenodd"/><path fill="#28444a" d="M 435.339844 104.828125 C 435.339844 104.828125 432.925781 106.101562 431.414062 106.753906 C 430.1875 107.289062 426.589844 99.519531 418.355469 101.320312 C 404.84375 104.273438 404.664062 122.675781 405.980469 134.355469 C 406.617188 140.003906 403.089844 125.265625 403.089844 125.265625 C 403.089844 125.265625 400.269531 111.867188 402.699219 106.578125 C 405.132812 101.292969 412.195312 89.136719 425.230469 89.984375 C 438.269531 90.835938 441.863281 96.589844 442.832031 99.148438 L 439.382812 102.757812 Z M 435.339844 104.828125 " fill-opacity="1" fill-rule="evenodd"/><path fill="#69bac9" d="M 425.339844 174.652344 L 417.277344 154.523438 C 417.277344 154.523438 401.140625 155.558594 394.515625 159.023438 C 389.5 161.648438 373.214844 193.035156 373.214844 193.035156 C 373.214844 193.035156 380.367188 204.15625 391.082031 205.277344 L 398.496094 197.257812 C 398.0625 223.65625 399.507812 237.9375 396.140625 279.578125 C 405.976562 282.433594 414.617188 285.003906 427.210938 282.894531 L 431.117188 260.617188 L 435.878906 282.546875 C 448.980469 282.996094 455.96875 284.421875 467.53125 280.246094 C 467.53125 280.246094 465 244.078125 464.992188 233.242188 C 464.976562 210.660156 480.40625 164.824219 461.203125 156.785156 C 454.960938 154.171875 440.96875 154.117188 436.988281 154.3125 Z M 425.339844 174.652344 " fill-opacity="1" fill-rule="evenodd"/><path fill="#f2c4b1" d="M 448.34375 177.347656 L 438.75 205.1875 L 397.789062 236.105469 C 397.789062 236.105469 400.054688 239.640625 403.859375 243.066406 C 403.859375 243.066406 448.910156 222.84375 452.511719 216.644531 C 456.113281 210.445312 458.671875 191.328125 458.671875 191.328125 Z M 448.34375 177.347656 " fill-opacity="1" fill-rule="evenodd"/><path fill="#69bac9" d="M 454.316406 159.390625 C 454.316406 159.390625 439.886719 181.046875 434.308594 196.011719 C 434.308594 196.011719 442.300781 206.433594 457.179688 212.046875 C 457.179688 212.046875 464.417969 203.511719 467.140625 198.488281 " fill-opacity="1" fill-rule="evenodd"/><path fill="#28444a" d="M 453.894531 159.113281 C 453.894531 159.113281 439.429688 180.828125 433.835938 195.835938 C 433.777344 195.996094 433.804688 196.183594 433.910156 196.324219 C 433.910156 196.324219 441.976562 206.855469 457 212.523438 C 457.203125 212.597656 457.425781 212.539062 457.566406 212.378906 C 457.566406 212.378906 464.84375 203.78125 467.585938 198.730469 C 467.71875 198.484375 467.628906 198.175781 467.382812 198.042969 C 467.136719 197.910156 466.832031 198.003906 466.695312 198.246094 C 464.277344 202.710938 458.273438 209.957031 457.023438 211.449219 C 443.757812 206.34375 436.105469 197.425781 434.882812 195.925781 C 440.515625 181.007812 454.738281 159.671875 454.738281 159.671875 C 454.890625 159.4375 454.828125 159.128906 454.597656 158.972656 C 454.363281 158.816406 454.050781 158.878906 453.894531 159.113281 Z M 453.894531 159.113281 " fill-opacity="1" fill-rule="evenodd"/><path fill="#28444a" d="M 458.472656 204.863281 C 458.472656 204.863281 446.574219 198.6875 441.078125 192.824219 C 440.886719 192.621094 440.566406 192.609375 440.363281 192.800781 C 440.160156 192.988281 440.148438 193.308594 440.339844 193.511719 C 445.925781 199.472656 458.007812 205.761719 458.007812 205.761719 C 458.253906 205.894531 458.5625 205.796875 458.691406 205.550781 C 458.820312 205.300781 458.722656 204.996094 458.472656 204.863281 Z M 458.472656 204.863281 " fill-opacity="1" fill-rule="evenodd"/><path fill="#28444a" d="M 403.460938 248.871094 C 409.917969 249.304688 416.277344 250.058594 422.757812 250.203125 C 423.039062 250.207031 423.269531 249.988281 423.277344 249.707031 C 423.28125 249.429688 423.058594 249.199219 422.78125 249.191406 C 416.316406 249.046875 409.972656 248.296875 403.53125 247.859375 C 403.246094 247.84375 403.011719 248.050781 402.992188 248.332031 C 402.972656 248.609375 403.179688 248.851562 403.460938 248.871094 Z M 403.460938 248.871094 " fill-opacity="1" fill-rule="evenodd"/><path fill="#28444a" d="M 459.53125 248.527344 C 453.089844 248.960938 446.746094 249.714844 440.28125 249.855469 C 440.003906 249.863281 439.78125 250.09375 439.785156 250.371094 C 439.789062 250.652344 440.023438 250.875 440.304688 250.867188 C 446.785156 250.722656 453.144531 249.972656 459.601562 249.535156 C 459.882812 249.515625 460.089844 249.273438 460.070312 248.996094 C 460.050781 248.71875 459.8125 248.507812 459.53125 248.527344 Z M 459.53125 248.527344 " fill-opacity="1" fill-rule="evenodd"/><path fill="#28444a" d="M 376.09375 190.875 C 380.011719 196.140625 384.722656 200.722656 391.429688 201.953125 C 391.703125 202.003906 391.96875 201.820312 392.015625 201.546875 C 392.070312 201.273438 391.882812 201.007812 391.613281 200.957031 C 385.171875 199.777344 380.667969 195.332031 376.910156 190.273438 C 376.738281 190.046875 376.425781 190 376.199219 190.167969 C 375.976562 190.332031 375.929688 190.652344 376.09375 190.875 Z M 376.09375 190.875 " fill-opacity="1" fill-rule="evenodd"/><path fill="#28444a" d="M 425.210938 180.9375 L 441.953125 154.125 C 439.742188 154.1875 437.96875 154.265625 436.992188 154.3125 L 425.34375 174.652344 L 417.277344 154.523438 C 417.277344 154.523438 415.882812 154.613281 413.738281 154.828125 Z M 425.210938 180.9375 " fill-opacity="1" fill-rule="evenodd"/><path fill="#28444a" d="M 394.738281 167.082031 C 395.433594 173.570312 396.554688 180.015625 397.238281 186.503906 C 398.054688 194.234375 398.292969 201.992188 398.121094 209.761719 C 398.117188 210.039062 398.335938 210.273438 398.617188 210.277344 C 398.894531 210.285156 399.125 210.0625 399.132812 209.785156 C 399.304688 201.96875 399.070312 194.171875 398.242188 186.398438 C 397.558594 179.90625 396.441406 173.460938 395.742188 166.972656 C 395.714844 166.695312 395.460938 166.496094 395.183594 166.523438 C 394.910156 166.554688 394.710938 166.804688 394.738281 167.082031 Z M 394.738281 167.082031 " fill-opacity="1" fill-rule="evenodd"/><path fill="#28444a" d="M 432.375 107.011719 L 442.550781 98.886719 C 442.550781 98.886719 447.300781 101.097656 448.652344 106.226562 C 450.003906 111.359375 447.546875 115.03125 446.703125 115.742188 C 446.703125 115.742188 443.242188 115.21875 440.472656 120.402344 C 436.28125 122.078125 438.730469 108.429688 432.375 107.011719 Z M 432.375 107.011719 " fill-opacity="1" fill-rule="evenodd"/><path fill="#69bac9" d="M 440.71875 102.125 C 427.257812 98.785156 416.605469 98.628906 404.160156 102.515625 C 406.664062 97.175781 408.457031 92.960938 410.550781 88.371094 C 410.550781 88.371094 430.652344 87.984375 434.640625 88.289062 C 434.640625 88.289062 438.214844 96.449219 440.71875 102.125 Z M 440.71875 102.125 " fill-opacity="1" fill-rule="evenodd"/><path fill="#69bac9" d="M 399.078125 375.589844 C 399.078125 373.875 398.398438 372.234375 397.191406 371.027344 C 395.976562 369.820312 394.335938 369.140625 392.628906 369.140625 C 392.621094 369.140625 392.621094 369.140625 392.621094 369.140625 C 390.914062 369.140625 389.273438 369.820312 388.058594 371.027344 C 386.851562 372.234375 386.171875 373.875 386.171875 375.589844 C 386.171875 395.144531 386.171875 453.601562 386.171875 473.15625 C 386.171875 474.867188 386.851562 476.507812 388.058594 477.71875 C 389.273438 478.925781 390.914062 479.609375 392.621094 479.609375 C 392.621094 479.609375 392.621094 479.609375 392.628906 479.609375 C 394.335938 479.609375 395.976562 478.925781 397.191406 477.71875 C 398.398438 476.507812 399.078125 474.867188 399.078125 473.15625 C 399.078125 453.601562 399.078125 395.144531 399.078125 375.589844 Z M 399.078125 375.589844 " fill-opacity="1" fill-rule="evenodd"/><path fill="#69bac9" d="M 352.855469 375.589844 C 352.855469 373.875 352.179688 372.234375 350.96875 371.027344 C 349.753906 369.820312 348.113281 369.140625 346.40625 369.140625 C 346.402344 369.140625 346.402344 369.140625 346.402344 369.140625 C 344.691406 369.140625 343.050781 369.820312 341.839844 371.027344 C 340.628906 372.234375 339.949219 373.875 339.949219 375.589844 C 339.949219 395.144531 339.949219 453.601562 339.949219 473.15625 C 339.949219 474.867188 340.628906 476.507812 341.839844 477.71875 C 343.050781 478.925781 344.691406 479.609375 346.402344 479.609375 C 346.402344 479.609375 346.402344 479.609375 346.40625 479.609375 C 348.113281 479.609375 349.753906 478.925781 350.96875 477.71875 C 352.179688 476.507812 352.855469 474.867188 352.855469 473.15625 C 352.855469 453.601562 352.855469 395.144531 352.855469 375.589844 Z M 352.855469 375.589844 " fill-opacity="1" fill-rule="evenodd"/><path fill="#28444a" d="M 411.878906 369.136719 C 411.878906 365.351562 410.375 361.722656 407.695312 359.042969 C 405.019531 356.367188 401.390625 354.863281 397.601562 354.863281 L 335.625 354.863281 C 331.839844 354.863281 328.207031 356.367188 325.535156 359.042969 C 322.855469 361.722656 321.347656 365.351562 321.347656 369.136719 C 321.347656 372.921875 322.855469 376.554688 325.535156 379.234375 C 328.207031 381.90625 331.839844 383.410156 335.625 383.410156 L 397.601562 383.410156 C 401.390625 383.410156 405.019531 381.90625 407.695312 379.234375 C 410.375 376.554688 411.878906 372.921875 411.878906 369.136719 Z M 411.878906 369.136719 " fill-opacity="1" fill-rule="evenodd"/><path fill="#f2c4b1" d="M 338.027344 360.460938 C 340.414062 352.738281 319.625 383.667969 319.628906 390.394531 C 319.667969 414.804688 330.539062 437.714844 334.050781 464.285156 C 334.050781 464.285156 345.929688 461.378906 346.816406 458.210938 C 342.335938 416.203125 343.65625 404.738281 338.769531 392.578125 C 338.578125 392.101562 357.96875 369.847656 357.761719 369.371094 Z M 338.027344 360.460938 " fill-opacity="1" fill-rule="evenodd"/><path fill="#f2c4b1" d="M 316.277344 358.234375 C 319.847656 350.980469 294.464844 378.269531 293.414062 384.914062 C 289.625 409.027344 296.765625 433.359375 296.066406 460.152344 C 296.066406 460.152344 308.253906 459.144531 309.628906 456.152344 C 311.789062 413.960938 314.894531 402.847656 311.976562 390.070312 C 311.859375 389.570312 334.5 370.628906 334.371094 370.128906 Z M 316.277344 358.234375 " fill-opacity="1" fill-rule="evenodd"/><path fill="#28444a" d="M 295.476562 455.878906 C 295.476562 455.878906 291.847656 460.558594 289.605469 463.277344 C 281.65625 472.90625 274.125 480.328125 274.933594 482.113281 C 276.109375 484.710938 314.34375 473.503906 315.664062 469.558594 C 316.65625 466.597656 309.8125 453.296875 309.8125 453.296875 C 305.152344 458.121094 300.136719 459.097656 295.476562 455.878906 Z M 295.476562 455.878906 " fill-opacity="1" fill-rule="evenodd"/><path fill="#28444a" d="M 332.832031 457.265625 C 332.832031 457.265625 330.410156 462.667969 328.871094 465.839844 C 323.425781 477.074219 317.859375 486.066406 319.066406 487.609375 C 320.824219 489.855469 355.328125 469.9375 355.679688 465.792969 C 355.945312 462.679688 346.152344 451.371094 346.152344 451.371094 C 342.761719 457.160156 338.117188 459.292969 332.832031 457.265625 Z M 332.832031 457.265625 " fill-opacity="1" fill-rule="evenodd"/><path fill="#28444a" d="M 379.015625 182.355469 C 379.015625 182.355469 388.835938 185.257812 386.773438 202.261719 C 384.414062 221.703125 366.230469 235.824219 350.273438 226.226562 C 344.285156 222.625 338.625 237.277344 337.238281 210.632812 C 335.964844 186.21875 339.109375 179.753906 347.75 174.789062 C 356.390625 169.824219 374.289062 169.574219 379.015625 182.355469 Z M 379.015625 182.355469 " fill-opacity="1" fill-rule="evenodd"/><path fill="#28444a" d="M 368.59375 173.210938 C 370.925781 173.640625 373.183594 174.386719 375.238281 175.558594 C 379.398438 177.933594 383.378906 181.601562 385.707031 185.808594 C 387.613281 189.253906 388.488281 193.035156 389.25 196.855469 C 390.539062 203.347656 391.035156 209.898438 390.515625 216.511719 C 390.015625 222.925781 389.753906 230.144531 385.226562 235.191406 C 383.648438 236.953125 380.535156 235.871094 378.195312 235.496094 C 378.09375 233.4375 377.710938 231.457031 376.714844 229.625 C 376.589844 231.621094 376.472656 233.789062 375.03125 235.324219 C 372.765625 237.742188 368.703125 236.253906 365.425781 236.492188 C 361.402344 236.785156 357.261719 237.042969 353.222656 236.851562 C 350.738281 236.734375 347.421875 236.851562 345.101562 235.867188 C 345.121094 234.085938 345.40625 232.191406 344.96875 230.445312 C 344.203125 232.09375 343.429688 233.976562 343.460938 235.839844 C 342.511719 235.953125 341.589844 235.914062 340.660156 235.714844 C 339.25 231.804688 339.039062 227.851562 338.46875 223.777344 C 336.886719 212.453125 336.855469 201.210938 340.902344 190.367188 C 342.6875 185.585938 345.332031 180.8125 349.464844 177.652344 C 351.847656 175.828125 354.800781 174.6875 357.652344 173.851562 C 360.394531 173.046875 362.96875 172.914062 365.804688 173.246094 " fill-opacity="1" fill-rule="evenodd"/><path fill="#f2c4b1" d="M 395.484375 288.964844 L 397.800781 303.542969 C 397.800781 303.542969 384.285156 309.695312 373.609375 311.242188 C 362.933594 312.785156 363.375 328.765625 373.65625 321.515625 C 383.9375 314.265625 409.070312 317.867188 412.238281 308.285156 C 413.785156 303.605469 412.097656 284.335938 412.097656 284.335938 Z M 395.484375 288.964844 " fill-opacity="1" fill-rule="evenodd"/><path fill="#f2c4b1" d="M 324.484375 274.480469 L 324.929688 348.90625 L 338.0625 330.890625 L 338.0625 268.972656 Z M 324.484375 274.480469 " fill-opacity="1" fill-rule="evenodd"/><path fill="#f2c4b1" d="M 356.605469 226.210938 C 356.605469 226.210938 358.246094 238.875 351.476562 239.121094 L 359.871094 268.835938 L 376.386719 238.835938 C 376.386719 238.835938 370.683594 239.945312 370.519531 234.296875 C 370.355469 228.644531 370.492188 221.953125 370.492188 221.953125 Z M 356.605469 226.210938 " fill-opacity="1" fill-rule="evenodd"/><path fill="#e07779" d="M 374.804688 238.464844 C 371.914062 246.316406 358.722656 256.980469 352.511719 238.207031 C 352.511719 238.207031 335.617188 237.152344 330.703125 242.277344 C 325.789062 247.398438 322.378906 281.253906 322.378906 281.253906 L 335.886719 282.53125 L 336.859375 290.148438 C 322.515625 299.097656 314.976562 321.722656 322.855469 342.792969 C 313.617188 349.242188 292.292969 376.527344 292.292969 376.527344 C 292.292969 376.527344 333.667969 385.253906 355.683594 403.65625 C 358.011719 405.609375 411.585938 363.230469 401.089844 333.65625 C 393.050781 311.019531 392.753906 285.644531 392.753906 285.644531 L 394.921875 295.769531 C 403.144531 296.039062 409.265625 293.835938 414.324219 287.734375 C 414.324219 287.734375 409.785156 247.574219 396.242188 242.851562 C 386.929688 239.605469 374.804688 238.464844 374.804688 238.464844 Z M 374.804688 238.464844 " fill-opacity="1" fill-rule="evenodd"/><path fill="#28444a" d="M 337.585938 246.945312 C 333.597656 257.648438 331.667969 270.304688 335.28125 281.410156 C 335.367188 281.675781 335.65625 281.820312 335.917969 281.734375 C 336.183594 281.648438 336.328125 281.363281 336.242188 281.097656 C 332.699219 270.207031 334.621094 257.796875 338.53125 247.296875 C 338.628906 247.035156 338.492188 246.746094 338.238281 246.648438 C 337.976562 246.550781 337.683594 246.683594 337.585938 246.945312 Z M 337.585938 246.945312 " fill-opacity="1" fill-rule="evenodd"/><path fill="#f2c4b1" d="M 340.960938 189.699219 C 340.960938 189.699219 338.738281 198.617188 340.746094 209.28125 C 342.753906 219.945312 348.613281 228.421875 360.871094 228.21875 C 373.125 228.011719 378.945312 212.15625 378.945312 212.15625 C 378.945312 212.15625 384.679688 214.335938 386.101562 206.070312 C 387.527344 197.800781 381.414062 197.753906 379.066406 200.664062 C 379.066406 200.664062 378.910156 184.5625 367.898438 184.75 C 356.886719 184.9375 346.765625 179.972656 340.960938 189.699219 Z M 340.960938 189.699219 " fill-opacity="1" fill-rule="evenodd"/><path fill="#28444a" d="M 365.898438 203.496094 C 366.746094 203.496094 367.433594 204.679688 367.433594 206.140625 C 367.433594 207.601562 366.746094 208.789062 365.898438 208.789062 C 365.054688 208.789062 364.367188 207.601562 364.367188 206.140625 C 364.367188 204.679688 365.054688 203.496094 365.898438 203.496094 Z M 348.207031 203.496094 C 349.054688 203.496094 349.742188 204.679688 349.742188 206.140625 C 349.742188 207.601562 349.054688 208.789062 348.207031 208.789062 C 347.359375 208.789062 346.675781 207.601562 346.675781 206.140625 C 346.675781 204.679688 347.359375 203.496094 348.207031 203.496094 Z M 348.367188 204.308594 C 348.757812 204.308594 349.074219 204.625 349.074219 205.015625 C 349.074219 205.40625 348.757812 205.722656 348.367188 205.722656 C 347.980469 205.722656 347.664062 205.40625 347.664062 205.015625 C 347.664062 204.625 347.980469 204.308594 348.367188 204.308594 Z M 366.019531 204.308594 C 366.40625 204.308594 366.722656 204.625 366.722656 205.015625 C 366.722656 205.40625 366.40625 205.722656 366.019531 205.722656 C 365.628906 205.722656 365.3125 205.40625 365.3125 205.015625 C 365.3125 204.625 365.628906 204.308594 366.019531 204.308594 Z M 366.019531 204.308594 " fill-opacity="1" fill-rule="evenodd"/><path fill="#28444a" d="M 362.582031 205.082031 C 362.992188 206.207031 364.332031 207.171875 365.578125 206.773438 C 365.847656 206.691406 365.992188 206.40625 365.910156 206.136719 C 365.824219 205.875 365.542969 205.726562 365.273438 205.8125 C 364.53125 206.046875 363.773438 205.40625 363.53125 204.734375 C 363.4375 204.472656 363.148438 204.335938 362.886719 204.429688 C 362.625 204.527344 362.488281 204.816406 362.582031 205.082031 Z M 362.582031 205.082031 " fill-opacity="1" fill-rule="evenodd"/><path fill="#28444a" d="M 344.5 205.082031 C 344.910156 206.207031 346.25 207.171875 347.5 206.773438 C 347.765625 206.691406 347.910156 206.40625 347.828125 206.136719 C 347.742188 205.875 347.460938 205.726562 347.191406 205.8125 C 346.449219 206.046875 345.691406 205.40625 345.449219 204.734375 C 345.359375 204.472656 345.066406 204.335938 344.804688 204.429688 C 344.542969 204.527344 344.40625 204.816406 344.5 205.082031 Z M 344.5 205.082031 " fill-opacity="1" fill-rule="evenodd"/><path fill="#ea9e7f" d="M 372.523438 222.480469 C 369.214844 222.382812 366.554688 219.671875 366.554688 216.347656 C 366.554688 212.957031 369.308594 210.207031 372.695312 210.207031 C 375.164062 210.207031 377.289062 211.65625 378.265625 213.753906 C 377.332031 215.785156 375.429688 219.378906 372.523438 222.480469 Z M 341.226562 211.480469 C 342.261719 210.683594 343.5625 210.207031 344.96875 210.207031 C 348.359375 210.207031 351.109375 212.957031 351.109375 216.347656 C 351.109375 219.210938 349.140625 221.617188 346.484375 222.296875 C 343.960938 219.410156 342.261719 215.660156 341.226562 211.480469 Z M 341.226562 211.480469 " fill-opacity="1" fill-rule="evenodd"/><path fill="#28444a" d="M 362.414062 200.359375 C 364.832031 199.78125 367.484375 200.113281 369.339844 201.882812 C 369.566406 202.09375 369.921875 202.085938 370.136719 201.863281 C 370.351562 201.636719 370.339844 201.28125 370.117188 201.066406 C 367.976562 199.027344 364.9375 198.601562 362.152344 199.265625 C 361.851562 199.339844 361.664062 199.640625 361.734375 199.945312 C 361.808594 200.246094 362.113281 200.433594 362.414062 200.359375 Z M 362.414062 200.359375 " fill-opacity="1" fill-rule="evenodd"/><path fill="#28444a" d="M 351.945312 199.394531 C 349.230469 198.488281 346.164062 198.65625 343.855469 200.5 C 343.613281 200.695312 343.574219 201.050781 343.769531 201.292969 C 343.964844 201.535156 344.316406 201.574219 344.558594 201.378906 C 346.5625 199.777344 349.234375 199.675781 351.589844 200.460938 C 351.886719 200.558594 352.203125 200.398438 352.304688 200.105469 C 352.402344 199.808594 352.242188 199.492188 351.945312 199.394531 Z M 351.945312 199.394531 " fill-opacity="1" fill-rule="evenodd"/><path fill="#ea9e7f" d="M 356.65625 208.714844 C 356.273438 209.566406 355.53125 210.882812 355.339844 212.09375 C 355.183594 213.070312 355.363281 213.980469 356.136719 214.648438 C 356.574219 215.019531 357.097656 215.230469 357.628906 215.417969 C 357.921875 215.519531 358.242188 215.363281 358.34375 215.070312 C 358.449219 214.777344 358.292969 214.457031 358 214.355469 C 357.601562 214.214844 357.199219 214.074219 356.871094 213.792969 C 356.273438 213.28125 356.351562 212.511719 356.570312 211.75 C 356.84375 210.796875 357.386719 209.835938 357.683594 209.179688 C 357.808594 208.894531 357.683594 208.5625 357.402344 208.433594 C 357.117188 208.304688 356.785156 208.433594 356.65625 208.714844 Z M 356.65625 208.714844 " fill-opacity="1" fill-rule="evenodd"/><path fill="#ea9e7f" d="M 355.664062 220.238281 C 355.882812 220.484375 356.164062 220.632812 356.46875 220.726562 C 356.804688 220.828125 357.183594 220.851562 357.511719 220.925781 C 359.855469 221.46875 362.507812 220.332031 363.605469 218.140625 C 363.730469 217.890625 363.628906 217.585938 363.382812 217.460938 C 363.128906 217.335938 362.828125 217.4375 362.703125 217.6875 C 361.808594 219.472656 359.648438 220.382812 357.742188 219.941406 C 357.472656 219.878906 357.171875 219.855469 356.890625 219.792969 C 356.714844 219.753906 356.542969 219.703125 356.421875 219.566406 C 356.230469 219.355469 355.910156 219.339844 355.707031 219.523438 C 355.5 219.710938 355.480469 220.03125 355.664062 220.238281 Z M 355.664062 220.238281 " fill-opacity="1" fill-rule="evenodd"/><path fill="#ea9e7f" d="M 383.09375 205.746094 C 383.09375 205.9375 383.058594 206.121094 382.984375 206.296875 C 382.914062 206.472656 382.808594 206.628906 382.675781 206.761719 C 382.539062 206.894531 382.386719 207 382.210938 207.074219 C 382.035156 207.144531 381.851562 207.183594 381.660156 207.183594 C 381.46875 207.183594 381.285156 207.144531 381.109375 207.074219 C 380.933594 207 380.78125 206.894531 380.644531 206.761719 C 380.511719 206.628906 380.40625 206.472656 380.335938 206.296875 C 380.261719 206.121094 380.226562 205.9375 380.226562 205.746094 C 380.226562 205.558594 380.261719 205.375 380.335938 205.199219 C 380.40625 205.023438 380.511719 204.867188 380.644531 204.734375 C 380.78125 204.597656 380.933594 204.496094 381.109375 204.421875 C 381.285156 204.347656 381.46875 204.3125 381.660156 204.3125 C 381.851562 204.3125 382.035156 204.347656 382.210938 204.421875 C 382.386719 204.496094 382.539062 204.597656 382.675781 204.734375 C 382.808594 204.867188 382.914062 205.023438 382.984375 205.199219 C 383.058594 205.375 383.09375 205.558594 383.09375 205.746094 Z M 383.09375 205.746094 " fill-opacity="1" fill-rule="nonzero"/><path fill="#ea9e7f" d="M 357.484375 228.371094 C 361.714844 228.964844 366.4375 227.824219 369.785156 225.246094 C 370.003906 225.074219 370.046875 224.757812 369.875 224.535156 C 369.707031 224.316406 369.386719 224.273438 369.167969 224.445312 C 366.03125 226.863281 361.597656 227.925781 357.625 227.367188 C 357.347656 227.328125 357.089844 227.523438 357.050781 227.796875 C 357.011719 228.074219 357.207031 228.332031 357.484375 228.371094 Z M 357.484375 228.371094 " fill-opacity="1" fill-rule="evenodd"/><path fill="#28444a" d="M 394.898438 247.785156 C 392.699219 252.378906 391.015625 267.054688 391.492188 274.976562 C 391.507812 275.257812 391.75 275.46875 392.027344 275.453125 C 392.304688 275.4375 392.519531 275.195312 392.503906 274.917969 C 392.035156 267.140625 393.652344 252.730469 395.8125 248.222656 C 395.933594 247.972656 395.824219 247.667969 395.574219 247.550781 C 395.320312 247.429688 395.019531 247.535156 394.898438 247.785156 Z M 394.898438 247.785156 " fill-opacity="1" fill-rule="evenodd"/><path fill="#28444a" d="M 397.539062 291.855469 C 402.195312 290.882812 406.710938 289.140625 410.449219 286.140625 C 410.664062 285.964844 410.699219 285.648438 410.527344 285.429688 C 410.351562 285.210938 410.035156 285.175781 409.816406 285.351562 C 406.203125 288.25 401.835938 289.925781 397.332031 290.863281 C 397.0625 290.921875 396.886719 291.191406 396.941406 291.464844 C 397 291.734375 397.269531 291.910156 397.539062 291.855469 Z M 397.539062 291.855469 " fill-opacity="1" fill-rule="evenodd"/><path fill="#28444a" d="M 365.984375 184.863281 C 366.007812 185.84375 366.054688 186.824219 365.96875 187.800781 C 365.535156 192.792969 361.550781 196.171875 355.929688 196.804688 C 356.582031 195.148438 357.085938 193.515625 357.050781 191.71875 C 356.105469 193.59375 354.773438 195.390625 352.867188 196.382812 C 351.886719 196.894531 350.789062 197.164062 349.730469 197.480469 C 347.867188 198.035156 345.800781 198.355469 343.898438 197.796875 C 344.757812 196.722656 345.347656 195.449219 345.605469 194.097656 C 344.871094 194.851562 344.117188 195.570312 343.300781 196.234375 C 342.898438 196.5625 342.464844 196.855469 341.988281 197.070312 C 340.660156 197.660156 339.363281 197.382812 338.960938 195.804688 C 338.476562 193.910156 338.726562 192.214844 339.101562 190.320312 C 339.847656 186.539062 342.570312 182.589844 345.808594 180.566406 C 353.472656 175.777344 364.152344 174.957031 372.046875 179.71875 C 377.21875 182.839844 380.234375 187.882812 380.773438 193.835938 C 380.964844 195.949219 380.988281 198.140625 380.015625 200.074219 C 379.417969 201.261719 377.90625 201.578125 376.550781 201.707031 C 376.371094 196.542969 375.671875 194.6875 372.808594 190.445312 C 371.507812 188.515625 368.207031 185.753906 365.984375 184.863281 Z M 365.984375 184.863281 " fill-opacity="1" fill-rule="evenodd"/><path fill="#28444a" d="M 319.40625 250.746094 C 326.273438 250.179688 335.734375 254.921875 340.492188 260.824219 C 347.234375 269.183594 347.664062 280.511719 353.304688 289.480469 C 355.671875 293.246094 358.503906 296.8125 361.730469 299.875 C 364.726562 302.71875 368.082031 305.152344 371.246094 307.804688 C 380.496094 315.550781 393.433594 329.179688 386.933594 342.445312 C 386.0625 344.222656 384.929688 345.890625 383.605469 347.363281 C 381.652344 349.535156 379.261719 351.054688 376.449219 351.835938 C 374.285156 352.441406 371.957031 352.851562 369.804688 352.304688 C 325.039062 340.859375 306.601562 293.628906 304.183594 287.511719 C 302.570312 283.433594 301.394531 278.902344 301.476562 274.492188 C 301.640625 265.421875 305.632812 251.882812 319.40625 250.746094 Z M 319.40625 250.746094 " fill-opacity="1" fill-rule="evenodd"/><path fill="#f2c4b1" d="M 315.066406 261.445312 C 321.601562 255.367188 330.972656 260.382812 334.304688 263.238281 C 340.640625 268.671875 345.792969 287.671875 328.3125 288.839844 C 317.203125 289.585938 303.304688 272.390625 315.066406 261.445312 Z M 315.066406 261.445312 " fill-opacity="1" fill-rule="evenodd"/><path fill="#28444a" d="M 331.714844 265.523438 C 330.097656 265.066406 328.179688 265.363281 326.957031 266.8125 C 326.777344 267.027344 326.804688 267.347656 327.015625 267.527344 C 327.230469 267.707031 327.550781 267.679688 327.730469 267.464844 C 328.679688 266.335938 330.183594 266.140625 331.441406 266.496094 C 331.710938 266.570312 331.988281 266.414062 332.066406 266.144531 C 332.140625 265.878906 331.984375 265.597656 331.714844 265.523438 Z M 331.714844 265.523438 " fill-opacity="1" fill-rule="evenodd"/><path fill="#28444a" d="M 320.910156 268.449219 C 319.144531 268.277344 317.332031 268.828125 316.34375 269.710938 C 316.132812 269.898438 316.117188 270.214844 316.300781 270.425781 C 316.488281 270.632812 316.808594 270.652344 317.015625 270.464844 C 317.835938 269.734375 319.347656 269.3125 320.8125 269.457031 C 321.089844 269.480469 321.335938 269.277344 321.363281 269 C 321.390625 268.722656 321.1875 268.476562 320.910156 268.449219 Z M 320.910156 268.449219 " fill-opacity="1" fill-rule="evenodd"/><path fill="#28444a" d="M 333.59375 269.542969 C 332.789062 270.839844 331.019531 271.25 329.601562 270.757812 C 329.339844 270.667969 329.050781 270.804688 328.957031 271.070312 C 328.867188 271.332031 329.007812 271.621094 329.269531 271.714844 C 331.113281 272.355469 333.40625 271.765625 334.453125 270.074219 C 334.601562 269.835938 334.527344 269.527344 334.289062 269.378906 C 334.054688 269.230469 333.742188 269.304688 333.59375 269.542969 Z M 333.59375 269.542969 " fill-opacity="1" fill-rule="evenodd"/><path fill="#28444a" d="M 321.851562 273.160156 C 320.953125 274.433594 319.207031 275.539062 317.59375 274.976562 C 317.328125 274.886719 317.039062 275.023438 316.949219 275.289062 C 316.855469 275.550781 316.996094 275.839844 317.257812 275.933594 C 319.296875 276.640625 321.546875 275.347656 322.679688 273.746094 C 322.839844 273.515625 322.785156 273.203125 322.558594 273.039062 C 322.328125 272.878906 322.015625 272.933594 321.851562 273.160156 Z M 321.851562 273.160156 " fill-opacity="1" fill-rule="evenodd"/><path fill="#ea9e7f" d="M 331.613281 280.019531 C 330.726562 280.878906 329.460938 281.320312 328.304688 280.710938 C 328.058594 280.582031 327.753906 280.675781 327.625 280.921875 C 327.492188 281.171875 327.585938 281.476562 327.835938 281.605469 C 329.390625 282.429688 331.117188 281.90625 332.316406 280.746094 C 332.515625 280.550781 332.519531 280.230469 332.328125 280.03125 C 332.132812 279.828125 331.8125 279.824219 331.613281 280.019531 Z M 331.613281 280.019531 " fill-opacity="1" fill-rule="evenodd"/><path fill="#ea9e7f" d="M 323.476562 288.136719 C 324.734375 287.382812 325.675781 286.117188 325.972656 284.566406 C 326.527344 281.675781 324.628906 278.878906 321.734375 278.324219 C 318.84375 277.773438 316.046875 279.671875 315.492188 282.5625 C 315.488281 282.601562 315.480469 282.640625 315.472656 282.675781 C 317.734375 285.183594 320.5625 287.140625 323.476562 288.136719 Z M 339.117188 270.949219 C 336.496094 270.8125 334.113281 272.625 333.605469 275.273438 C 333.050781 278.164062 334.949219 280.960938 337.84375 281.515625 C 338.441406 281.628906 339.035156 281.636719 339.605469 281.554688 C 340.707031 278.285156 340.304688 274.402344 339.117188 270.949219 Z M 339.117188 270.949219 " fill-opacity="1" fill-rule="evenodd"/><path fill="#f2c4b1" d="M 411.9375 309.28125 C 413.855469 303.476562 398.003906 303.035156 398.003906 303.035156 C 398.003906 303.035156 381.246094 310.664062 368.007812 312.578125 C 360.863281 313.613281 353.007812 312.707031 346.171875 315.308594 C 344.371094 315.996094 338.835938 318.03125 339.875 319.808594 C 340.855469 321.480469 350.945312 315.855469 351.808594 317.289062 C 352.40625 318.285156 337.816406 322.816406 339.296875 325.273438 C 340.617188 327.464844 352.152344 320.121094 352.460938 321.167969 C 352.597656 321.636719 340.496094 326.832031 342.589844 329.226562 C 344.09375 330.949219 353.207031 323.332031 353.578125 324.695312 C 353.746094 325.308594 344.832031 329.5 345.886719 331.261719 C 347.082031 333.257812 353.117188 328.703125 354.140625 328.503906 C 357.996094 327.753906 361.417969 330.007812 368.066406 325.320312 C 380.816406 316.332031 408.011719 321.160156 411.9375 309.28125 " fill-opacity="1" fill-rule="evenodd"/><path fill="#f2c4b1" d="M 302.832031 294.417969 C 303.203125 293.964844 305.59375 290.78125 305.59375 290.78125 C 307.832031 295.929688 310.976562 302.273438 317.765625 306.003906 C 323.722656 309.277344 329.414062 313.988281 333.382812 319.613281 C 334.425781 321.09375 337.679688 325.59375 335.933594 326.433594 C 334.292969 327.226562 329.367188 317.53125 327.941406 318.195312 C 326.949219 318.660156 335.960938 329.867188 333.515625 331.007812 C 331.328125 332.023438 326.183594 320.226562 325.390625 320.882812 C 325.035156 321.175781 331.757812 331.59375 328.863281 332.363281 C 326.785156 332.917969 323.671875 322.179688 322.664062 323.050781 C 322.210938 323.441406 326.96875 331.398438 325.21875 332.21875 C 323.238281 333.152344 320.917969 326.421875 320.222656 325.726562 C 317.605469 323.113281 313.75 323.078125 311.019531 315.921875 C 305.789062 302.199219 297.882812 300.457031 302.832031 294.417969 Z M 302.832031 294.417969 " fill-opacity="1" fill-rule="evenodd"/><path fill="#f2c4b1" d="M 444.257812 215.738281 C 444.4375 209.628906 429.121094 213.734375 429.121094 213.734375 C 429.121094 213.734375 415.242188 225.828125 403.101562 231.445312 C 396.550781 234.480469 388.761719 235.855469 382.957031 240.300781 C 381.425781 241.472656 376.703125 245.003906 378.207031 246.410156 C 379.621094 247.730469 387.6875 239.460938 388.921875 240.585938 C 389.78125 241.371094 377.09375 249.882812 379.214844 251.8125 C 381.105469 253.535156 390.058594 243.203125 390.65625 244.117188 C 390.921875 244.527344 380.808594 252.960938 383.5 254.660156 C 385.433594 255.878906 391.988281 245.980469 392.734375 247.179688 C 393.070312 247.71875 385.726562 254.285156 387.238281 255.667969 C 388.953125 257.242188 393.4375 251.152344 394.359375 250.667969 C 397.84375 248.847656 401.765625 250.03125 406.796875 243.640625 C 416.449219 231.382812 443.890625 228.246094 444.257812 215.738281 " fill-opacity="1" fill-rule="evenodd"/></svg>